<svg width="65" height="65" viewBox="0 0 65 65" fill="none" xmlns="http://www.w3.org/2000/svg">
<rect x="-1" y="1" width="63" height="63" rx="31.5" transform="matrix(-1 0 0 1 63 0)" fill="white"/>
<rect x="-1" y="1" width="63" height="63" rx="31.5" transform="matrix(-1 0 0 1 63 0)" stroke="#0676B3" stroke-width="2"/>
<path d="M20.5879 32.4998C20.5879 31.9212 20.9953 31.443 21.5239 31.3673L21.6708 31.3569L40.7069 31.3578L33.8297 24.1291C33.4059 23.6837 33.4044 22.9601 33.8264 22.5128C34.2101 22.1061 34.8116 22.0679 35.2362 22.3989L35.3579 22.5093L44.0934 31.6893C44.1492 31.748 44.1977 31.8116 44.2389 31.8787C44.2506 31.8989 44.2624 31.9195 44.2736 31.9406C44.284 31.9587 44.2933 31.9774 44.3021 31.9964C44.3143 32.024 44.3263 32.0525 44.3371 32.0816C44.3459 32.104 44.3533 32.1258 44.36 32.1478C44.368 32.1751 44.3757 32.2042 44.3824 32.2337C44.3873 32.2543 44.3913 32.2741 44.3947 32.294C44.3995 32.3236 44.4036 32.3542 44.4065 32.3852C44.409 32.4089 44.4106 32.4323 44.4114 32.4558C44.4116 32.47 44.4119 32.4849 44.4119 32.4998L44.4114 32.5441C44.4105 32.5665 44.4091 32.589 44.407 32.6113L44.4119 32.4998C44.4119 32.572 44.4056 32.6425 44.3935 32.7109C44.3907 32.7273 44.3873 32.7441 44.3836 32.7608C44.3759 32.7952 44.367 32.8283 44.3568 32.8608C44.3518 32.8769 44.3459 32.8942 44.3397 32.9113C44.327 32.9457 44.3132 32.9785 44.2981 33.0104C44.2911 33.0254 44.2832 33.0411 44.275 33.0567C44.2614 33.0821 44.2475 33.1062 44.2328 33.1297C44.2224 33.1464 44.2108 33.1637 44.1988 33.1807L44.1894 33.1939C44.1603 33.2341 44.1286 33.2723 44.0947 33.308L44.0934 33.3091L35.358 42.4906C34.9342 42.9361 34.2485 42.9346 33.8265 42.4873C33.4428 42.0807 33.4091 41.4457 33.7246 40.9989L33.8297 40.8709L40.704 33.6437L21.6708 33.6428C21.0727 33.6428 20.5879 33.1311 20.5879 32.4998Z" fill="#0676B3"/>
</svg>
