<svg width="65" height="65" viewBox="0 0 65 65" fill="none" xmlns="http://www.w3.org/2000/svg">
<rect x="1" y="-1" width="63" height="63" rx="31.5" transform="matrix(1 1.74846e-07 1.74846e-07 -1 1.74846e-07 63)" fill="white"/>
<rect x="1" y="-1" width="63" height="63" rx="31.5" transform="matrix(1 1.74846e-07 1.74846e-07 -1 1.74846e-07 63)" stroke="#0676B3" stroke-width="2"/>
<path d="M44.4121 32.5002C44.4121 33.0788 44.0047 33.557 43.4761 33.6327L43.3292 33.6431L24.2931 33.6422L31.1703 40.8709C31.5941 41.3163 31.5956 42.0399 31.1736 42.4872C30.7899 42.8939 30.1884 42.9321 29.7638 42.6011L29.6421 42.4907L20.9066 33.3107C20.8508 33.252 20.8023 33.1884 20.7611 33.1213C20.7494 33.1011 20.7376 33.0805 20.7264 33.0594C20.716 33.0413 20.7067 33.0226 20.6979 33.0036C20.6857 32.976 20.6737 32.9475 20.6629 32.9184C20.6541 32.896 20.6467 32.8742 20.64 32.8522C20.632 32.8249 20.6243 32.7958 20.6176 32.7663C20.6127 32.7457 20.6087 32.7259 20.6053 32.706C20.6005 32.6764 20.5964 32.6458 20.5935 32.6148C20.591 32.5911 20.5894 32.5677 20.5886 32.5442C20.5884 32.53 20.5881 32.5151 20.5881 32.5002L20.5886 32.4559C20.5895 32.4334 20.5909 32.411 20.593 32.3887L20.5881 32.5002C20.5881 32.428 20.5944 32.3575 20.6065 32.289C20.6093 32.2727 20.6127 32.2559 20.6164 32.2392C20.6241 32.2048 20.633 32.1717 20.6432 32.1392C20.6482 32.1231 20.6541 32.1058 20.6603 32.0887C20.673 32.0543 20.6868 32.0215 20.7019 31.9896C20.7089 31.9746 20.7168 31.9589 20.725 31.9433C20.7386 31.9179 20.7525 31.8938 20.7672 31.8703C20.7776 31.8536 20.7892 31.8363 20.8012 31.8193L20.8106 31.8061C20.8397 31.7659 20.8714 31.7277 20.9053 31.692L20.9066 31.6909L29.642 22.5094C30.0658 22.0639 30.7515 22.0654 31.1735 22.5127C31.5572 22.9193 31.5909 23.5543 31.2754 24.0011L31.1703 24.129L24.296 31.3563L43.3292 31.3572C43.9273 31.3572 44.4121 31.8689 44.4121 32.5002Z" fill="#0676B3"/>
</svg>
