<svg xmlns="http://www.w3.org/2000/svg" width="1920" height="898" fill="none"><g opacity=".1"><mask id="a" fill="#fff"><path d="m-364.941-281.973 617.905 978.686L581.25-516.982 2698-264.141l-3062.941-17.832Z"/><path d="m-395.472-245.164 693.13 963.616L528.936-505.523 2658.47-308.371l-3053.942 63.207Z"/><path d="M-422.596-208.077 343.2 738.734 478.477-492.87 2616.26-350.961-422.596-208.077Z"/><path d="m-446.881-170.007 837.343 927.97L428.872-478.8l2141.708 86.037-3017.461 222.756Z"/><path d="m-466.474-134.465 901.485 909.009-50.542-1239.268L2525.93-430.11-466.474-134.465Z"/><path d="m-482.671-100.204 961.015 889.532L343.325-450.341l2137.795-14.322-2963.791 364.459Z"/><path d="M-495.782-67.468 520.077 802.398 305.476-435.876 2436.75-496.39-495.782-67.468Z"/><path d="M-508.711-27.655 571.262 816.947 261.307-417.367l2119.513-115.98L-508.711-27.655Z"/><path d="M-518.851 14.234 625.601 830.712 216.975-396.838 2319.69-570.35-518.851 14.234Z"/><path d="M-525.137 52.91 676.207 842.05 177.947-376.947 2261.25-602.846-525.137 52.909Z"/><path d="M-528.499 90.928 726.353 851.935 141.318-356.537 2201.93-633.268-528.499 90.928Z"/><path d="M-529 133.579 783.041 861.57 102.254-332.634 2133.25-665.593-529 133.579Z"/><path d="M-526.666 170.154 832.069 868.603 70.465-311.303 2072.55-691.836l-2599.216 861.99Z"/><path d="M-521.835 206.576 881.243 874.481 40.349-289.299 2010.45-716.615-521.835 206.576Z"/><path d="M-514.15 244.4 932.693 879.399 10.726-265.636 1944.21-740.903-514.15 244.4Z"/><path d="m-503.499 282.964 1489.04 600.195L-17.734-240.652 1874.84-764.134-503.499 282.964Z"/><path d="M-486.042 331.354 1052.44 886.05-50.92-208.059l1836.03-583.018L-486.042 331.354Z"/><path d="M-465.308 377.01 1116.15 886.878-79.595-176.007l1777.245-638.17L-465.308 377.01Z"/><path d="M-441.987 419.8 1176.42 885.916-104.07-144.785l1717.19-688.942L-441.987 419.8Z"/><path d="m-416.726 459.694 1649.836 423.76-1357.82-998.057L1532.01-850.04-416.726 459.694Z"/><path d="M-389.523 497.485 1287.27 879.657-142.244-85.017 1453.03-863.726-389.523 497.485Z"/><path d="M-358.043 536.361 1343.48 874.194-158.121-53.52 1369.49-875.914-358.043 536.361Z"/><path d="M-326.229 571.661 1394.97 867.795-170.537-23.931 1291.52-885.215-326.229 571.661Z"/><path d="M-289.965 608.068 1448.57 859.657-181.208 7.632 1208.84-892.945-289.965 608.068Z"/><path d="M-252.581 642.186 1499.27 850.507-189.115 38.246 1129.12-898.352-252.581 642.186Z"/><path d="M-218.811 670.547 1541.81 841.704-194.019 64.514 1061.09-901.384-218.811 670.547Z"/><path d="M-181.731 699.419 1585.48 831.54-197.339 92.079 990.07-903-181.731 699.419Z"/><path d="m-129.083 736.934 1771.953 79.4-1841.769-687.08L894.846-902.689-129.083 736.934Z"/><path d="m-86.225 764.889 1772.375 38.499-1883.969-645.329L821.516-900.494-86.225 764.889Z"/><path d="m-43.147 790.972 1770.107-1.04-1921.858-604.053 945.97-1082.638L-43.147 790.972Z"/><path d="m10.244 820.8 1763.976-48.101-1963.233-553.752L667.798-890.261 10.244 820.8Z"/><path d="m63.132 847.927 1754.678-92.832-1998.793-504.757L589.229-882.007 63.132 847.927Z"/><path d="M107.605 869.064 1852.23 739.926-172.708 275.793 525.869-873.801 107.605 869.064Z"/><path d="M150.575 888.153 1883.72 724.974-163.501 299.635 466.81-864.87 150.575 888.153Z"/><path d="m197.285 907.521 1718.825-199.11-2068.35-383.64 557.078-1178.9-207.553 1761.65Z"/><path d="M244.229 925.639 1946.86 691.474-139.693 349.275 344.75-842.314 244.229 925.639Z"/><path d="M295.502 943.983 1978.53 672.656-124.676 375.225l406.13-1203.544 14.048 1772.302Z"/><path d="M339.367 958.542 2004.11 656.304-110.801 396.785 229.133-815.5 339.367 958.542Z"/><path d="M389.865 974.079 2031.93 637.206-93.72 420.916 170.871-799.823 389.865 974.079Z"/><path d="m440.052 988.289 1617.888-370.33L-75.618 444.203 114.976-783.312 440.052 988.289Z"/><path d="M498.225 1003.29 2086.14 595.327-53.302 470.369 52.564-763.069 498.225 1003.29Z"/><path d="M552.873 1016.01 2110.79 573.76-31.092 494.176-3.854-743.019 552.873 1016.01Z"/><path d="M617.295 1029.36 2137.67 547.971-3.418 521.311-67.702-718.154 617.294 1029.36Z"/><path d="M677.741 1040.34 2160.83 523.438 23.963 545.9-125.091-693.648 677.741 1040.34Z"/><path d="M753.194 1052 2187 492.358 59.993 575.442-193.436-661.523 753.194 1052Z"/></mask><path stroke="#fff" d="m-364.941-281.973 617.905 978.686L581.25-516.982 2698-264.141l-3062.941-17.832Z" mask="url(#a)"/><path stroke="#fff" d="m-395.472-245.164 693.13 963.616L528.936-505.523 2658.47-308.371l-3053.942 63.207Z" mask="url(#a)"/><path stroke="#fff" d="M-422.596-208.077 343.2 738.734 478.477-492.87 2616.26-350.961-422.596-208.077Z" mask="url(#a)"/><path stroke="#fff" d="m-446.881-170.007 837.343 927.97L428.872-478.8l2141.708 86.037-3017.461 222.756Z" mask="url(#a)"/><path stroke="#fff" d="m-466.474-134.465 901.485 909.009-50.542-1239.268L2525.93-430.11-466.474-134.465Z" mask="url(#a)"/><path stroke="#fff" d="m-482.671-100.204 961.015 889.532L343.325-450.341l2137.795-14.322-2963.791 364.459Z" mask="url(#a)"/><path stroke="#fff" d="M-495.782-67.468 520.077 802.398 305.476-435.876 2436.75-496.39-495.782-67.468Z" mask="url(#a)"/><path stroke="#fff" d="M-508.711-27.655 571.262 816.947 261.307-417.367l2119.513-115.98L-508.711-27.655Z" mask="url(#a)"/><path stroke="#fff" d="M-518.851 14.234 625.601 830.712 216.975-396.838 2319.69-570.35-518.851 14.234Z" mask="url(#a)"/><path stroke="#fff" d="M-525.137 52.91 676.207 842.05 177.947-376.947 2261.25-602.846-525.137 52.909Z" mask="url(#a)"/><path stroke="#fff" d="M-528.499 90.928 726.353 851.935 141.318-356.537 2201.93-633.268-528.499 90.928Z" mask="url(#a)"/><path stroke="#fff" d="M-529 133.579 783.041 861.57 102.254-332.634 2133.25-665.593-529 133.579Z" mask="url(#a)"/><path stroke="#fff" d="M-526.666 170.154 832.069 868.603 70.465-311.303 2072.55-691.836l-2599.216 861.99Z" mask="url(#a)"/><path stroke="#fff" d="M-521.835 206.576 881.243 874.481 40.349-289.299 2010.45-716.615-521.835 206.576Z" mask="url(#a)"/><path stroke="#fff" d="M-514.15 244.4 932.693 879.399 10.726-265.636 1944.21-740.903-514.15 244.4Z" mask="url(#a)"/><path stroke="#fff" d="m-503.499 282.964 1489.04 600.195L-17.734-240.652 1874.84-764.134-503.499 282.964Z" mask="url(#a)"/><path stroke="#fff" d="M-486.042 331.354 1052.44 886.05-50.92-208.059l1836.03-583.018L-486.042 331.354Z" mask="url(#a)"/><path stroke="#fff" d="M-465.308 377.01 1116.15 886.878-79.595-176.007l1777.245-638.17L-465.308 377.01Z" mask="url(#a)"/><path stroke="#fff" d="M-441.987 419.8 1176.42 885.916-104.07-144.785l1717.19-688.942L-441.987 419.8Z" mask="url(#a)"/><path stroke="#fff" d="m-416.726 459.694 1649.836 423.76-1357.82-998.057L1532.01-850.04-416.726 459.694Z" mask="url(#a)"/><path stroke="#fff" d="M-389.523 497.485 1287.27 879.657-142.244-85.017 1453.03-863.726-389.523 497.485Z" mask="url(#a)"/><path stroke="#fff" d="M-358.043 536.361 1343.48 874.194-158.121-53.52 1369.49-875.914-358.043 536.361Z" mask="url(#a)"/><path stroke="#fff" d="M-326.229 571.661 1394.97 867.795-170.537-23.931 1291.52-885.215-326.229 571.661Z" mask="url(#a)"/><path stroke="#fff" d="M-289.965 608.068 1448.57 859.657-181.208 7.632 1208.84-892.945-289.965 608.068Z" mask="url(#a)"/><path stroke="#fff" d="M-252.581 642.186 1499.27 850.507-189.115 38.246 1129.12-898.352-252.581 642.186Z" mask="url(#a)"/><path stroke="#fff" d="M-218.811 670.547 1541.81 841.704-194.019 64.514 1061.09-901.384-218.811 670.547Z" mask="url(#a)"/><path stroke="#fff" d="M-181.731 699.419 1585.48 831.54-197.339 92.079 990.07-903-181.731 699.419Z" mask="url(#a)"/><path stroke="#fff" d="m-129.083 736.934 1771.953 79.4-1841.769-687.08L894.846-902.689-129.083 736.934Z" mask="url(#a)"/><path stroke="#fff" d="m-86.225 764.889 1772.375 38.499-1883.969-645.329L821.516-900.494-86.225 764.889Z" mask="url(#a)"/><path stroke="#fff" d="m-43.147 790.972 1770.107-1.04-1921.858-604.053 945.97-1082.638L-43.147 790.972Z" mask="url(#a)"/><path stroke="#fff" d="m10.244 820.8 1763.976-48.101-1963.233-553.752L667.798-890.261 10.244 820.8Z" mask="url(#a)"/><path stroke="#fff" d="m63.132 847.927 1754.678-92.832-1998.793-504.757L589.229-882.007 63.132 847.927Z" mask="url(#a)"/><path stroke="#fff" d="M107.605 869.064 1852.23 739.926-172.708 275.793 525.869-873.801 107.605 869.064Z" mask="url(#a)"/><path stroke="#fff" d="M150.575 888.153 1883.72 724.974-163.501 299.635 466.81-864.87 150.575 888.153Z" mask="url(#a)"/><path stroke="#fff" d="m197.285 907.521 1718.825-199.11-2068.35-383.64 557.078-1178.9-207.553 1761.65Z" mask="url(#a)"/><path stroke="#fff" d="M244.229 925.639 1946.86 691.474-139.693 349.275 344.75-842.314 244.229 925.639Z" mask="url(#a)"/><path stroke="#fff" d="M295.502 943.983 1978.53 672.656-124.676 375.225l406.13-1203.544 14.048 1772.302Z" mask="url(#a)"/><path stroke="#fff" d="M339.367 958.542 2004.11 656.304-110.801 396.785 229.133-815.5 339.367 958.542Z" mask="url(#a)"/><path stroke="#fff" d="M389.865 974.079 2031.93 637.206-93.72 420.916 170.871-799.823 389.865 974.079Z" mask="url(#a)"/><path stroke="#fff" d="m440.052 988.289 1617.888-370.33L-75.618 444.203 114.976-783.312 440.052 988.289Z" mask="url(#a)"/><path stroke="#fff" d="M498.225 1003.29 2086.14 595.327-53.302 470.369 52.564-763.069 498.225 1003.29Z" mask="url(#a)"/><path stroke="#fff" d="M552.873 1016.01 2110.79 573.76-31.092 494.176-3.854-743.019 552.873 1016.01Z" mask="url(#a)"/><path stroke="#fff" d="M617.295 1029.36 2137.67 547.971-3.418 521.311-67.702-718.154 617.294 1029.36Z" mask="url(#a)"/><path stroke="#fff" d="M677.741 1040.34 2160.83 523.438 23.963 545.9-125.091-693.648 677.741 1040.34Z" mask="url(#a)"/><path stroke="#fff" d="M753.194 1052 2187 492.358 59.993 575.442-193.436-661.523 753.194 1052Z" mask="url(#a)"/></g></svg>