<svg width="25" height="25" viewBox="0 0 25 25" fill="none" xmlns="http://www.w3.org/2000/svg">
<path d="M1.78571 0H10.7143C11.1879 0 11.6421 0.263392 11.977 0.732233C12.3119 1.20107 12.5 1.83696 12.5 2.5C12.5 3.16304 12.3119 3.79893 11.977 4.26777C11.6421 4.73661 11.1879 5 10.7143 5H1.78571C1.31211 5 0.85791 4.73661 0.523024 4.26777C0.188137 3.79893 0 3.16304 0 2.5C0 1.83696 0.188137 1.20107 0.523024 0.732233C0.85791 0.263392 1.31211 0 1.78571 0ZM14.2857 20H23.2143C23.6879 20 24.1421 20.2634 24.477 20.7322C24.8119 21.2011 25 21.837 25 22.5C25 23.163 24.8119 23.7989 24.477 24.2678C24.1421 24.7366 23.6879 25 23.2143 25H14.2857C13.8121 25 13.3579 24.7366 13.023 24.2678C12.6881 23.7989 12.5 23.163 12.5 22.5C12.5 21.837 12.6881 21.2011 13.023 20.7322C13.3579 20.2634 13.8121 20 14.2857 20ZM1.78571 10H23.2143C23.6879 10 24.1421 10.2634 24.477 10.7322C24.8119 11.2011 25 11.837 25 12.5C25 13.163 24.8119 13.7989 24.477 14.2678C24.1421 14.7366 23.6879 15 23.2143 15H1.78571C1.31211 15 0.85791 14.7366 0.523024 14.2678C0.188137 13.7989 0 13.163 0 12.5C0 11.837 0.188137 11.2011 0.523024 10.7322C0.85791 10.2634 1.31211 10 1.78571 10Z" fill="white"/>
</svg>
