<svg width="200" height="200" viewBox="0 0 200 200" fill="none" xmlns="http://www.w3.org/2000/svg">
<g clip-path="url(#clip0_4115_10799)">
<path d="M125.426 100.003C132.63 100.003 138.469 94.1632 138.469 86.9596C138.469 79.7559 132.63 73.9163 125.426 73.9163C118.222 73.9163 112.383 79.7559 112.383 86.9596C112.383 94.1632 118.222 100.003 125.426 100.003Z" fill="url(#paint0_linear_4115_10799)"/>
<path d="M97.7641 114.626C98.1794 115.027 98.5106 115.507 98.7384 116.037C98.9663 116.567 99.0862 117.138 99.0913 117.715C99.0963 118.293 98.9863 118.865 98.7677 119.399C98.5491 119.934 98.2262 120.419 97.818 120.827C97.4098 121.236 96.9243 121.558 96.39 121.777C95.8557 121.996 95.2832 122.106 94.7059 122.101C94.1286 122.096 93.5581 121.976 93.0276 121.748C92.4972 121.52 92.0174 121.189 91.6164 120.773C82.6478 111.804 77.6094 99.6402 77.6094 86.9565C77.6094 74.2728 82.6478 62.1085 91.6164 53.1396C92.0174 52.7243 92.4972 52.3931 93.0276 52.1652C93.5581 51.9374 94.1286 51.8174 94.7059 51.8124C95.2832 51.8074 95.8557 51.9174 96.39 52.136C96.9243 52.3546 97.4098 52.6775 97.818 53.0857C98.2262 53.4939 98.5491 53.9793 98.7677 54.5137C98.9863 55.048 99.0963 55.6205 99.0913 56.1978C99.0862 56.7751 98.9663 57.3456 98.7384 57.8761C98.5106 58.4065 98.1794 58.8863 97.7641 59.2873C94.1305 62.9209 91.2482 67.2345 89.2817 71.982C87.3152 76.7295 86.3031 81.8179 86.3031 86.9565C86.3031 92.0952 87.3152 97.1835 89.2817 101.931C91.2482 106.678 94.1305 110.992 97.7641 114.626ZM159.25 120.773C158.43 121.565 157.332 122.004 156.192 121.994C155.052 121.984 153.962 121.527 153.155 120.72C152.349 119.914 151.892 118.824 151.882 117.684C151.872 116.544 152.311 115.446 153.102 114.626C156.736 110.992 159.618 106.678 161.585 101.931C163.551 97.1835 164.564 92.0952 164.564 86.9565C164.564 81.8179 163.551 76.7295 161.585 71.982C159.618 67.2345 156.736 62.9209 153.102 59.2873C152.687 58.8863 152.356 58.4065 152.128 57.8761C151.9 57.3456 151.78 56.7751 151.775 56.1978C151.77 55.6205 151.88 55.048 152.099 54.5137C152.318 53.9793 152.64 53.4939 153.049 53.0857C153.457 52.6775 153.942 52.3546 154.477 52.136C155.011 51.9174 155.583 51.8074 156.161 51.8124C156.738 51.8174 157.309 51.9374 157.839 52.1652C158.369 52.3931 158.849 52.7243 159.25 53.1396C168.219 62.1085 173.257 74.2728 173.257 86.9565C173.257 99.6402 168.219 111.804 159.25 120.773Z" fill="url(#paint1_linear_4115_10799)"/>
<path d="M73.2529 200.001H130.857L129.774 108.264C135.052 107.186 139.743 104.187 142.935 99.8481C146.128 95.509 147.596 90.1389 147.055 84.779C146.513 79.419 144.001 74.4511 140.005 70.8382C136.009 67.2254 130.813 65.2251 125.426 65.2251C120.039 65.2251 114.844 67.2254 110.847 70.8382C106.851 74.4511 104.339 79.419 103.797 84.779C103.256 90.1389 104.724 95.509 107.917 99.8481C111.11 104.187 115.8 107.186 121.078 108.264V152.176C121.063 164.856 116.02 177.011 107.054 185.977C98.0883 194.943 85.9324 199.986 73.2529 200.001Z" fill="url(#paint2_linear_4115_10799)"/>
<g filter="url(#filter0_bi_4115_10799)">
<path d="M151.516 200C153.822 200 156.034 199.084 157.665 197.453C159.295 195.822 160.212 193.611 160.212 191.304V156.405C175.042 145.294 185.931 129.731 191.288 111.991C196.645 94.2515 196.189 75.2634 189.987 57.8009C183.785 40.3384 172.162 25.3166 156.815 14.9298C141.469 4.54296 123.203 -0.664556 104.686 0.0679223C57.6303 1.84181 21.0829 42.0021 21.0829 89.0928V94.7449L5.75271 129.223C4.84526 131.267 4.76044 133.582 5.51589 135.688C6.27135 137.793 7.80896 139.526 9.80917 140.527L21.0829 146.166V178.261C21.0829 184.027 23.3733 189.556 27.4501 193.633C31.5269 197.71 37.0563 200 42.8218 200H151.516Z" fill="url(#paint3_linear_4115_10799)" fill-opacity="0.2"/>
<path d="M160.062 156.33L160.122 156.285C174.926 145.193 185.797 129.657 191.144 111.948C196.492 94.2387 196.037 75.2834 189.846 57.8511C183.654 40.4188 172.051 25.4229 156.731 15.054C141.411 4.68512 123.177 -0.513408 104.692 0.217805L104.692 0.217816C57.7213 1.98849 21.2329 42.0779 21.2329 89.0928V94.7449V94.7767L21.22 94.8058L5.88981 129.284L160.062 156.33ZM160.062 156.33V156.405M160.062 156.33V156.405M160.062 156.405V191.304C160.062 193.571 159.161 195.744 157.559 197.347C155.956 198.95 153.782 199.85 151.516 199.85H42.8218C37.0961 199.85 31.6049 197.575 27.5562 193.527C23.5075 189.478 21.2329 183.987 21.2329 178.261V146.166V146.073M160.062 156.405L21.2329 146.073M21.2329 146.073L21.15 146.032M21.2329 146.073L21.15 146.032M21.15 146.032L9.8763 140.393C7.91059 139.409 6.3995 137.706 5.65708 135.637C4.91467 133.568 4.99801 131.293 5.88977 129.284L21.15 146.032Z" stroke="url(#paint4_linear_4115_10799)" stroke-opacity="0.1" stroke-width="0.3"/>
</g>
<g filter="url(#filter1_i_4115_10799)">
<path d="M97.767 114.624C98.1823 115.025 98.5135 115.505 98.7414 116.036C98.9692 116.566 99.0892 117.136 99.0942 117.714C99.0992 118.291 98.9892 118.864 98.7706 119.398C98.552 119.932 98.2292 120.418 97.8209 120.826C97.4127 121.234 96.9273 121.557 96.3929 121.776C95.8586 121.994 95.2861 122.104 94.7088 122.099C94.1315 122.094 93.561 121.974 93.0306 121.746C92.5001 121.518 92.0204 121.187 91.6193 120.772C82.6507 111.803 77.6123 99.6388 77.6123 86.955C77.6123 74.2713 82.6507 62.1071 91.6193 53.1381C92.0204 52.7229 92.5001 52.3916 93.0306 52.1638C93.561 51.9359 94.1315 51.816 94.7088 51.811C95.2861 51.8059 95.8586 51.9159 96.3929 52.1346C96.9273 52.3532 97.4127 52.676 97.8209 53.0842C98.2292 53.4924 98.552 53.9779 98.7706 54.5122C98.9892 55.0465 99.0992 55.619 99.0942 56.1963C99.0892 56.7736 98.9692 57.3441 98.7414 57.8746C98.5135 58.405 98.1823 58.8848 97.767 59.2859C94.1334 62.9194 91.2511 67.2331 89.2846 71.9806C87.3181 76.7281 86.306 81.8164 86.306 86.955C86.306 92.0937 87.3181 97.182 89.2846 101.93C91.2511 106.677 94.1334 110.991 97.767 114.624ZM159.253 120.772C158.433 121.564 157.335 122.002 156.195 121.992C155.055 121.982 153.964 121.525 153.158 120.719C152.352 119.913 151.895 118.822 151.885 117.682C151.875 116.542 152.313 115.444 153.105 114.624C156.739 110.991 159.621 106.677 161.588 101.93C163.554 97.182 164.566 92.0937 164.566 86.955C164.566 81.8164 163.554 76.7281 161.588 71.9806C159.621 67.2331 156.739 62.9194 153.105 59.2859C152.69 58.8848 152.359 58.405 152.131 57.8746C151.903 57.3441 151.783 56.7736 151.778 56.1963C151.773 55.619 151.883 55.0465 152.102 54.5122C152.32 53.9779 152.643 53.4924 153.052 53.0842C153.46 52.676 153.945 52.3532 154.48 52.1346C155.014 51.9159 155.586 51.8059 156.164 51.811C156.741 51.816 157.311 51.9359 157.842 52.1638C158.372 52.3916 158.852 52.7229 159.253 53.1381C168.222 62.1071 173.26 74.2713 173.26 86.955C173.26 99.6388 168.222 111.803 159.253 120.772Z" fill="white" fill-opacity="0.16"/>
</g>
<g filter="url(#filter2_i_4115_10799)">
<path d="M73.25 200.003H130.854L129.771 108.265C135.049 107.187 139.74 104.188 142.933 99.8493C146.125 95.5102 147.593 90.1402 147.052 84.7802C146.51 79.4203 143.998 74.4523 140.002 70.8395C136.006 67.2266 130.81 65.2263 125.423 65.2263C120.036 65.2263 114.841 67.2266 110.844 70.8395C106.848 74.4523 104.336 79.4203 103.794 84.7802C103.253 90.1402 104.721 95.5102 107.914 99.8493C111.107 104.188 115.797 107.187 121.075 108.265V152.177C121.06 164.857 116.017 177.013 107.051 185.978C98.0854 194.944 85.9295 199.988 73.25 200.003Z" fill="white" fill-opacity="0.16"/>
</g>
</g>
<defs>
<filter id="filter0_bi_4115_10799" x="-0.995117" y="-6" width="201.992" height="212" filterUnits="userSpaceOnUse" color-interpolation-filters="sRGB">
<feFlood flood-opacity="0" result="BackgroundImageFix"/>
<feGaussianBlur in="BackgroundImageFix" stdDeviation="3"/>
<feComposite in2="SourceAlpha" operator="in" result="effect1_backgroundBlur_4115_10799"/>
<feBlend mode="normal" in="SourceGraphic" in2="effect1_backgroundBlur_4115_10799" result="shape"/>
<feColorMatrix in="SourceAlpha" type="matrix" values="0 0 0 0 0 0 0 0 0 0 0 0 0 0 0 0 0 0 127 0" result="hardAlpha"/>
<feOffset dy="1"/>
<feGaussianBlur stdDeviation="1.5"/>
<feComposite in2="hardAlpha" operator="arithmetic" k2="-1" k3="1"/>
<feColorMatrix type="matrix" values="0 0 0 0 1 0 0 0 0 1 0 0 0 0 1 0 0 0 0.4 0"/>
<feBlend mode="normal" in2="shape" result="effect2_innerShadow_4115_10799"/>
</filter>
<filter id="filter1_i_4115_10799" x="77.6123" y="51.8108" width="95.6475" height="72.2886" filterUnits="userSpaceOnUse" color-interpolation-filters="sRGB">
<feFlood flood-opacity="0" result="BackgroundImageFix"/>
<feBlend mode="normal" in="SourceGraphic" in2="BackgroundImageFix" result="shape"/>
<feColorMatrix in="SourceAlpha" type="matrix" values="0 0 0 0 0 0 0 0 0 0 0 0 0 0 0 0 0 0 127 0" result="hardAlpha"/>
<feOffset dy="2"/>
<feGaussianBlur stdDeviation="1"/>
<feComposite in2="hardAlpha" operator="arithmetic" k2="-1" k3="1"/>
<feColorMatrix type="matrix" values="0 0 0 0 1 0 0 0 0 1 0 0 0 0 1 0 0 0 0.4 0"/>
<feBlend mode="normal" in2="shape" result="effect1_innerShadow_4115_10799"/>
</filter>
<filter id="filter2_i_4115_10799" x="73.25" y="65.2263" width="73.9121" height="136.776" filterUnits="userSpaceOnUse" color-interpolation-filters="sRGB">
<feFlood flood-opacity="0" result="BackgroundImageFix"/>
<feBlend mode="normal" in="SourceGraphic" in2="BackgroundImageFix" result="shape"/>
<feColorMatrix in="SourceAlpha" type="matrix" values="0 0 0 0 0 0 0 0 0 0 0 0 0 0 0 0 0 0 127 0" result="hardAlpha"/>
<feOffset dy="2"/>
<feGaussianBlur stdDeviation="1"/>
<feComposite in2="hardAlpha" operator="arithmetic" k2="-1" k3="1"/>
<feColorMatrix type="matrix" values="0 0 0 0 1 0 0 0 0 1 0 0 0 0 1 0 0 0 0.4 0"/>
<feBlend mode="normal" in2="shape" result="effect1_innerShadow_4115_10799"/>
</filter>
<linearGradient id="paint0_linear_4115_10799" x1="115.616" y1="73.4332" x2="143.428" y2="76.9175" gradientUnits="userSpaceOnUse">
<stop stop-color="#0676B3"/>
<stop offset="1" stop-color="#1DAAF7"/>
</linearGradient>
<linearGradient id="paint1_linear_4115_10799" x1="89.4656" y1="50.5106" x2="190.115" y2="67.6696" gradientUnits="userSpaceOnUse">
<stop stop-color="#0676B3"/>
<stop offset="1" stop-color="#1DAAF7"/>
</linearGradient>
<linearGradient id="paint2_linear_4115_10799" x1="82.4149" y1="62.7293" x2="162.076" y2="68.2025" gradientUnits="userSpaceOnUse">
<stop stop-color="#0676B3"/>
<stop offset="1" stop-color="#1DAAF7"/>
</linearGradient>
<linearGradient id="paint3_linear_4115_10799" x1="5.00488" y1="0" x2="230.141" y2="54.3056" gradientUnits="userSpaceOnUse">
<stop stop-color="#83E9FF"/>
<stop offset="0.453125" stop-color="#85A0FF"/>
</linearGradient>
<linearGradient id="paint4_linear_4115_10799" x1="10.9421" y1="9.09091" x2="194.997" y2="9.09091" gradientUnits="userSpaceOnUse">
<stop stop-color="#3CDEB6"/>
<stop offset="0.65625" stop-color="#364AFF"/>
</linearGradient>
<clipPath id="clip0_4115_10799">
<rect width="200" height="200" fill="white"/>
</clipPath>
</defs>
</svg>
