<svg width="200" height="200" viewBox="0 0 200 200" fill="none" xmlns="http://www.w3.org/2000/svg">
<g opacity="0.7" clip-path="url(#clip0_4115_10793)">
<path d="M100.001 95.6472C116.811 95.6472 130.437 82.0205 130.437 65.2112C130.437 48.4018 116.811 34.7751 100.001 34.7751C83.1921 34.7751 69.5654 48.4018 69.5654 65.2112C69.5654 82.0205 83.1921 95.6472 100.001 95.6472Z" fill="url(#paint0_linear_4115_10793)"/>
<path d="M100.002 139.127C109.608 139.127 117.394 131.341 117.394 121.735C117.394 112.13 109.608 104.343 100.002 104.343C90.397 104.343 82.6104 112.13 82.6104 121.735C82.6104 131.341 90.397 139.127 100.002 139.127Z" fill="url(#paint1_linear_4115_10793)"/>
<path d="M100.002 199.999C109.608 199.999 117.394 192.212 117.394 182.607C117.394 173.002 109.608 165.215 100.002 165.215C90.397 165.215 82.6104 173.002 82.6104 182.607C82.6104 192.212 90.397 199.999 100.002 199.999Z" fill="url(#paint2_linear_4115_10793)"/>
<path d="M52.1742 186.955C61.7796 186.955 69.5662 179.168 69.5662 169.563C69.5662 159.958 61.7796 152.171 52.1742 152.171C42.5689 152.171 34.7822 159.958 34.7822 169.563C34.7822 179.168 42.5689 186.955 52.1742 186.955Z" fill="url(#paint3_linear_4115_10793)"/>
<path d="M147.83 186.955C157.435 186.955 165.222 179.168 165.222 169.563C165.222 159.958 157.435 152.171 147.83 152.171C138.224 152.171 130.438 159.958 130.438 169.563C130.438 179.168 138.224 186.955 147.83 186.955Z" fill="url(#paint4_linear_4115_10793)"/>
<g filter="url(#filter0_bi_4115_10793)">
<path d="M142.613 113.039C141.749 113.039 140.905 112.782 140.188 112.301C139.472 111.819 138.915 111.135 138.588 110.335C138.262 109.536 138.181 108.657 138.355 107.812C138.53 106.966 138.953 106.192 139.569 105.587C147.587 97.7277 153.083 87.6586 155.356 76.6636C157.629 65.6685 156.576 54.2456 152.331 43.8514C148.086 33.4571 140.842 24.5624 131.523 18.3014C122.203 12.0404 111.23 8.69676 100.002 8.69676C88.7747 8.69676 77.8015 12.0404 68.4818 18.3014C59.1621 24.5624 51.9181 33.4571 47.6734 43.8514C43.4287 54.2456 42.3757 65.6685 44.6486 76.6636C46.9215 87.6586 52.4174 97.7277 60.4355 105.587C60.8526 105.984 61.1867 106.461 61.4181 106.989C61.6495 107.516 61.7738 108.085 61.7836 108.661C61.7934 109.237 61.6886 109.809 61.4753 110.345C61.262 110.88 60.9444 111.367 60.541 111.779C60.1376 112.19 59.6565 112.518 59.1255 112.741C58.5946 112.965 58.0244 113.081 57.4482 113.083C56.872 113.085 56.3012 112.972 55.769 112.751C55.2369 112.53 54.7539 112.205 54.3483 111.796C45.0966 102.728 38.7553 91.1094 36.1327 78.4228C33.5101 65.7361 34.7251 52.5559 39.6228 40.5625C44.5205 28.5692 52.879 18.3061 63.6325 11.0818C74.386 3.85759 87.0474 -0.000488281 100.002 -0.000488281C112.957 -0.000488281 125.618 3.85759 136.372 11.0818C147.126 18.3061 155.484 28.5692 160.382 40.5625C165.279 52.5559 166.494 65.7361 163.872 78.4228C161.249 91.1094 154.908 102.728 145.656 111.796C144.844 112.593 143.751 113.039 142.613 113.039Z" fill="url(#paint5_linear_4115_10793)" fill-opacity="0.2"/>
<path d="M60.3305 105.694L60.332 105.696C60.7348 106.079 61.0573 106.539 61.2807 107.049C61.5042 107.558 61.6241 108.107 61.6336 108.663C61.6431 109.22 61.5419 109.772 61.3359 110.289C61.13 110.806 60.8234 111.277 60.4339 111.674C60.0444 112.071 59.5799 112.387 59.0672 112.603C58.5546 112.819 58.0041 112.931 57.4478 112.933C56.8915 112.934 56.3404 112.825 55.8266 112.612C55.3127 112.399 54.8465 112.085 54.4548 111.69L54.4533 111.689C45.2229 102.641 38.8961 91.0498 36.2796 78.3924C33.663 65.7349 34.8752 52.585 39.7617 40.6192C44.6481 28.6534 52.9873 18.414 63.7162 11.2063C74.445 3.99871 87.0772 0.149512 100.002 0.149512C112.927 0.149512 125.56 3.99871 136.288 11.2063C147.017 18.414 155.356 28.6534 160.243 40.6192C165.129 52.585 166.342 65.7349 163.725 78.3924C161.108 91.0498 154.782 102.641 145.551 111.689L145.656 111.796L145.551 111.689C144.767 112.458 143.712 112.889 142.613 112.889C141.779 112.889 140.964 112.641 140.272 112.176C139.58 111.711 139.042 111.051 138.727 110.279C138.412 109.507 138.333 108.659 138.502 107.842C138.671 107.026 139.079 106.278 139.674 105.694C147.713 97.814 153.224 87.7182 155.503 76.6939C157.782 65.6697 156.726 54.2165 152.47 43.7947C148.214 33.3728 140.951 24.4545 131.606 18.1769C122.262 11.8993 111.26 8.54676 100.002 8.54676C88.7449 8.54676 77.7426 11.8993 68.3982 18.1769C59.0537 24.4545 51.7905 33.3728 47.5345 43.7947C43.2786 54.2165 42.2228 65.6697 44.5017 76.6939C46.7807 87.7182 52.2911 97.814 60.3305 105.694Z" stroke="url(#paint6_linear_4115_10793)" stroke-opacity="0.1" stroke-width="0.3"/>
</g>
<g filter="url(#filter1_bi_4115_10793)">
<path d="M100.002 173.911C98.8491 173.911 97.7432 173.453 96.9278 172.638C96.1124 171.822 95.6543 170.716 95.6543 169.563V134.779C95.6543 133.626 96.1124 132.52 96.9278 131.705C97.7432 130.889 98.8491 130.431 100.002 130.431C101.155 130.431 102.261 130.889 103.077 131.705C103.892 132.52 104.35 133.626 104.35 134.779V169.563C104.35 170.716 103.892 171.822 103.077 172.638C102.261 173.453 101.155 173.911 100.002 173.911Z" fill="url(#paint7_linear_4115_10793)" fill-opacity="0.2"/>
<path d="M100.002 173.761C98.8889 173.761 97.8211 173.319 97.0339 172.532C96.2466 171.744 95.8043 170.677 95.8043 169.563V134.779C95.8043 133.666 96.2466 132.598 97.0339 131.811C97.8211 131.023 98.8889 130.581 100.002 130.581C101.116 130.581 102.183 131.023 102.971 131.811C103.758 132.598 104.2 133.666 104.2 134.779V169.563C104.2 170.677 103.758 171.744 102.971 172.532C102.183 173.319 101.116 173.761 100.002 173.761Z" stroke="url(#paint8_linear_4115_10793)" stroke-opacity="0.1" stroke-width="0.3"/>
</g>
<g filter="url(#filter2_bi_4115_10793)">
<path d="M52.1742 160.87C51.0211 160.87 49.9151 160.411 49.0997 159.596C48.2843 158.781 47.8262 157.675 47.8262 156.522V139.13C47.8218 138.318 48.0447 137.521 48.4696 136.83C48.8945 136.138 49.5046 135.579 50.2307 135.216L85.0147 117.824C86.0468 117.309 87.2414 117.225 88.3356 117.59C89.4299 117.955 90.3343 118.74 90.8497 119.772C91.3652 120.804 91.4495 121.999 91.0842 123.093C90.7189 124.187 89.9339 125.092 88.9018 125.607L56.5222 141.817V156.522C56.5222 157.675 56.0641 158.781 55.2487 159.596C54.4333 160.411 53.3274 160.87 52.1742 160.87Z" fill="url(#paint9_linear_4115_10793)" fill-opacity="0.2"/>
<path d="M47.9762 139.13L47.9762 139.129C47.972 138.345 48.1871 137.576 48.5974 136.908C49.0077 136.24 49.5967 135.701 50.2977 135.351L50.2978 135.35L85.0817 117.959C85.0817 117.959 85.0818 117.958 85.0818 117.958C86.0783 117.461 87.2316 117.379 88.2881 117.732C89.3447 118.085 90.2178 118.843 90.7155 119.839C91.2132 120.836 91.2947 121.989 90.9419 123.046C90.5892 124.102 89.8313 124.975 88.8348 125.473L88.8347 125.473L56.4551 141.682L56.3722 141.724V141.817V156.522C56.3722 157.635 55.93 158.703 55.1427 159.49C54.3554 160.277 53.2876 160.72 52.1742 160.72C51.0609 160.72 49.9931 160.277 49.2058 159.49C48.4185 158.703 47.9762 157.635 47.9762 156.522L47.9762 139.13Z" stroke="url(#paint10_linear_4115_10793)" stroke-opacity="0.1" stroke-width="0.3"/>
</g>
<g filter="url(#filter3_bi_4115_10793)">
<path d="M147.832 160.869C146.679 160.869 145.573 160.41 144.758 159.595C143.942 158.78 143.484 157.674 143.484 156.521V141.816L111.105 125.65C110.072 125.134 109.287 124.23 108.922 123.136C108.557 122.041 108.641 120.847 109.157 119.815C109.672 118.783 110.576 117.998 111.671 117.632C112.765 117.267 113.96 117.351 114.992 117.867L149.776 135.259C150.495 135.618 151.101 136.17 151.525 136.854C151.95 137.537 152.176 138.324 152.18 139.129V156.521C152.18 157.674 151.722 158.78 150.907 159.595C150.091 160.41 148.985 160.869 147.832 160.869Z" fill="url(#paint11_linear_4115_10793)" fill-opacity="0.2"/>
<path d="M143.634 141.723V141.816V156.521C143.634 157.634 144.076 158.702 144.864 159.489C145.651 160.276 146.719 160.719 147.832 160.719C148.945 160.719 150.013 160.276 150.801 159.489C151.588 158.702 152.03 157.634 152.03 156.521L152.03 139.129L152.03 139.129M143.634 141.723L149.776 135.259C150.495 135.618 151.101 136.17 151.525 136.854C151.95 137.537 152.176 138.324 152.18 139.129H152.03M143.634 141.723L143.551 141.681L111.172 125.516M143.634 141.723L114.925 118.001M152.03 139.129C152.026 138.352 151.808 137.592 151.398 136.933C150.988 136.273 150.403 135.74 149.709 135.393L149.709 135.393L114.925 118.001M152.03 139.129L114.925 118.001M114.925 118.001L114.992 117.867L114.925 118.001C113.928 117.503 112.775 117.422 111.718 117.775C110.662 118.127 109.788 118.885 109.291 119.882C108.793 120.878 108.712 122.032 109.064 123.088C109.417 124.145 110.175 125.018 111.172 125.516M111.172 125.516L111.172 125.516L111.105 125.65L111.172 125.516Z" stroke="url(#paint12_linear_4115_10793)" stroke-opacity="0.1" stroke-width="0.3"/>
</g>
</g>
<defs>
<filter id="filter0_bi_4115_10793" x="28.7822" y="-6.00049" width="142.44" height="125.083" filterUnits="userSpaceOnUse" color-interpolation-filters="sRGB">
<feFlood flood-opacity="0" result="BackgroundImageFix"/>
<feGaussianBlur in="BackgroundImageFix" stdDeviation="3"/>
<feComposite in2="SourceAlpha" operator="in" result="effect1_backgroundBlur_4115_10793"/>
<feBlend mode="normal" in="SourceGraphic" in2="effect1_backgroundBlur_4115_10793" result="shape"/>
<feColorMatrix in="SourceAlpha" type="matrix" values="0 0 0 0 0 0 0 0 0 0 0 0 0 0 0 0 0 0 127 0" result="hardAlpha"/>
<feOffset dy="1"/>
<feGaussianBlur stdDeviation="1.5"/>
<feComposite in2="hardAlpha" operator="arithmetic" k2="-1" k3="1"/>
<feColorMatrix type="matrix" values="0 0 0 0 1 0 0 0 0 1 0 0 0 0 1 0 0 0 0.4 0"/>
<feBlend mode="normal" in2="shape" result="effect2_innerShadow_4115_10793"/>
</filter>
<filter id="filter1_bi_4115_10793" x="89.6543" y="124.431" width="20.6963" height="55.48" filterUnits="userSpaceOnUse" color-interpolation-filters="sRGB">
<feFlood flood-opacity="0" result="BackgroundImageFix"/>
<feGaussianBlur in="BackgroundImageFix" stdDeviation="3"/>
<feComposite in2="SourceAlpha" operator="in" result="effect1_backgroundBlur_4115_10793"/>
<feBlend mode="normal" in="SourceGraphic" in2="effect1_backgroundBlur_4115_10793" result="shape"/>
<feColorMatrix in="SourceAlpha" type="matrix" values="0 0 0 0 0 0 0 0 0 0 0 0 0 0 0 0 0 0 127 0" result="hardAlpha"/>
<feOffset dy="1"/>
<feGaussianBlur stdDeviation="1.5"/>
<feComposite in2="hardAlpha" operator="arithmetic" k2="-1" k3="1"/>
<feColorMatrix type="matrix" values="0 0 0 0 1 0 0 0 0 1 0 0 0 0 1 0 0 0 0.4 0"/>
<feBlend mode="normal" in2="shape" result="effect2_innerShadow_4115_10793"/>
</filter>
<filter id="filter2_bi_4115_10793" x="41.8262" y="111.366" width="55.4814" height="55.5037" filterUnits="userSpaceOnUse" color-interpolation-filters="sRGB">
<feFlood flood-opacity="0" result="BackgroundImageFix"/>
<feGaussianBlur in="BackgroundImageFix" stdDeviation="3"/>
<feComposite in2="SourceAlpha" operator="in" result="effect1_backgroundBlur_4115_10793"/>
<feBlend mode="normal" in="SourceGraphic" in2="effect1_backgroundBlur_4115_10793" result="shape"/>
<feColorMatrix in="SourceAlpha" type="matrix" values="0 0 0 0 0 0 0 0 0 0 0 0 0 0 0 0 0 0 127 0" result="hardAlpha"/>
<feOffset dy="1"/>
<feGaussianBlur stdDeviation="1.5"/>
<feComposite in2="hardAlpha" operator="arithmetic" k2="-1" k3="1"/>
<feColorMatrix type="matrix" values="0 0 0 0 1 0 0 0 0 1 0 0 0 0 1 0 0 0 0.4 0"/>
<feBlend mode="normal" in2="shape" result="effect2_innerShadow_4115_10793"/>
</filter>
<filter id="filter3_bi_4115_10793" x="102.698" y="111.408" width="55.4814" height="55.4602" filterUnits="userSpaceOnUse" color-interpolation-filters="sRGB">
<feFlood flood-opacity="0" result="BackgroundImageFix"/>
<feGaussianBlur in="BackgroundImageFix" stdDeviation="3"/>
<feComposite in2="SourceAlpha" operator="in" result="effect1_backgroundBlur_4115_10793"/>
<feBlend mode="normal" in="SourceGraphic" in2="effect1_backgroundBlur_4115_10793" result="shape"/>
<feColorMatrix in="SourceAlpha" type="matrix" values="0 0 0 0 0 0 0 0 0 0 0 0 0 0 0 0 0 0 127 0" result="hardAlpha"/>
<feOffset dy="1"/>
<feGaussianBlur stdDeviation="1.5"/>
<feComposite in2="hardAlpha" operator="arithmetic" k2="-1" k3="1"/>
<feColorMatrix type="matrix" values="0 0 0 0 1 0 0 0 0 1 0 0 0 0 1 0 0 0 0.4 0"/>
<feBlend mode="normal" in2="shape" result="effect2_innerShadow_4115_10793"/>
</filter>
<linearGradient id="paint0_linear_4115_10793" x1="77.111" y1="33.6479" x2="142.009" y2="41.7785" gradientUnits="userSpaceOnUse">
<stop stop-color="#0676B3"/>
<stop offset="1" stop-color="#1DAAF7"/>
</linearGradient>
<linearGradient id="paint1_linear_4115_10793" x1="86.9221" y1="103.699" x2="124.007" y2="108.345" gradientUnits="userSpaceOnUse">
<stop stop-color="#0676B3"/>
<stop offset="1" stop-color="#1DAAF7"/>
</linearGradient>
<linearGradient id="paint2_linear_4115_10793" x1="86.9221" y1="164.571" x2="124.007" y2="169.217" gradientUnits="userSpaceOnUse">
<stop stop-color="#0676B3"/>
<stop offset="1" stop-color="#1DAAF7"/>
</linearGradient>
<linearGradient id="paint3_linear_4115_10793" x1="39.094" y1="151.527" x2="76.1786" y2="156.173" gradientUnits="userSpaceOnUse">
<stop stop-color="#0676B3"/>
<stop offset="1" stop-color="#1DAAF7"/>
</linearGradient>
<linearGradient id="paint4_linear_4115_10793" x1="134.749" y1="151.527" x2="171.834" y2="156.173" gradientUnits="userSpaceOnUse">
<stop stop-color="#0676B3"/>
<stop offset="1" stop-color="#1DAAF7"/>
</linearGradient>
<linearGradient id="paint5_linear_4115_10793" x1="34.7822" y1="-0.000488281" x2="185.421" y2="44.1203" gradientUnits="userSpaceOnUse">
<stop stop-color="#83E9FF"/>
<stop offset="0.453125" stop-color="#85A0FF"/>
</linearGradient>
<linearGradient id="paint6_linear_4115_10793" x1="38.8585" y1="5.13967" x2="165.222" y2="5.13967" gradientUnits="userSpaceOnUse">
<stop stop-color="#3CDEB6"/>
<stop offset="0.65625" stop-color="#364AFF"/>
</linearGradient>
<linearGradient id="paint7_linear_4115_10793" x1="95.6543" y1="130.431" x2="106.53" y2="130.983" gradientUnits="userSpaceOnUse">
<stop stop-color="#83E9FF"/>
<stop offset="0.453125" stop-color="#85A0FF"/>
</linearGradient>
<linearGradient id="paint8_linear_4115_10793" x1="95.926" y1="132.408" x2="104.35" y2="132.408" gradientUnits="userSpaceOnUse">
<stop stop-color="#3CDEB6"/>
<stop offset="0.65625" stop-color="#364AFF"/>
</linearGradient>
<linearGradient id="paint9_linear_4115_10793" x1="47.8262" y1="117.366" x2="99.0496" y2="130.366" gradientUnits="userSpaceOnUse">
<stop stop-color="#83E9FF"/>
<stop offset="0.453125" stop-color="#85A0FF"/>
</linearGradient>
<linearGradient id="paint10_linear_4115_10793" x1="49.185" y1="119.343" x2="91.3081" y2="119.343" gradientUnits="userSpaceOnUse">
<stop stop-color="#3CDEB6"/>
<stop offset="0.65625" stop-color="#364AFF"/>
</linearGradient>
<linearGradient id="paint11_linear_4115_10793" x1="108.698" y1="117.408" x2="159.915" y2="130.42" gradientUnits="userSpaceOnUse">
<stop stop-color="#83E9FF"/>
<stop offset="0.453125" stop-color="#85A0FF"/>
</linearGradient>
<linearGradient id="paint12_linear_4115_10793" x1="110.057" y1="119.384" x2="152.18" y2="119.384" gradientUnits="userSpaceOnUse">
<stop stop-color="#3CDEB6"/>
<stop offset="0.65625" stop-color="#364AFF"/>
</linearGradient>
<clipPath id="clip0_4115_10793">
<rect width="200" height="200" fill="white"/>
</clipPath>
</defs>
</svg>
