<svg width="200" height="200" viewBox="0 0 200 200" fill="none" xmlns="http://www.w3.org/2000/svg">
<g opacity="0.7" filter="url(#filter0_bi_4115_10790)">
<path d="M100.002 115.847L53.8683 88.648V46.2047C53.8683 30.5203 66.366 17.758 81.7251 17.758C88.6132 17.758 95.1447 20.4357 100.18 24.9873L113.861 16.9231C114.487 16.5546 115.135 16.2615 115.774 15.924C107.26 5.98149 94.8881 0 81.7251 0C56.7775 0 36.4785 20.7287 36.4785 46.2091V98.9058L82.6078 126.109L100.002 115.847Z" fill="url(#paint0_linear_4115_10790)"/>
<path d="M86.5548 107.926V53.5239L122.552 32.3066C135.854 24.4645 152.922 29.1316 160.606 42.7155C164.05 48.808 165.046 55.9218 163.702 62.6493L177.383 70.7135C178.009 71.0821 178.583 71.5083 179.188 71.9036C183.362 59.4033 182.249 45.4686 175.67 33.8298C163.194 11.7644 135.467 4.17985 113.855 16.9199L69.1606 43.2661V97.668L86.5548 107.926Z" fill="url(#paint1_linear_4115_10790)" fill-opacity="0.2"/>
<path d="M86.5592 92.0725L132.693 64.8694L168.686 86.0955C181.988 93.9376 186.563 111.367 178.883 124.951C175.439 131.043 169.903 135.479 163.524 137.655V153.784C163.524 154.525 163.45 155.245 163.415 155.977C176.1 153.419 187.367 145.466 193.947 133.832C206.423 111.767 198.991 83.4536 177.383 70.7135L132.693 44.3627L86.5548 71.5614L86.5592 92.0725Z" fill="url(#paint2_linear_4115_10790)"/>
<path d="M99.9998 84.1479L146.134 111.347V153.794C146.134 169.479 133.636 182.241 118.277 182.241C111.389 182.241 104.857 179.563 99.8215 175.012L86.141 183.076C85.5148 183.444 84.8669 183.737 84.2277 184.075C92.7421 194.017 105.114 199.999 118.277 199.999C143.224 199.999 163.523 179.27 163.523 153.79V101.093L117.394 73.8901L99.9998 84.1479Z" fill="url(#paint3_linear_4115_10790)" fill-opacity="0.2"/>
<path d="M113.439 92.0732V146.471L77.4418 167.688C64.1396 175.53 47.0716 170.863 39.3877 157.279C35.9437 151.186 34.9479 144.073 36.2916 137.345L22.611 129.281C21.9848 128.912 21.4108 128.486 20.8064 128.091C16.6318 140.591 17.745 154.526 24.3244 166.165C36.8004 188.23 64.5266 195.815 86.1389 183.074L130.833 156.728V102.327L113.439 92.0732Z" fill="url(#paint4_linear_4115_10790)"/>
<path d="M113.441 107.925L67.307 135.128L31.3141 113.902C18.0119 106.06 13.4373 88.6304 21.1168 75.0466C24.5608 68.9541 30.0965 64.5179 36.4759 62.342V46.2137C36.4759 45.4722 36.5498 44.7528 36.5846 44.0201C23.8999 46.5779 12.6328 54.531 6.05342 66.1654C-6.42255 88.2308 1.0091 116.544 22.617 129.284L67.307 155.635L113.445 128.436L113.441 107.925Z" fill="url(#paint5_linear_4115_10790)" fill-opacity="0.2"/>
<path d="M82.6051 126.281L82.6078 126.283L82.684 126.238L92.5821 120.398L113.289 108.188V128.354L67.307 155.461L36.4592 137.272L36.4595 137.27L36.3677 137.216L24.9313 130.475L22.6932 129.155C22.66 129.135 22.6268 129.116 22.5937 129.096C22.2298 128.877 21.8859 128.641 21.5375 128.403C21.3247 128.257 21.1102 128.11 20.8885 127.965L20.7257 127.859L20.7073 127.914C0.711394 114.692 -5.86209 87.5443 6.18399 66.2392C12.6993 54.7181 23.8268 46.8188 36.3699 44.2171C36.3463 44.7835 36.3328 45.3524 36.3294 45.9238C36.3271 46.0202 36.3259 46.1169 36.3259 46.2137V62.2349C29.9557 64.4346 24.4306 68.8796 20.9862 74.9728C13.2671 88.6265 17.8641 106.147 31.2379 114.031L67.2308 135.257L67.307 135.302L67.3832 135.257L82.6051 126.281ZM92.4601 120.122L82.6051 125.933L36.6285 98.8201V46.2091C36.6285 46.1144 36.6288 46.0197 36.6294 45.9251C36.6384 45.5458 36.6632 45.1729 36.6882 44.7961C36.7051 44.5426 36.7221 44.2874 36.7344 44.0272L36.7435 43.835L36.6871 43.8464C37.8955 19.5398 57.6388 0.15 81.7251 0.15C94.7569 0.15 107.012 6.0334 115.494 15.8286C114.918 16.1354 114.347 16.4561 113.779 16.7907L100.195 24.7983C95.1448 20.2704 88.6131 17.608 81.7251 17.608C66.2802 17.608 53.7183 30.4404 53.7183 46.2047V88.648V88.7337L53.7921 88.7772L69.0106 97.7495V97.7536L69.0844 97.7972L86.4786 108.055L86.7048 108.188V108.181L99.7068 115.847L92.4601 120.122ZM113.589 128.525L113.595 128.522L113.595 128.436L113.591 107.925L113.591 107.662L113.589 107.663V92.3357L130.683 102.412V156.643L86.0628 182.945C85.9951 182.985 85.9273 183.025 85.8595 183.064C85.5301 183.249 85.1979 183.415 84.8615 183.583C84.629 183.7 84.3945 183.817 84.1576 183.942L83.9916 184.03L84.0299 184.075C62.8148 195.156 36.5024 187.398 24.4549 166.091C17.9394 154.565 16.8015 140.778 20.8691 128.379C21.3843 128.713 21.9081 129.038 22.4406 129.354C22.4719 129.373 22.5033 129.392 22.5349 129.41L24.8421 130.77L36.1234 137.422C34.8046 144.152 35.8127 151.26 39.2571 157.353L39.3877 157.279L39.2571 157.353C46.9816 171.008 64.1422 175.702 77.518 167.817L113.515 146.6L113.589 146.556V146.471V128.525ZM100.157 25.1686L100.162 25.1725L100.256 25.1165L113.937 17.0524C114.334 16.819 114.734 16.6187 115.14 16.4154C115.373 16.2991 115.607 16.1818 115.844 16.0567L116.01 15.969L115.967 15.9184C137.182 4.83869 163.492 12.597 175.539 33.9036C182.054 45.4294 183.192 59.2157 179.125 71.6151C178.587 71.2658 178.039 70.9265 177.482 70.5975C177.474 70.5931 177.467 70.5887 177.459 70.5843L163.871 62.572C165.189 55.8426 164.181 48.7348 160.737 42.6417L160.606 42.7155L160.737 42.6416C153.012 28.9861 135.852 24.2919 122.476 32.1774L86.4786 53.3947L86.4048 53.4382V53.5239L86.4048 71.4757L86.4048 71.5614V107.656L69.3106 97.5781V43.3518L100.157 25.1686ZM86.0117 183.323C86.0805 183.284 86.149 183.245 86.2171 183.205L86.216 183.203L86.2172 183.205L99.8029 175.197C104.853 179.727 111.387 182.391 118.277 182.391C133.722 182.391 146.284 169.558 146.284 153.794V111.347V111.261L146.21 111.217L100.295 84.1479L111.616 77.4719L117.394 74.0644L163.373 101.179V153.79C163.373 153.835 163.373 153.88 163.373 153.926C163.368 154.356 163.34 154.776 163.312 155.201C163.295 155.455 163.278 155.71 163.266 155.97L163.256 156.162L163.315 156.151C162.108 180.458 142.364 199.849 118.277 199.849C105.242 199.849 92.9845 193.963 84.5026 184.164C85.0087 183.895 85.5118 183.614 86.0117 183.323ZM177.307 70.8427C177.706 71.0775 178.078 71.3328 178.457 71.5916C178.669 71.7373 178.884 71.8842 179.105 72.0291L179.268 72.1355L179.287 72.0797C199.287 85.3008 205.863 112.451 193.816 133.758C187.301 145.279 176.174 153.178 163.632 155.78C163.658 155.165 163.671 154.547 163.673 153.926C163.674 153.879 163.674 153.831 163.674 153.784V137.762C170.044 135.563 175.569 131.118 179.014 125.025C186.733 111.371 182.136 93.8506 168.762 85.9663L132.769 64.7402L132.693 64.6953L132.617 64.7402L117.394 73.7162L117.394 73.716L117.318 73.7609L111.555 77.1591L86.7091 91.81L86.7048 71.6471L132.693 44.5368L163.535 62.7223L163.534 62.7245L163.626 62.7786L177.299 70.8381L177.307 70.8427Z" stroke="#050F27" stroke-width="0.3"/>
</g>
<defs>
<filter id="filter0_bi_4115_10790" x="-6" y="-6" width="212" height="211.999" filterUnits="userSpaceOnUse" color-interpolation-filters="sRGB">
<feFlood flood-opacity="0" result="BackgroundImageFix"/>
<feGaussianBlur in="BackgroundImageFix" stdDeviation="3"/>
<feComposite in2="SourceAlpha" operator="in" result="effect1_backgroundBlur_4115_10790"/>
<feBlend mode="normal" in="SourceGraphic" in2="effect1_backgroundBlur_4115_10790" result="shape"/>
<feColorMatrix in="SourceAlpha" type="matrix" values="0 0 0 0 0 0 0 0 0 0 0 0 0 0 0 0 0 0 127 0" result="hardAlpha"/>
<feOffset dy="1"/>
<feGaussianBlur stdDeviation="1.5"/>
<feComposite in2="hardAlpha" operator="arithmetic" k2="-1" k3="1"/>
<feColorMatrix type="matrix" values="0 0 0 0 1 0 0 0 0 1 0 0 0 0 1 0 0 0 0.4 0"/>
<feBlend mode="normal" in2="shape" result="effect2_innerShadow_4115_10790"/>
</filter>
<linearGradient id="paint0_linear_4115_10790" x1="24.7914" y1="-3.70362" x2="238.019" y2="23.0102" gradientUnits="userSpaceOnUse">
<stop stop-color="#0676B3"/>
<stop offset="1" stop-color="#1DAAF7"/>
</linearGradient>
<linearGradient id="paint1_linear_4115_10790" x1="-1.71413e-06" y1="44.0209" x2="133.368" y2="78.4408" gradientUnits="userSpaceOnUse">
<stop stop-color="#83E9FF"/>
<stop offset="0.453125" stop-color="#85A0FF"/>
</linearGradient>
<linearGradient id="paint2_linear_4115_10790" x1="24.7914" y1="-3.70362" x2="238.019" y2="23.0102" gradientUnits="userSpaceOnUse">
<stop stop-color="#0676B3"/>
<stop offset="1" stop-color="#1DAAF7"/>
</linearGradient>
<linearGradient id="paint3_linear_4115_10790" x1="-1.71413e-06" y1="44.0209" x2="133.368" y2="78.4408" gradientUnits="userSpaceOnUse">
<stop stop-color="#83E9FF"/>
<stop offset="0.453125" stop-color="#85A0FF"/>
</linearGradient>
<linearGradient id="paint4_linear_4115_10790" x1="24.7914" y1="-3.70362" x2="238.019" y2="23.0102" gradientUnits="userSpaceOnUse">
<stop stop-color="#0676B3"/>
<stop offset="1" stop-color="#1DAAF7"/>
</linearGradient>
<linearGradient id="paint5_linear_4115_10790" x1="-1.71413e-06" y1="44.0209" x2="133.368" y2="78.4408" gradientUnits="userSpaceOnUse">
<stop stop-color="#83E9FF"/>
<stop offset="0.453125" stop-color="#85A0FF"/>
</linearGradient>
</defs>
</svg>
