<svg width="94" height="140" viewBox="0 0 94 140" fill="none" xmlns="http://www.w3.org/2000/svg">
<path fill-rule="evenodd" clip-rule="evenodd" d="M48 22.8273L74 5.00027L73.3588 4.31641L47.347 21.7563L47.3483 22.0003H47V52.0003H48V22.8273Z" fill="#050F27" fill-opacity="0.5"/>
<circle cx="75.5" cy="4.5" r="4.5" transform="rotate(90 75.5 4.5)" fill="#41BC40"/>
<path d="M94 93C94 118.957 72.9574 140 47 140C21.0426 140 0 118.957 0 93C0 67.0426 21.0426 46 47 46C72.9574 46 94 67.0426 94 93ZM9.4 93C9.4 113.766 26.2341 130.6 47 130.6C67.7659 130.6 84.6 113.766 84.6 93C84.6 72.2341 67.7659 55.4 47 55.4C26.2341 55.4 9.4 72.2341 9.4 93Z" fill="url(#paint0_linear_170_8379)"/>
<path d="M47 103.115C47.9464 103.115 48.7135 102.348 48.7135 101.401C48.7135 100.455 47.9464 99.6877 47 99.6877C46.0536 99.6877 45.2864 100.455 45.2864 101.401C45.2864 102.348 46.0536 103.115 47 103.115Z" fill="#41BC40"/>
<path d="M68.2125 103.137L53.1334 72.9786C52.5606 71.8384 51.684 70.8801 50.6011 70.2106C49.5182 69.5411 48.2716 69.1867 47 69.1867C45.7284 69.1867 44.4818 69.5411 43.3989 70.2106C42.316 70.8801 41.4394 71.8384 40.8666 72.9786L25.7875 103.137C25.3109 104.087 25.0639 105.136 25.0667 106.199C25.0727 108.02 25.7978 109.765 27.0827 111.05C28.3677 112.335 30.1076 113.055 31.9209 113.053H62.0791C63.8924 113.055 65.6323 112.335 66.9173 111.05C68.2022 109.765 68.9273 108.02 68.9333 106.199C68.9361 105.136 68.6892 104.087 68.2125 103.137ZM62.0791 109.626H31.9209C31.0142 109.627 30.1443 109.267 29.5018 108.624C28.8593 107.982 28.4968 107.11 28.4938 106.199C28.492 105.668 28.615 105.144 28.8527 104.67L43.9319 74.5112C44.2183 73.9407 44.6568 73.4612 45.1985 73.1262C45.7402 72.7911 46.3639 72.6138 47 72.6138C47.6362 72.6138 48.2598 72.7911 48.8016 73.1262C49.3433 73.4612 49.7817 73.9407 50.0681 74.5112L65.1473 104.669C65.385 105.144 65.508 105.668 65.5063 106.199C65.5032 107.11 65.1407 107.982 64.4982 108.624C63.8557 109.267 62.9858 109.627 62.0791 109.626Z" fill="#41BC40"/>
<path d="M48.2927 82.1207H45.7224C45.6088 82.1207 45.4998 82.166 45.4195 82.2467C45.3391 82.3274 45.294 82.4368 45.294 82.551V82.5523H45.2864V96.2607H45.294V96.378C45.294 96.4345 45.3051 96.4905 45.3266 96.5427C45.3482 96.5949 45.3797 96.6423 45.4195 96.6823C45.4593 96.7222 45.5065 96.7539 45.5585 96.7755C45.6105 96.7972 45.6662 96.8083 45.7224 96.8083H48.2928C48.349 96.8083 48.4047 96.7972 48.4567 96.7755C48.5087 96.7539 48.5559 96.7222 48.5957 96.6823C48.6355 96.6423 48.667 96.5949 48.6885 96.5427C48.7101 96.4905 48.7211 96.4345 48.7211 96.378V93.7963C48.7208 93.7711 48.7183 93.7459 48.7136 93.7211V85.2078C48.7183 85.183 48.7208 85.1579 48.7211 85.1326V82.551C48.7211 82.4944 48.7101 82.4385 48.6885 82.3863C48.667 82.3341 48.6354 82.2867 48.5957 82.2467C48.5559 82.2067 48.5087 82.1751 48.4567 82.1534C48.4047 82.1318 48.349 82.1207 48.2927 82.1207Z" fill="#41BC40"/>
<defs>
<linearGradient id="paint0_linear_170_8379" x1="11.652" y1="44.2593" x2="111.869" y2="56.8147" gradientUnits="userSpaceOnUse">
<stop stop-color="#98E398"/>
<stop offset="1" stop-color="#41BC40"/>
</linearGradient>
</defs>
</svg>
