<svg width="252" height="150" viewBox="0 0 252 150" fill="none" xmlns="http://www.w3.org/2000/svg">
<path fill-rule="evenodd" clip-rule="evenodd" d="M51.5556 76.7036L9.01953 119.02L9.68909 119.685L51.961 77.7105L51.5556 76.7036ZM102 77.0005H52V78.0005H102V77.0005Z" fill="#050F27" fill-opacity="0.5"/>
<circle cx="7.5" cy="122.5" r="7.5" fill="#0676B3"/>
<path d="M252 75C252 116.421 218.421 150 177 150C135.579 150 102 116.421 102 75C102 33.5786 135.579 0 177 0C218.421 0 252 33.5786 252 75ZM117 75C117 108.137 143.863 135 177 135C210.137 135 237 108.137 237 75C237 41.8629 210.137 15 177 15C143.863 15 117 41.8629 117 75Z" fill="url(#paint0_linear_4115_10978)"/>
<path d="M176.263 71.7461C179.105 71.7461 181.884 70.9031 184.248 69.3236C186.612 67.7442 188.454 65.4992 189.542 62.8727C190.63 60.2462 190.914 57.3561 190.359 54.5679C189.804 51.7798 188.435 49.2187 186.425 47.2087C184.414 45.1988 181.853 43.8301 179.065 43.2758C176.276 42.7216 173.386 43.0066 170.76 44.0949C168.134 45.1832 165.889 47.0259 164.31 49.3899C162.731 51.754 161.889 54.5331 161.889 57.376C161.894 61.1863 163.41 64.8391 166.105 67.5331C168.799 70.2271 172.452 71.7423 176.263 71.7461ZM176.263 48.8208C177.955 48.8208 179.609 49.3225 181.016 50.2626C182.422 51.2027 183.519 52.5388 184.166 54.102C184.814 55.6653 184.983 57.3855 184.653 59.045C184.323 60.7045 183.508 62.2289 182.312 63.4254C181.115 64.6219 179.591 65.4367 177.932 65.7668C176.272 66.0969 174.552 65.9274 172.989 65.2799C171.425 64.6324 170.089 63.5359 169.149 62.129C168.209 60.7221 167.707 59.068 167.707 57.376C167.71 55.1079 168.613 52.9337 170.216 51.3299C171.82 49.7262 173.994 48.8239 176.263 48.8208Z" fill="#0676B3"/>
<path d="M149.11 80.1936C151.296 80.1936 153.433 79.5453 155.251 78.3307C157.069 77.1161 158.486 75.3897 159.322 73.3698C160.159 71.35 160.378 69.1274 159.951 66.9831C159.525 64.8389 158.472 62.8693 156.926 61.3233C155.38 59.7774 153.411 58.7246 151.266 58.2981C149.122 57.8716 146.9 58.0905 144.88 58.9271C142.86 59.7638 141.134 61.1806 139.919 62.9984C138.704 64.8162 138.056 66.9534 138.056 69.1397C138.056 72.0714 139.221 74.883 141.294 76.956C143.367 79.029 146.178 80.1936 149.11 80.1936ZM149.11 63.9036C150.146 63.9036 151.158 64.2107 152.019 64.786C152.88 65.3614 153.551 66.1791 153.947 67.1359C154.344 68.0927 154.447 69.1455 154.245 70.1612C154.043 71.1769 153.545 72.1099 152.812 72.8421C152.08 73.5744 151.147 74.0731 150.131 74.2751C149.116 74.4772 148.063 74.3735 147.106 73.9772C146.149 73.5809 145.332 72.9097 144.756 72.0487C144.181 71.1876 143.874 70.1753 143.874 69.1397C143.874 67.751 144.425 66.4192 145.407 65.4372C146.389 64.4552 147.721 63.9036 149.11 63.9036Z" fill="#0676B3"/>
<path d="M203.412 80.1936C205.598 80.1936 207.736 79.5453 209.553 78.3307C211.371 77.1161 212.788 75.3897 213.625 73.3698C214.461 71.35 214.68 69.1274 214.254 66.9831C213.827 64.8389 212.774 62.8693 211.228 61.3233C209.683 59.7774 207.713 58.7246 205.569 58.2981C203.424 57.8716 201.202 58.0905 199.182 58.9271C197.162 59.7638 195.436 61.1806 194.221 62.9984C193.007 64.8162 192.358 66.9534 192.358 69.1397C192.358 72.0714 193.523 74.883 195.596 76.956C197.669 79.029 200.48 80.1936 203.412 80.1936ZM203.412 63.9036C204.448 63.9036 205.46 64.2107 206.321 64.786C207.182 65.3614 207.853 66.1791 208.25 67.1359C208.646 68.0927 208.75 69.1455 208.548 70.1612C208.346 71.1769 207.847 72.1099 207.115 72.8421C206.382 73.5744 205.449 74.0731 204.434 74.2751C203.418 74.4772 202.365 74.3735 201.408 73.9772C200.452 73.5809 199.634 72.9097 199.059 72.0487C198.483 71.1876 198.176 70.1753 198.176 69.1397C198.176 67.751 198.728 66.4192 199.71 65.4372C200.692 64.4552 202.023 63.9036 203.412 63.9036Z" fill="#0676B3"/>
<path d="M203.799 86.0295C201.249 86.0464 198.743 86.6992 196.509 87.929C194.385 84.5666 191.458 81.7857 187.991 79.8371C184.524 77.8885 180.626 76.8336 176.65 76.7674C172.673 76.8336 168.776 77.8885 165.309 79.8371C161.842 81.7857 158.914 84.5666 156.79 87.929C154.556 86.6992 152.051 86.0464 149.501 86.0295C144.925 86.2528 140.623 88.2774 137.534 91.6613C134.446 95.0453 132.821 99.5137 133.016 104.091C133.016 104.863 133.322 105.602 133.868 106.148C134.413 106.694 135.153 107 135.925 107C136.696 107 137.436 106.694 137.982 106.148C138.527 105.602 138.834 104.863 138.834 104.091C138.643 101.057 139.656 98.0705 141.653 95.7785C143.649 93.4866 146.469 92.0741 149.501 91.8474C151.108 91.8597 152.686 92.279 154.088 93.0662C152.717 96.5212 152.015 100.205 152.02 103.922C152.02 104.694 152.326 105.434 152.872 105.979C153.417 106.525 154.157 106.831 154.929 106.831C155.7 106.831 156.44 106.525 156.986 105.979C157.531 105.434 157.838 104.694 157.838 103.922C157.838 92.1557 166.274 82.5853 176.65 82.5853C187.026 82.5853 195.462 92.1557 195.462 103.922C195.462 104.694 195.768 105.434 196.314 105.979C196.859 106.525 197.599 106.831 198.371 106.831C199.142 106.831 199.882 106.525 200.428 105.979C200.973 105.434 201.28 104.694 201.28 103.922C201.284 100.205 200.582 96.5212 199.211 93.0662C200.613 92.279 202.191 91.8597 203.799 91.8474C206.83 92.0741 209.65 93.4866 211.647 95.7785C213.644 98.0705 214.657 101.057 214.466 104.091C214.466 104.863 214.772 105.602 215.318 106.148C215.863 106.694 216.603 107 217.375 107C218.146 107 218.886 106.694 219.432 106.148C219.977 105.602 220.284 104.863 220.284 104.091C220.478 99.5137 218.854 95.0453 215.765 91.6613C212.677 88.2774 208.375 86.2528 203.799 86.0295Z" fill="#0676B3"/>
<defs>
<linearGradient id="paint0_linear_4115_10978" x1="120.594" y1="-2.77773" x2="280.514" y2="17.2575" gradientUnits="userSpaceOnUse">
<stop stop-color="#0676B3"/>
<stop offset="1" stop-color="#1DAAF7"/>
</linearGradient>
</defs>
</svg>
