<svg width="231" height="150" viewBox="0 0 231 150" fill="none" xmlns="http://www.w3.org/2000/svg">
<path fill-rule="evenodd" clip-rule="evenodd" d="M176.99 85L220 43L220.666 43.6501L178 85.3931V86H149V85H176.99Z" fill="#050F27" fill-opacity="0.5"/>
<ellipse cx="7.5" cy="7.50006" rx="7.5" ry="7.50006" transform="matrix(-1 0 0 1 231 31)" fill="#41BC40"/>
<path d="M150 75C150 116.421 116.421 150 75 150C33.5786 150 0 116.421 0 75C0 33.5786 33.5786 0 75 0C116.421 0 150 33.5786 150 75ZM15 75C15 108.137 41.8629 135 75 135C108.137 135 135 108.137 135 75C135 41.8629 108.137 15 75 15C41.8629 15 15 41.8629 15 75Z" fill="url(#paint0_linear_4115_10951)"/>
<path d="M75 91.1406C76.5101 91.1406 77.7344 89.9164 77.7344 88.4062C77.7344 86.8961 76.5101 85.6719 75 85.6719C73.4898 85.6719 72.2656 86.8961 72.2656 88.4062C72.2656 89.9164 73.4898 91.1406 75 91.1406Z" fill="#41BC40"/>
<path d="M108.85 91.1761L84.7873 43.051C83.8733 41.2314 82.4744 39.7023 80.7464 38.634C79.0184 37.5657 77.0291 37 75 37C72.9709 37 70.9816 37.5657 69.2536 38.634C67.5256 39.7023 66.1267 41.2314 65.2127 43.051L41.1502 91.176C40.3897 92.6913 39.9956 94.3655 40 96.0625C40.0097 98.9686 41.1667 101.752 43.2171 103.803C45.2676 105.853 48.0441 107.003 50.9375 107H99.0625C101.956 107.003 104.732 105.853 106.783 103.803C108.833 101.752 109.99 98.9686 110 96.0624C110.004 94.3655 109.61 92.6914 108.85 91.1761ZM99.0625 101.531H50.9375C49.4908 101.533 48.1025 100.958 47.0773 99.9326C46.0521 98.9074 45.4736 97.5155 45.4688 96.0625C45.466 95.2149 45.6623 94.3787 46.0416 93.6216L70.1041 45.4967C70.5611 44.5862 71.2608 43.821 72.1252 43.2864C72.9897 42.7518 73.9849 42.4688 75 42.4688C76.0152 42.4688 77.0104 42.7518 77.8748 43.2864C78.7392 43.821 79.4389 44.5862 79.8959 45.4967L103.958 93.6215C104.338 94.3786 104.534 95.2149 104.531 96.0625C104.526 97.5156 103.948 98.9074 102.923 99.9326C101.897 100.958 100.509 101.533 99.0625 101.531Z" fill="#41BC40"/>
<path d="M77.0629 57.6394H72.9613C72.78 57.6394 72.6061 57.7117 72.4779 57.8405C72.3497 57.9693 72.2777 58.1439 72.2777 58.326V58.3282H72.2656V80.2032H72.2777V80.3904C72.2777 80.4806 72.2954 80.5699 72.3297 80.6532C72.3641 80.7365 72.4145 80.8122 72.4779 80.8759C72.5414 80.9397 72.6168 80.9903 72.6997 81.0248C72.7826 81.0593 72.8715 81.077 72.9613 81.077H77.0629C77.1527 81.077 77.2416 81.0593 77.3245 81.0248C77.4075 80.9903 77.4828 80.9397 77.5463 80.8759C77.6098 80.8122 77.6601 80.7365 77.6945 80.6532C77.7288 80.5699 77.7465 80.4806 77.7465 80.3904V76.2708C77.746 76.2305 77.742 76.1903 77.7345 76.1508V62.5657C77.742 62.5261 77.746 62.4859 77.7465 62.4457V58.326C77.7465 58.2358 77.7288 58.1465 77.6945 58.0632C77.6601 57.9799 77.6097 57.9042 77.5463 57.8405C77.4828 57.7767 77.4074 57.7261 77.3245 57.6916C77.2415 57.6571 77.1526 57.6394 77.0629 57.6394Z" fill="#41BC40"/>
<defs>
<linearGradient id="paint0_linear_4115_10951" x1="18.5936" y1="-2.77773" x2="178.514" y2="17.2575" gradientUnits="userSpaceOnUse">
<stop stop-color="#98E398"/>
<stop offset="1" stop-color="#41BC40"/>
</linearGradient>
</defs>
</svg>
