<svg width="150" height="228" viewBox="0 0 150 228" fill="none" xmlns="http://www.w3.org/2000/svg">
<path fill-rule="evenodd" clip-rule="evenodd" d="M74 53.908L116 11.0013L115.349 10.3361L73.5078 53H73V91H74V53.908Z" fill="#050F27" fill-opacity="0.5"/>
<circle cx="120.5" cy="7.5" r="7.5" transform="rotate(90 120.5 7.5)" fill="#A2E80A"/>
<path d="M150 153C150 194.421 116.421 228 75 228C33.5786 228 0 194.421 0 153C0 111.579 33.5786 78 75 78C116.421 78 150 111.579 150 153ZM15 153C15 186.137 41.8629 213 75 213C108.137 213 135 186.137 135 153C135 119.863 108.137 93 75 93C41.8629 93 15 119.863 15 153Z" fill="url(#paint0_linear_4115_10958)"/>
<path d="M67.9952 134.525C71.1334 134.529 74.1421 135.775 76.3611 137.989C78.5802 140.204 79.8285 143.207 79.832 146.339C79.832 147.023 80.1043 147.679 80.5891 148.163C81.0739 148.647 81.7315 148.919 82.4171 148.919C83.1027 148.919 83.7602 148.647 84.245 148.163C84.7298 147.679 85.0022 147.023 85.0022 146.339C85.0022 142.982 84.0048 139.7 82.1361 136.909C80.2674 134.117 77.6112 131.942 74.5036 130.657C71.396 129.372 67.9764 129.036 64.6774 129.691C61.3783 130.346 58.3479 131.962 55.9694 134.336C53.5909 136.71 51.9711 139.735 51.3149 143.027C50.6586 146.32 50.9955 149.733 52.2827 152.834C53.5699 155.936 55.7497 158.587 58.5465 160.452C61.3433 162.317 64.6315 163.312 67.9952 163.312C68.6808 163.312 69.3383 163.041 69.8231 162.557C70.3079 162.073 70.5803 161.417 70.5803 160.732C70.5803 160.048 70.3079 159.392 69.8231 158.908C69.3383 158.424 68.6808 158.152 67.9952 158.152C66.4407 158.152 64.9015 157.847 63.4654 157.253C62.0293 156.659 60.7245 155.789 59.6253 154.692C58.5262 153.595 57.6543 152.293 57.0595 150.86C56.4646 149.426 56.1585 147.89 56.1585 146.339C56.1585 144.787 56.4646 143.251 57.0595 141.818C57.6543 140.385 58.5262 139.082 59.6253 137.985C60.7245 136.888 62.0293 136.018 63.4654 135.424C64.9015 134.831 66.4407 134.525 67.9952 134.525Z" fill="#A2E80A"/>
<path d="M58.3579 170.695C51.286 162.965 45.1785 156.29 45.1702 146.314C45.1789 140.278 47.5875 134.492 51.8671 130.227C56.1466 125.962 61.9473 123.566 67.9952 123.566C74.043 123.566 79.8437 125.962 84.1232 130.227C88.4028 134.492 90.8114 140.278 90.8201 146.314C90.8207 146.998 91.0933 147.654 91.578 148.137C92.0628 148.62 92.72 148.892 93.4052 148.892H93.4079C94.0935 148.891 94.7507 148.618 95.235 148.134C95.7193 147.65 95.991 146.993 95.9903 146.309C95.9801 138.905 93.0258 131.808 87.7763 126.576C82.5268 121.345 75.4114 118.406 67.9929 118.407C60.5744 118.408 53.4594 121.347 48.2108 126.579C42.9621 131.812 40.009 138.91 40 146.314C40.0101 158.293 47.0677 166.007 54.5394 174.175C58.1913 178.166 61.967 182.293 64.9859 187.06C65.3522 187.638 65.9338 188.048 66.6026 188.198C67.2715 188.349 67.9728 188.228 68.5524 187.863C69.132 187.497 69.5423 186.917 69.6931 186.249C69.8439 185.582 69.7229 184.882 69.3566 184.303C66.0935 179.151 62.1607 174.852 58.3579 170.695Z" fill="#A2E80A"/>
<path d="M109.16 168.15L104.33 163.741C104.253 163.662 104.171 163.587 104.085 163.518L94.9842 155.209C93.5834 153.919 91.7471 153.203 89.8409 153.202C87.9347 153.202 86.0984 153.919 84.6974 155.209L70.5091 168.149C70.003 168.611 69.7013 169.254 69.6705 169.938C69.6396 170.621 69.8821 171.289 70.3446 171.794C70.8071 172.299 71.4516 172.601 72.1365 172.631C72.8214 172.662 73.4905 172.42 73.9967 171.959L74.4749 171.522V180.842C74.4773 182.846 75.2757 184.766 76.6951 186.183C78.1145 187.599 80.039 188.396 82.0462 188.398H97.4844C99.4916 188.396 101.416 187.599 102.835 186.183C104.255 184.766 105.053 182.846 105.055 180.842V171.396L105.67 171.958C105.921 172.186 106.214 172.364 106.533 172.479C106.852 172.595 107.191 172.646 107.53 172.631C107.869 172.616 108.202 172.535 108.51 172.391C108.817 172.248 109.093 172.045 109.322 171.795C109.551 171.545 109.729 171.253 109.845 170.934C109.961 170.616 110.012 170.278 109.997 169.939C109.982 169.601 109.901 169.269 109.757 168.962C109.613 168.655 109.41 168.379 109.16 168.15ZM99.885 180.842C99.8843 181.478 99.6311 182.087 99.1811 182.536C98.731 182.985 98.1209 183.238 97.4844 183.238H82.0462C81.4097 183.238 80.7995 182.985 80.3493 182.536C79.8992 182.087 79.646 181.478 79.6452 180.842V166.807L88.1854 159.018C88.6392 158.609 89.2288 158.382 89.8402 158.382C90.4516 158.382 91.0413 158.608 91.4953 159.017L99.885 166.676V180.842Z" fill="#A2E80A"/>
<path d="M85.5142 171.596V176.12C85.5158 176.665 85.7334 177.187 86.1194 177.572C86.5054 177.957 87.0285 178.174 87.5745 178.176H92.107C92.3776 178.176 92.6455 178.123 92.8955 178.02C93.1455 177.916 93.3727 177.765 93.564 177.574C93.7553 177.383 93.9071 177.156 94.0106 176.907C94.1141 176.657 94.1674 176.39 94.1673 176.12V171.596C94.1657 171.051 93.9481 170.529 93.5621 170.144C93.1761 169.759 92.6529 169.542 92.107 169.54H87.5745C87.0285 169.542 86.5054 169.759 86.1194 170.144C85.7334 170.529 85.5158 171.051 85.5142 171.596Z" fill="#A2E80A"/>
<defs>
<linearGradient id="paint0_linear_4115_10958" x1="93" y1="69" x2="75" y2="207" gradientUnits="userSpaceOnUse">
<stop stop-color="#A2E80A"/>
<stop offset="1" stop-color="#E8FFB6"/>
</linearGradient>
</defs>
</svg>
