<svg width="94" height="140" viewBox="0 0 94 140" fill="none" xmlns="http://www.w3.org/2000/svg">
<path fill-rule="evenodd" clip-rule="evenodd" d="M48 22.5906L74 4.99989L73.3543 4.32031L47.1582 21.6508L47.1601 22H47V52H48V22.5906Z" fill="#050F27" fill-opacity="0.5"/>
<circle cx="75.5" cy="4.5" r="4.5" transform="rotate(90 75.5 4.5)" fill="#FCC95E"/>
<path d="M94 93C94 118.957 72.9574 140 47 140C21.0426 140 0 118.957 0 93C0 67.0426 21.0426 46 47 46C72.9574 46 94 67.0426 94 93ZM9.4 93C9.4 113.766 26.2341 130.6 47 130.6C67.7659 130.6 84.6 113.766 84.6 93C84.6 72.2341 67.7659 55.4 47 55.4C26.2341 55.4 9.4 72.2341 9.4 93Z" fill="url(#paint0_linear_170_8377)"/>
<path d="M71.2086 83.8292C70.2558 82.8786 68.9647 82.3447 67.6187 82.3447C66.2727 82.3447 64.9817 82.8786 64.0289 83.8292L51.1286 96.7288C49.0125 98.8341 47.6677 101.591 47.3111 104.555H45.5903C45.2025 103.416 44.4232 102.452 43.3912 101.835C42.3591 101.217 41.1413 100.986 39.9548 101.183C38.7683 101.379 37.69 101.991 36.9121 102.908C36.1342 103.825 35.7072 104.989 35.7072 106.191C35.7072 106.625 35.8796 107.042 36.1866 107.348C36.4935 107.655 36.9098 107.828 37.3438 107.828C37.7779 107.828 38.1942 107.655 38.5011 107.348C38.808 107.042 38.9804 106.625 38.9804 106.191C38.9801 105.954 39.0265 105.719 39.117 105.5C39.2075 105.281 39.3403 105.082 39.5079 104.914C39.6754 104.747 39.8743 104.614 40.0933 104.523C40.3123 104.432 40.547 104.385 40.7841 104.385C41.0212 104.385 41.2559 104.432 41.4749 104.523C41.6939 104.614 41.8928 104.747 42.0603 104.914C42.2279 105.082 42.3607 105.281 42.4512 105.5C42.5417 105.719 42.5881 105.954 42.5877 106.191C42.5877 106.406 42.6301 106.619 42.7123 106.818C42.7946 107.016 42.9151 107.197 43.0671 107.348C43.2191 107.5 43.3995 107.621 43.598 107.703C43.7966 107.785 44.0094 107.828 44.2244 107.828H48.8453C50.6034 107.833 52.345 107.489 53.9693 106.816C55.5935 106.143 57.0682 105.155 58.308 103.908L71.2086 91.0087C72.1594 90.0559 72.6933 88.7649 72.6933 87.419C72.6933 86.073 72.1594 84.782 71.2086 83.8292ZM55.9937 101.594C54.5395 103.056 52.6701 104.035 50.6398 104.397C51.0019 102.367 51.9806 100.497 53.4429 99.0432L61.0086 91.478L63.5594 94.0288L55.9937 101.594ZM68.8943 88.6942L65.8741 91.7142L63.3233 89.1633L66.3431 86.1437C66.5105 85.9758 66.7094 85.8426 66.9283 85.7517C67.1472 85.6607 67.382 85.6138 67.619 85.6136C67.8561 85.6134 68.0909 85.66 68.31 85.7506C68.529 85.8412 68.7281 85.9742 68.8957 86.1418C69.0634 86.3094 69.1963 86.5084 69.287 86.7274C69.3777 86.9465 69.4243 87.1812 69.4242 87.4183C69.424 87.6554 69.3772 87.8901 69.2862 88.109C69.1953 88.3279 69.0621 88.5268 68.8943 88.6942Z" fill="#FFC250"/>
<path d="M61.4259 106.544C61.211 106.544 60.9982 106.587 60.7996 106.669C60.601 106.751 60.4206 106.872 60.2686 107.024C60.1167 107.176 59.9961 107.356 59.9139 107.555C59.8316 107.753 59.7893 107.966 59.7893 108.181V109.631C59.7888 110.11 59.5986 110.568 59.2605 110.906C58.9224 111.244 58.464 111.434 57.9858 111.435H33.9034C33.4252 111.434 32.9668 111.244 32.6287 110.906C32.2906 110.568 32.1004 110.11 32.0999 109.631V75.9183C32.1004 75.4401 32.2906 74.9817 32.6287 74.6435C32.9668 74.3054 33.4252 74.1151 33.9034 74.1145H53.1204C53.3573 74.1139 53.5921 74.1603 53.811 74.251C54.0299 74.3417 54.2287 74.4749 54.3958 74.6429L59.2612 79.5079C59.4789 79.7261 59.6373 79.9962 59.7215 80.2926C59.8405 80.7095 60.12 81.0622 60.4987 81.2732C60.8775 81.4843 61.3245 81.5364 61.7416 81.4182C62.1587 81.3 62.5119 81.0211 62.7236 80.6428C62.9353 80.2644 62.9883 79.8175 62.8708 79.4002C62.634 78.5663 62.1882 77.8067 61.5756 77.1934L56.7104 72.3286C56.2401 71.8556 55.6806 71.4807 55.0644 71.2254C54.4481 70.9702 53.7874 70.8397 53.1204 70.8415H33.9034C32.5574 70.8431 31.267 71.3784 30.3152 72.3302C29.3635 73.2819 28.8282 74.5723 28.8267 75.9183V109.631C28.8282 110.977 29.3635 112.268 30.3152 113.219C31.267 114.171 32.5574 114.707 33.9034 114.708H57.9858C59.3318 114.707 60.6222 114.171 61.574 113.219C62.5257 112.268 63.0611 110.977 63.0626 109.631V108.181C63.0626 107.966 63.0202 107.753 62.938 107.555C62.8557 107.356 62.7352 107.176 62.5832 107.024C62.4312 106.872 62.2508 106.751 62.0523 106.669C61.8537 106.587 61.6409 106.544 61.4259 106.544Z" fill="#FFC250"/>
<path d="M47.6648 81.1618H37.3438C36.9098 81.1618 36.4935 81.3343 36.1866 81.6412C35.8796 81.9481 35.7072 82.3643 35.7072 82.7984C35.7072 83.2324 35.8796 83.6487 36.1866 83.9556C36.4935 84.2625 36.9098 84.4349 37.3438 84.4349H47.6648C48.0989 84.4349 48.5151 84.2625 48.8221 83.9556C49.129 83.6487 49.3014 83.2324 49.3014 82.7984C49.3014 82.3643 49.129 81.9481 48.8221 81.6412C48.5151 81.3343 48.0989 81.1618 47.6648 81.1618Z" fill="#FFC250"/>
<path d="M47.6648 88.0422H37.3438C36.9098 88.0422 36.4935 88.2146 36.1866 88.5216C35.8796 88.8285 35.7072 89.2447 35.7072 89.6788C35.7072 90.1128 35.8796 90.5291 36.1866 90.836C36.4935 91.1429 36.9098 91.3153 37.3438 91.3153H47.6648C48.0989 91.3153 48.5151 91.1429 48.8221 90.836C49.129 90.5291 49.3014 90.1128 49.3014 89.6788C49.3014 89.2447 49.129 88.8285 48.8221 88.5216C48.5151 88.2146 48.0989 88.0422 47.6648 88.0422Z" fill="#FFC250"/>
<defs>
<linearGradient id="paint0_linear_170_8377" x1="11.652" y1="44.2593" x2="111.869" y2="56.8147" gradientUnits="userSpaceOnUse">
<stop stop-color="#FFC250"/>
<stop offset="1" stop-color="#FFE6B8"/>
</linearGradient>
</defs>
</svg>
