<svg width="94" height="137" viewBox="0 0 94 137" fill="none" xmlns="http://www.w3.org/2000/svg">
<path fill-rule="evenodd" clip-rule="evenodd" d="M47 22.5907L21 4.99989L21.6457 4.32031L47.8417 21.6508L47.8398 21.9999H48L48 51.9999H47L47 22.5907Z" fill="#050F27" fill-opacity="0.5"/>
<ellipse cx="4.5" cy="4.49998" rx="4.5" ry="4.49998" transform="matrix(0 1 1 0 15 0)" fill="#A2E80A"/>
<path d="M94 90C94 115.957 72.9574 137 47 137C21.0426 137 0 115.957 0 90C0 64.0426 21.0426 43 47 43C72.9574 43 94 64.0426 94 90ZM9.4 90C9.4 110.766 26.2341 127.6 47 127.6C67.7659 127.6 84.6 110.766 84.6 90C84.6 69.2341 67.7659 52.4 47 52.4C26.2341 52.4 9.4 69.2341 9.4 90Z" fill="url(#paint0_linear_4360_47164)"/>
<path d="M42.6103 78.4225C44.5769 78.4247 46.4624 79.2054 47.853 80.5933C49.2436 81.9812 50.0258 83.8629 50.028 85.8257C50.028 86.2545 50.1987 86.6658 50.5025 86.969C50.8063 87.2722 51.2184 87.4425 51.648 87.4425C52.0777 87.4425 52.4897 87.2722 52.7936 86.969C53.0974 86.6658 53.268 86.2545 53.268 85.8257C53.2681 83.7219 52.643 81.6654 51.472 79.9161C50.3009 78.1669 48.6364 76.8035 46.6889 75.9984C44.7415 75.1933 42.5986 74.9826 40.5312 75.393C38.4637 75.8034 36.5647 76.8165 35.0742 78.3041C33.5836 79.7917 32.5686 81.687 32.1573 83.7504C31.7461 85.8137 31.9572 87.9524 32.7638 89.8961C33.5705 91.8398 34.9365 93.501 36.6891 94.6698C38.4418 95.8386 40.5024 96.4625 42.6103 96.4625C43.0399 96.4625 43.452 96.2921 43.7558 95.9889C44.0596 95.6857 44.2303 95.2745 44.2303 94.8456C44.2303 94.4168 44.0596 94.0056 43.7558 93.7024C43.452 93.3991 43.0399 93.2288 42.6103 93.2288C41.6362 93.2288 40.6716 93.0373 39.7717 92.6653C38.8717 92.2932 38.054 91.7479 37.3652 91.0605C36.6764 90.373 36.13 89.5569 35.7573 88.6587C35.3845 87.7605 35.1926 86.7978 35.1926 85.8256C35.1926 84.8534 35.3845 83.8908 35.7573 82.9926C36.13 82.0944 36.6764 81.2783 37.3652 80.5908C38.054 79.9034 38.8717 79.358 39.7717 78.986C40.6716 78.614 41.6362 78.4225 42.6103 78.4225Z" fill="#A2E80A"/>
<path d="M36.5709 101.089C32.1392 96.245 28.3119 92.0615 28.3067 85.8101C28.3121 82.0275 29.8215 78.4017 32.5034 75.729C35.1852 73.0562 38.8203 71.555 42.6103 71.555C46.4003 71.555 50.0354 73.0562 52.7172 75.729C55.3991 78.4017 56.9085 82.0275 56.9139 85.8101C56.9143 86.2387 57.0851 86.6496 57.3889 86.9524C57.6927 87.2553 58.1045 87.4254 58.5339 87.4254H58.5356C58.9653 87.425 59.3771 87.2542 59.6806 86.9507C59.9841 86.6472 60.1543 86.2358 60.1539 85.807C60.1475 81.1671 58.2962 76.7195 55.0065 73.4411C51.7168 70.1626 47.2578 68.3213 42.6089 68.3217C37.9599 68.3221 33.5012 70.1641 30.2121 73.4431C26.9229 76.7221 25.0723 81.17 25.0667 85.8099C25.073 93.3169 29.4958 98.1512 34.178 103.269C36.4665 105.771 38.8327 108.357 40.7245 111.344C40.9541 111.707 41.3185 111.963 41.7376 112.058C42.1568 112.152 42.5963 112.076 42.9595 111.847C43.3227 111.618 43.5799 111.254 43.6744 110.836C43.7689 110.418 43.693 109.979 43.4634 109.617C41.4186 106.388 38.9541 103.694 36.5709 101.089Z" fill="#A2E80A"/>
<path d="M68.4067 99.4942L65.3803 96.7313C65.3321 96.6813 65.2808 96.6345 65.2266 96.591L59.5234 91.3844C58.6456 90.5759 57.4948 90.1269 56.3003 90.1269C55.1058 90.1268 53.955 90.5757 53.0771 91.3842L44.1857 99.4936C43.8686 99.7829 43.6795 100.186 43.6602 100.614C43.6408 101.043 43.7928 101.461 44.0826 101.778C44.3724 102.094 44.7764 102.283 45.2056 102.302C45.6348 102.322 46.0541 102.17 46.3712 101.881L46.671 101.607V107.448C46.6724 108.703 47.1728 109.907 48.0623 110.795C48.9518 111.682 50.1577 112.182 51.4156 112.183H61.0902C62.3481 112.182 63.554 111.682 64.4435 110.795C65.3329 109.907 65.8332 108.703 65.8346 107.448V101.528L66.22 101.88C66.377 102.023 66.5607 102.134 66.7607 102.207C66.9606 102.279 67.173 102.312 67.3855 102.302C67.598 102.293 67.8066 102.242 67.9993 102.152C68.192 102.062 68.3651 101.935 68.5087 101.778C68.6523 101.622 68.7635 101.438 68.8361 101.239C68.9087 101.039 68.9412 100.827 68.9317 100.615C68.9222 100.403 68.871 100.195 68.7809 100.003C68.6908 99.8102 68.5637 99.6375 68.4067 99.4942ZM62.5946 107.448C62.5942 107.846 62.4355 108.228 62.1535 108.509C61.8715 108.791 61.4891 108.949 61.0902 108.949H51.4156C51.0168 108.949 50.6343 108.791 50.3523 108.509C50.0702 108.228 49.9115 107.846 49.911 107.448V98.6523L55.2629 93.7711C55.5472 93.5148 55.9167 93.373 56.2999 93.3729C56.683 93.3728 57.0526 93.5145 57.3371 93.7707L62.5946 98.5704V107.448Z" fill="#A2E80A"/>
<path d="M53.5889 101.654V104.488C53.5899 104.83 53.7262 105.157 53.9682 105.399C54.2101 105.64 54.5379 105.776 54.88 105.777H57.7204C57.89 105.777 58.0579 105.744 58.2145 105.679C58.3712 105.614 58.5136 105.519 58.6334 105.4C58.7533 105.28 58.8484 105.138 58.9133 104.982C58.9782 104.825 59.0116 104.658 59.0115 104.488V101.654C59.0105 101.312 58.8742 100.985 58.6322 100.744C58.3903 100.502 58.0625 100.366 57.7204 100.365H54.88C54.5379 100.366 54.2101 100.502 53.9682 100.744C53.7262 100.985 53.5899 101.312 53.5889 101.654Z" fill="#A2E80A"/>
<defs>
<linearGradient id="paint0_linear_4360_47164" x1="58.28" y1="37.36" x2="47" y2="123.84" gradientUnits="userSpaceOnUse">
<stop stop-color="#A2E80A"/>
<stop offset="1" stop-color="#E8FFB6"/>
</linearGradient>
</defs>
</svg>
