<svg width="251" height="150" viewBox="0 0 251 150" fill="none" xmlns="http://www.w3.org/2000/svg">
<path fill-rule="evenodd" clip-rule="evenodd" d="M197.203 72L240 114L240.664 113.348L198 71.3989V71L147 71V72L197.203 72Z" fill="#050F27" fill-opacity="0.5"/>
<ellipse cx="243.5" cy="118.5" rx="7.5" ry="7.50024" transform="rotate(-180 243.5 118.5)" fill="#0DCCFD"/>
<path d="M150 75C150 116.421 116.421 150 75 150C33.5786 150 0 116.421 0 75C0 33.5786 33.5786 0 75 0C116.421 0 150 33.5786 150 75ZM15 75C15 108.137 41.8629 135 75 135C108.137 135 135 108.137 135 75C135 41.8629 108.137 15 75 15C41.8629 15 15 41.8629 15 75Z" fill="url(#paint0_linear_4115_10941)"/>
<path d="M87.5857 59.4618C88.1882 59.4617 88.766 59.2208 89.192 58.7922C89.6179 58.3635 89.8571 57.7823 89.857 57.1762C89.8568 56.5702 89.6173 55.989 89.1912 55.5606C88.765 55.1322 88.1871 54.8916 87.5846 54.8917H61.4169C60.8143 54.8917 60.2365 55.1325 59.8105 55.561C59.3844 55.9895 59.145 56.5707 59.145 57.1768C59.145 57.7828 59.3844 58.364 59.8105 58.7926C60.2365 59.2211 60.8143 59.4618 61.4169 59.4618H87.5857Z" fill="#0DCCFD"/>
<path d="M61.4169 68.5057H87.5857C87.884 68.5056 88.1794 68.4464 88.455 68.3315C88.7306 68.2166 88.9811 68.0483 89.192 67.836C89.4029 67.6238 89.5702 67.3718 89.6843 67.0946C89.7984 66.8173 89.857 66.5201 89.857 66.2201C89.8569 65.92 89.7981 65.6229 89.6838 65.3457C89.5696 65.0685 89.4022 64.8166 89.1912 64.6044C88.9802 64.3923 88.7297 64.2241 88.4541 64.1093C88.1784 63.9945 87.8829 63.9355 87.5846 63.9355H61.4169C60.8143 63.9355 60.2365 64.1763 59.8104 64.6048C59.3844 65.0334 59.145 65.6146 59.145 66.2206C59.145 66.8267 59.3844 67.4079 59.8104 67.8364C60.2365 68.2649 60.8143 68.5057 61.4169 68.5057Z" fill="#0DCCFD"/>
<path d="M61.4166 77.5506H75.001C75.6036 77.5506 76.1814 77.3099 76.6075 76.8813C77.0335 76.4528 77.2729 75.8716 77.2729 75.2655C77.2729 74.6595 77.0335 74.0783 76.6075 73.6497C76.1814 73.2212 75.6036 72.9805 75.001 72.9805H61.4166C61.118 72.98 60.8223 73.0388 60.5463 73.1535C60.2703 73.2681 60.0194 73.4364 59.8081 73.6486C59.5968 73.8608 59.4292 74.1129 59.3148 74.3903C59.2005 74.6678 59.1416 74.9652 59.1416 75.2655C59.1416 75.5659 59.2005 75.8633 59.3148 76.1407C59.4292 76.4182 59.5968 76.6702 59.8081 76.8824C60.0194 77.0947 60.2703 77.2629 60.5463 77.3776C60.8223 77.4922 61.118 77.551 61.4166 77.5506Z" fill="#0DCCFD"/>
<path d="M61.4166 86.5955H70.8522C71.1509 86.5959 71.4466 86.5371 71.7226 86.4225C71.9986 86.3078 72.2495 86.1396 72.4608 85.9274C72.6721 85.7151 72.8397 85.4631 72.954 85.1856C73.0684 84.9082 73.1273 84.6108 73.1273 84.3105C73.1273 84.0101 73.0684 83.7127 72.954 83.4353C72.8397 83.1578 72.6721 82.9058 72.4608 82.6935C72.2495 82.4813 71.9986 82.3131 71.7226 82.1984C71.4466 82.0838 71.1509 82.025 70.8522 82.0254H61.4166C61.118 82.025 60.8223 82.0838 60.5463 82.1984C60.2703 82.3131 60.0194 82.4813 59.8081 82.6935C59.5968 82.9058 59.4292 83.1578 59.3148 83.4353C59.2005 83.7127 59.1416 84.0101 59.1416 84.3105C59.1416 84.6108 59.2005 84.9082 59.3148 85.1856C59.4292 85.4631 59.5968 85.7151 59.8081 85.9274C60.0194 86.1396 60.2703 86.3078 60.5463 86.4225C60.8223 86.5371 61.118 86.5959 61.4166 86.5955Z" fill="#0DCCFD"/>
<path d="M100.066 53.0115C100.066 53.3116 100.125 53.6088 100.239 53.8861C100.353 54.1633 100.52 54.4153 100.731 54.6275C100.942 54.8397 101.193 55.008 101.468 55.1228C101.744 55.2376 102.039 55.2966 102.338 55.2965H107.727C108.025 55.2967 108.321 55.2376 108.597 55.1229C108.873 55.0081 109.123 54.8398 109.334 54.6276C109.545 54.4154 109.713 54.1635 109.827 53.8862C109.941 53.6088 110 53.3116 110 53.0115V50.874C109.997 48.7863 109.172 46.7849 107.704 45.3087C106.236 43.8326 104.246 43.0023 102.17 43H57.9461C55.8704 43.0023 53.8805 43.8326 52.4126 45.3087C50.9448 46.7849 50.119 48.7863 50.1165 50.874V89.5305C50.1173 90.1362 50.3571 90.7168 50.7833 91.1448C51.2094 91.5728 51.7869 91.8132 52.3891 91.8132C52.9913 91.8132 53.5689 91.5728 53.995 91.1448C54.4211 90.7168 54.6609 90.1362 54.6618 89.5305V50.874C54.6624 49.998 55.0087 49.158 55.6244 48.5384C56.2401 47.9187 57.0751 47.5701 57.9461 47.569H95.0743C94.5927 48.6036 94.3423 49.7317 94.3409 50.874V70.5194C91.4064 70.0634 88.4051 70.3558 85.6122 71.3699C82.8193 72.384 80.3243 74.0872 78.3561 76.3235C76.3879 78.5597 75.0095 81.2572 74.3474 84.1686C73.6853 87.08 73.7606 90.112 74.5665 92.9865H41.2718C40.6693 92.9865 40.0915 93.2273 39.6655 93.6558C39.2394 94.0843 39.0001 94.6655 39 95.2715V98.1221C39.0024 100.211 39.8283 102.213 41.2967 103.69C42.765 105.167 44.7558 105.998 46.8323 106H77.1867C77.4851 106 77.7805 105.941 78.0561 105.826C78.3317 105.711 78.5822 105.543 78.7932 105.331C79.0041 105.119 79.1715 104.867 79.2856 104.589C79.3998 104.312 79.4585 104.015 79.4585 103.715C79.4585 103.415 79.3998 103.118 79.2856 102.84C79.1715 102.563 79.0041 102.311 78.7932 102.099C78.5822 101.887 78.3317 101.719 78.0561 101.604C77.7805 101.489 77.4851 101.43 77.1867 101.43H46.8306C45.9589 101.429 45.1234 101.08 44.5072 100.46C43.891 99.8395 43.5445 98.9989 43.5437 98.1221V97.5566H76.5712C78.1613 100.137 80.3797 102.267 83.0165 103.744C85.6532 105.222 88.6212 105.998 91.6395 106C92.2425 106 92.8207 105.759 93.2471 105.33C93.6736 104.901 93.9134 104.32 93.914 103.713V88.2432L96.4968 91.4674C96.8756 91.9373 97.4242 92.2369 98.0222 92.3007C98.6203 92.3644 99.2191 92.187 99.6874 91.8075C100.156 91.4279 100.455 90.8771 100.52 90.2757C100.586 89.6744 100.411 89.0715 100.035 88.5994L93.4103 80.3309C93.3926 80.3089 93.3691 80.2942 93.3507 80.2731C93.2641 80.1732 93.169 80.081 93.0665 79.9977C93.0555 79.9891 93.0455 79.9792 93.0342 79.9709C92.6385 79.6524 92.1467 79.479 91.6398 79.4793C91.133 79.4796 90.6413 79.6535 90.2459 79.9724C90.2371 79.979 90.2293 79.9867 90.2206 79.9934C90.1154 80.0786 90.018 80.173 89.9295 80.2756C89.9119 80.2958 89.8894 80.3098 89.8725 80.3309L83.2487 88.5994C82.8726 89.0717 82.6979 89.6747 82.7631 90.2763C82.8283 90.8779 83.1281 91.4289 83.5966 91.8085C84.0651 92.1882 84.6642 92.3655 85.2625 92.3015C85.8607 92.2376 86.4094 91.9376 86.7881 91.4674L89.3687 88.2456V101.232C86.2692 100.684 83.4662 99.0406 81.4662 96.5968C79.4662 94.153 78.401 91.0705 78.4628 87.9058C78.5246 84.7412 79.7095 81.7031 81.8034 79.3403C83.8973 76.9774 86.7623 75.4456 89.8808 75.0214C92.9994 74.5972 96.1659 75.3087 98.8086 77.0272C101.451 78.7458 103.396 81.3582 104.291 84.3927C105.186 87.4271 104.973 90.6836 103.691 93.5739C102.408 96.4642 100.14 98.7978 97.2958 100.153C96.7522 100.414 96.3335 100.881 96.1319 101.452C95.9303 102.022 95.9621 102.65 96.2204 103.197C96.4787 103.744 96.9423 104.166 97.5095 104.37C98.0767 104.573 98.701 104.542 99.2453 104.283C102.308 102.821 104.891 100.507 106.686 97.6146C108.482 94.7222 109.417 91.3728 109.379 87.963C109.341 84.5531 108.332 81.2256 106.472 78.3744C104.612 75.5232 101.979 73.2677 98.8846 71.8751V50.874C98.8845 50.0103 99.2206 49.1809 99.821 48.5633C100.421 47.9458 101.238 47.5892 102.097 47.5699C102.955 47.5506 103.787 47.8701 104.414 48.4601C105.042 49.05 105.414 49.8635 105.453 50.7264H102.338C102.039 50.7263 101.744 50.7854 101.468 50.9002C101.193 51.015 100.942 51.1833 100.731 51.3955C100.52 51.6077 100.353 51.8596 100.239 52.1369C100.125 52.4142 100.066 52.7114 100.066 53.0115Z" fill="#0DCCFD"/>
<defs>
<linearGradient id="paint0_linear_4115_10941" x1="18.5936" y1="-2.77773" x2="178.514" y2="17.2575" gradientUnits="userSpaceOnUse">
<stop stop-color="#BEF2FF"/>
<stop offset="1" stop-color="#0DCCFD"/>
</linearGradient>
</defs>
</svg>
