<svg width="213" height="150" viewBox="0 0 213 150" fill="none" xmlns="http://www.w3.org/2000/svg">
<path fill-rule="evenodd" clip-rule="evenodd" d="M54.0621 84L11.0004 42L10.334 42.6497L53 84.3426V85H78V84H54.0621Z" fill="#050F27" fill-opacity="0.5"/>
<circle cx="7.5" cy="37.5" r="7.5" fill="#FCC95E"/>
<path d="M213 75C213 116.421 179.421 150 138 150C96.5786 150 63 116.421 63 75C63 33.5786 96.5786 0 138 0C179.421 0 213 33.5786 213 75ZM78 75C78 108.137 104.863 135 138 135C171.137 135 198 108.137 198 75C198 41.8629 171.137 15 138 15C104.863 15 78 41.8629 78 75Z" fill="url(#paint0_linear_4115_10968)"/>
<path d="M176.631 60.3658C175.11 58.8488 173.05 57.9969 170.902 57.9969C168.754 57.9969 166.694 58.8488 165.174 60.3658L144.588 80.9501C141.211 84.3098 139.065 88.7093 138.496 93.4384H135.75C135.132 91.6218 133.888 90.0838 132.241 89.0984C130.594 88.113 128.651 87.7442 126.758 88.0577C124.864 88.3713 123.144 89.3467 121.902 90.8104C120.661 92.274 119.98 94.1308 119.98 96.0499C119.98 96.7425 120.255 97.4067 120.745 97.8965C121.234 98.3862 121.899 98.6614 122.591 98.6614C123.284 98.6614 123.948 98.3862 124.438 97.8965C124.928 97.4067 125.203 96.7425 125.203 96.0499C125.202 95.6716 125.276 95.297 125.421 94.9473C125.565 94.5977 125.777 94.28 126.044 94.0123C126.312 93.7447 126.629 93.5323 126.979 93.3875C127.328 93.2426 127.703 93.168 128.081 93.168C128.459 93.168 128.834 93.2426 129.183 93.3875C129.533 93.5323 129.85 93.7447 130.118 94.0123C130.385 94.28 130.597 94.5977 130.741 94.9473C130.886 95.297 130.96 95.6716 130.959 96.0499C130.959 96.3928 131.027 96.7324 131.158 97.0493C131.289 97.3661 131.482 97.654 131.724 97.8965C131.967 98.139 132.254 98.3314 132.571 98.4626C132.888 98.5938 133.228 98.6614 133.571 98.6614H140.945C143.75 98.669 146.529 98.1202 149.121 97.0467C151.713 95.9731 154.066 94.3961 156.045 92.4071L176.631 71.8224C178.148 70.302 179 68.2419 179 66.0941C179 63.9463 178.148 61.8862 176.631 60.3658ZM152.352 88.7137C150.031 91.047 147.048 92.6088 143.808 93.1867C144.386 89.947 145.948 86.964 148.281 84.6435L160.354 72.5712L164.425 76.6417L152.352 88.7137ZM172.938 68.1291L168.118 72.9481L164.048 68.8777L168.867 64.0591C169.134 63.7912 169.451 63.5786 169.8 63.4335C170.15 63.2883 170.524 63.2135 170.903 63.2132C171.281 63.2129 171.656 63.2872 172.005 63.4318C172.355 63.5764 172.672 63.7886 172.94 64.056C173.208 64.3235 173.42 64.6411 173.564 64.9906C173.709 65.3401 173.783 65.7148 173.783 66.093C173.783 66.4713 173.708 66.8459 173.563 67.1952C173.418 67.5446 173.206 67.8619 172.938 68.1291Z" fill="#FFC250"/>
<path d="M161.02 96.6133C160.677 96.6133 160.338 96.6808 160.021 96.8121C159.704 96.9433 159.416 97.1357 159.173 97.3782C158.931 97.6207 158.738 97.9086 158.607 98.2254C158.476 98.5422 158.408 98.8818 158.408 99.2248V101.539C158.408 102.302 158.104 103.034 157.565 103.574C157.025 104.113 156.294 104.417 155.531 104.418H117.101C116.338 104.417 115.607 104.113 115.067 103.574C114.528 103.034 114.224 102.302 114.223 101.539V47.7419C114.224 46.9789 114.528 46.2473 115.067 45.7077C115.607 45.1681 116.338 44.8646 117.101 44.8636H147.767C148.145 44.8626 148.519 44.9366 148.869 45.0814C149.218 45.2261 149.535 45.4386 149.802 45.7068L157.566 53.4701C157.913 53.8183 158.166 54.2492 158.3 54.7223C158.49 55.3876 158.936 55.9503 159.541 56.2871C160.145 56.6238 160.858 56.707 161.524 56.5184C162.189 56.3298 162.753 55.8847 163.091 55.281C163.429 54.6773 163.513 53.9641 163.326 53.2982C162.948 51.9675 162.236 50.7554 161.259 49.7768L153.495 42.0137C152.745 41.259 151.852 40.6607 150.869 40.2533C149.885 39.846 148.831 39.6378 147.767 39.6407H117.101C114.953 39.6432 112.894 40.4975 111.375 42.0163C109.857 43.535 109.002 45.5941 109 47.7419V101.539C109.002 103.687 109.857 105.746 111.375 107.265C112.894 108.784 114.953 109.638 117.101 109.641H155.531C157.678 109.638 159.738 108.784 161.256 107.265C162.775 105.746 163.629 103.687 163.632 101.539V99.2248C163.632 98.8818 163.564 98.5422 163.433 98.2254C163.302 97.9086 163.109 97.6207 162.867 97.3782C162.624 97.1357 162.336 96.9433 162.02 96.8121C161.703 96.6808 161.363 96.6133 161.02 96.6133Z" fill="#FFC250"/>
<path d="M139.061 56.1093H122.591C121.899 56.1093 121.234 56.3845 120.745 56.8742C120.255 57.364 119.98 58.0282 119.98 58.7208C119.98 59.4134 120.255 60.0777 120.745 60.5674C121.234 61.0572 121.899 61.3323 122.591 61.3323H139.061C139.754 61.3323 140.418 61.0572 140.908 60.5674C141.397 60.0777 141.673 59.4134 141.673 58.7208C141.673 58.0282 141.397 57.364 140.908 56.8742C140.418 56.3845 139.754 56.1093 139.061 56.1093Z" fill="#FFC250"/>
<path d="M139.061 67.0887H122.591C121.899 67.0887 121.234 67.3638 120.745 67.8536C120.255 68.3433 119.98 69.0075 119.98 69.7002C119.98 70.3928 120.255 71.057 120.745 71.5468C121.234 72.0365 121.899 72.3117 122.591 72.3117H139.061C139.754 72.3117 140.418 72.0365 140.908 71.5468C141.397 71.057 141.673 70.3928 141.673 69.7002C141.673 69.0075 141.397 68.3433 140.908 67.8536C140.418 67.3638 139.754 67.0887 139.061 67.0887Z" fill="#FFC250"/>
<defs>
<linearGradient id="paint0_linear_4115_10968" x1="81.5936" y1="-2.77773" x2="241.514" y2="17.2575" gradientUnits="userSpaceOnUse">
<stop stop-color="#FFC250"/>
<stop offset="1" stop-color="#FFE6B8"/>
</linearGradient>
</defs>
</svg>
