<svg width="120" height="95" viewBox="0 0 120 95" fill="none" xmlns="http://www.w3.org/2000/svg">
<path d="M4.5 48.5H28.5V47.5H4.5V48.5Z" fill="#050F27" fill-opacity="0.5"/>
<ellipse cx="4.5" cy="4.49998" rx="4.5" ry="4.49998" transform="matrix(1 0 0 -1 0.5 52.5)" fill="#0676B3"/>
<path d="M120 47.5C120 73.4574 99.1812 94.5 73.5 94.5C47.8188 94.5 27 73.4574 27 47.5C27 21.5426 47.8188 0.5 73.5 0.5C99.1812 0.5 120 21.5426 120 47.5ZM36.3 47.5C36.3 68.2659 52.955 85.1 73.5 85.1C94.045 85.1 110.7 68.2659 110.7 47.5C110.7 26.7341 94.045 9.9 73.5 9.9C52.955 9.9 36.3 26.7341 36.3 47.5Z" fill="url(#paint0_linear_169_8376)"/>
<path d="M73.0428 45.4609C74.8053 45.4609 76.5283 44.9326 77.9938 43.9428C79.4593 42.953 80.6015 41.5462 81.2759 39.9002C81.9503 38.2543 82.1267 36.4432 81.7827 34.6959C81.4387 32.9487 80.5898 31.3437 79.3434 30.0841C78.0969 28.8246 76.5089 27.9669 74.7802 27.6195C73.0514 27.2722 71.2596 27.4508 69.6313 28.1328C68.003 28.8148 66.6114 29.9696 65.6324 31.451C64.6534 32.9325 64.1311 34.6741 64.1315 36.4556C64.1343 38.8434 65.0742 41.1325 66.7448 42.8208C68.4154 44.509 70.6804 45.4585 73.0428 45.4609ZM73.0428 31.0944C74.0918 31.0944 75.1173 31.4088 75.9896 31.9979C76.8619 32.587 77.5417 33.4243 77.9432 34.4039C78.3447 35.3836 78.4497 36.4616 78.2451 37.5015C78.0404 38.5415 77.5352 39.4968 76.7934 40.2466C76.0516 40.9964 75.1065 41.507 74.0776 41.7138C73.0486 41.9207 71.9821 41.8145 71.0129 41.4088C70.0437 41.003 69.2153 40.3158 68.6325 39.4342C68.0496 38.5525 67.7385 37.516 67.7385 36.4556C67.7405 35.0343 68.2999 33.6718 69.2942 32.6668C70.2885 31.6618 71.6366 31.0963 73.0428 31.0944Z" fill="#0676B3"/>
<path d="M56.2082 50.7547C57.5636 50.7547 58.8887 50.3484 60.0157 49.5872C61.1428 48.8261 62.0212 47.7442 62.5399 46.4784C63.0586 45.2127 63.1944 43.8198 62.9299 42.4761C62.6655 41.1324 62.0128 39.8981 61.0543 38.9293C60.0958 37.9605 58.8746 37.3008 57.5452 37.0335C56.2158 36.7662 54.8378 36.9034 53.5855 37.4277C52.3331 37.952 51.2628 38.8398 50.5097 39.979C49.7566 41.1182 49.3547 42.4575 49.3547 43.8275C49.3547 45.6647 50.0768 47.4267 51.362 48.7258C52.6473 50.0248 54.3905 50.7547 56.2082 50.7547ZM56.2082 40.5462C56.8502 40.5462 57.4779 40.7387 58.0117 41.0992C58.5456 41.4598 58.9617 41.9723 59.2074 42.5718C59.4531 43.1714 59.5174 43.8312 59.3921 44.4677C59.2669 45.1042 58.9577 45.6888 58.5037 46.1477C58.0497 46.6066 57.4712 46.9191 56.8415 47.0458C56.2118 47.1724 55.559 47.1074 54.9658 46.859C54.3726 46.6107 53.8656 46.1901 53.5089 45.6505C53.1522 45.1109 52.9618 44.4765 52.9618 43.8275C52.9618 42.9573 53.3038 42.1227 53.9126 41.5073C54.5214 40.8919 55.3472 40.5462 56.2082 40.5462Z" fill="#0676B3"/>
<path d="M89.8755 50.7547C91.231 50.7547 92.5561 50.3484 93.6831 49.5872C94.8102 48.8261 95.6886 47.7442 96.2073 46.4784C96.726 45.2127 96.8618 43.8198 96.5973 42.4761C96.3329 41.1324 95.6801 39.8981 94.7217 38.9293C93.7632 37.9605 92.542 37.3008 91.2126 37.0335C89.8831 36.7662 88.5051 36.9034 87.2528 37.4277C86.0005 37.952 84.9302 38.8398 84.1771 39.979C83.424 41.1182 83.0221 42.4575 83.0221 43.8275C83.0221 45.6647 83.7442 47.4267 85.0294 48.7258C86.3147 50.0248 88.0579 50.7547 89.8755 50.7547ZM89.8755 40.5462C90.5176 40.5462 91.1453 40.7387 91.6791 41.0992C92.213 41.4598 92.6291 41.9723 92.8748 42.5718C93.1205 43.1714 93.1848 43.8312 93.0595 44.4677C92.9343 45.1042 92.6251 45.6888 92.1711 46.1477C91.7171 46.6066 91.1386 46.9191 90.5089 47.0458C89.8791 47.1724 89.2264 47.1074 88.6332 46.859C88.04 46.6107 87.533 46.1901 87.1763 45.6505C86.8196 45.1109 86.6292 44.4765 86.6292 43.8275C86.6292 42.9573 86.9712 42.1227 87.58 41.5073C88.1888 40.8919 89.0146 40.5462 89.8755 40.5462Z" fill="#0676B3"/>
<path d="M90.1152 54.4118C88.5342 54.4224 86.9807 54.8315 85.5956 55.6022C84.2788 53.4951 82.4637 51.7524 80.3142 50.5313C78.1647 49.3102 75.7482 48.6491 73.2828 48.6076C70.8174 48.6491 68.4009 49.3102 66.2514 50.5313C64.1019 51.7524 62.2868 53.4951 60.97 55.6022C59.5849 54.8315 58.0314 54.4224 56.4504 54.4118C53.6132 54.5517 50.946 55.8205 49.0311 57.9411C47.1162 60.0617 46.1091 62.8619 46.2297 65.7304C46.2297 66.2139 46.4197 66.6775 46.7579 67.0194C47.0962 67.3613 47.5549 67.5533 48.0332 67.5533C48.5116 67.5533 48.9703 67.3613 49.3085 67.0194C49.6468 66.6775 49.8368 66.2139 49.8368 65.7304C49.7186 63.8292 50.3466 61.9575 51.5846 60.5212C52.8226 59.0849 54.5709 58.1998 56.4504 58.0577C57.447 58.0654 58.4255 58.3282 59.2945 58.8215C58.4446 60.9866 58.0094 63.2953 58.0122 65.6247C58.0122 66.1081 58.2022 66.5718 58.5405 66.9137C58.8787 67.2555 59.3374 67.4476 59.8158 67.4476C60.2941 67.4476 60.7528 67.2555 61.0911 66.9137C61.4293 66.5718 61.6193 66.1081 61.6193 65.6247C61.6193 58.2509 66.8496 52.2535 73.2828 52.2535C79.716 52.2535 84.9463 58.2509 84.9463 65.6247C84.9463 66.1081 85.1363 66.5718 85.4745 66.9137C85.8128 67.2555 86.2715 67.4476 86.7498 67.4476C87.2282 67.4476 87.6869 67.2555 88.0251 66.9137C88.3634 66.5718 88.5534 66.1081 88.5534 65.6247C88.5562 63.2953 88.1211 60.9866 87.2711 58.8215C88.1401 58.3282 89.1186 58.0654 90.1152 58.0577C91.9947 58.1998 93.743 59.0849 94.981 60.5212C96.219 61.9575 96.847 63.8292 96.7288 65.7304C96.7288 66.2139 96.9188 66.6775 97.2571 67.0194C97.5953 67.3613 98.054 67.5533 98.5324 67.5533C99.0107 67.5533 99.4694 67.3613 99.8077 67.0194C100.146 66.6775 100.336 66.2139 100.336 65.7304C100.456 62.8619 99.4494 60.0617 97.5345 57.9411C95.6196 55.8205 92.9524 54.5517 90.1152 54.4118Z" fill="#0676B3"/>
<defs>
<linearGradient id="paint0_linear_169_8376" x1="38.528" y1="-1.24071" x2="137.711" y2="11.053" gradientUnits="userSpaceOnUse">
<stop stop-color="#0676B3"/>
<stop offset="1" stop-color="#1DAAF7"/>
</linearGradient>
</defs>
</svg>
