<svg width="95" height="139" viewBox="0 0 95 139" fill="none" xmlns="http://www.w3.org/2000/svg">
<path fill-rule="evenodd" clip-rule="evenodd" d="M48 22.5906L22 4.9999L22.6457 4.32031L48.8424 21.6513L48.8405 22H49.0001L49.0001 52H48L48 22.5906Z" fill="#050F27" fill-opacity="0.5"/>
<ellipse cx="4.5" cy="4.50027" rx="4.5" ry="4.50027" transform="matrix(0 1 1 0 16 0)" fill="#0DCCFD"/>
<path d="M95 92C95 117.957 73.7335 139 47.5 139C21.2665 139 0 117.957 0 92C0 66.0426 21.2665 45 47.5 45C73.7335 45 95 66.0426 95 92ZM9.5 92C9.5 112.766 26.5132 129.6 47.5 129.6C68.4868 129.6 85.5 112.766 85.5 92C85.5 71.2341 68.4868 54.4 47.5 54.4C26.5132 54.4 9.5 71.2341 9.5 92Z" fill="url(#paint0_linear_170_8380)"/>
<path d="M55.4709 82.2627C55.8525 82.2627 56.2185 82.1117 56.4883 81.8431C56.758 81.5745 56.9095 81.2102 56.9094 80.8304C56.9093 80.4507 56.7576 80.0865 56.4877 79.818C56.2178 79.5495 55.8519 79.3987 55.4703 79.3988H38.8973C38.5157 79.3988 38.1498 79.5497 37.88 79.8182C37.6101 80.0868 37.4585 80.451 37.4585 80.8308C37.4585 81.2106 37.6101 81.5748 37.88 81.8433C38.1498 82.1119 38.5157 82.2627 38.8973 82.2627H55.4709Z" fill="#0DCCFD"/>
<path d="M38.8973 87.9302H55.4709C55.6599 87.9302 55.847 87.8931 56.0215 87.8211C56.1961 87.7491 56.3547 87.6436 56.4883 87.5106C56.6218 87.3776 56.7278 87.2197 56.8 87.0459C56.8723 86.8722 56.9095 86.686 56.9094 86.4979C56.9094 86.3099 56.8721 86.1237 56.7998 85.9499C56.7274 85.7762 56.6214 85.6184 56.4878 85.4855C56.3541 85.3525 56.1955 85.2471 56.0209 85.1752C55.8463 85.1032 55.6592 85.0662 55.4703 85.0663H38.8973C38.5157 85.0663 38.1498 85.2171 37.8799 85.4857C37.6101 85.7542 37.4585 86.1185 37.4585 86.4982C37.4585 86.878 37.6101 87.2423 37.8799 87.5108C38.1498 87.7794 38.5157 87.9302 38.8973 87.9302Z" fill="#0DCCFD"/>
<path d="M38.8972 93.5984H47.5007C47.8823 93.5984 48.2482 93.4475 48.5181 93.179C48.7879 92.9104 48.9395 92.5462 48.9395 92.1664C48.9395 91.7866 48.7879 91.4224 48.5181 91.1538C48.2482 90.8853 47.8823 90.7344 47.5007 90.7344H38.8972C38.7081 90.7342 38.5208 90.771 38.346 90.8429C38.1712 90.9147 38.0123 91.0201 37.8785 91.1531C37.7447 91.2861 37.6385 91.4441 37.5661 91.6179C37.4936 91.7918 37.4563 91.9782 37.4563 92.1664C37.4563 92.3546 37.4936 92.541 37.5661 92.7149C37.6385 92.8887 37.7447 93.0467 37.8785 93.1797C38.0123 93.3127 38.1712 93.4181 38.346 93.4899C38.5208 93.5618 38.7081 93.5986 38.8972 93.5984Z" fill="#0DCCFD"/>
<path d="M38.8972 99.2665H44.8731C45.0622 99.2668 45.2495 99.2299 45.4243 99.1581C45.5991 99.0863 45.758 98.9808 45.8918 98.8478C46.0256 98.7148 46.1318 98.5569 46.2042 98.383C46.2767 98.2091 46.3139 98.0228 46.3139 97.8346C46.3139 97.6463 46.2767 97.46 46.2042 97.2861C46.1318 97.1122 46.0256 96.9543 45.8918 96.8213C45.758 96.6883 45.5991 96.5829 45.4243 96.511C45.2495 96.4392 45.0622 96.4023 44.8731 96.4026H38.8972C38.7081 96.4023 38.5208 96.4392 38.346 96.511C38.1712 96.5829 38.0123 96.6883 37.8785 96.8213C37.7447 96.9543 37.6385 97.1122 37.5661 97.2861C37.4936 97.46 37.4563 97.6463 37.4563 97.8346C37.4563 98.0228 37.4936 98.2091 37.5661 98.383C37.6385 98.5569 37.7447 98.7148 37.8785 98.8478C38.0123 98.9808 38.1712 99.0863 38.346 99.1581C38.5208 99.2299 38.7081 99.2668 38.8972 99.2665Z" fill="#0DCCFD"/>
<path d="M63.3751 78.2205C63.375 78.4086 63.4122 78.5948 63.4845 78.7686C63.5568 78.9424 63.6627 79.1002 63.7964 79.2332C63.93 79.3662 64.0887 79.4717 64.2633 79.5436C64.4379 79.6156 64.625 79.6526 64.814 79.6525H68.2271C68.4161 79.6526 68.6033 79.6156 68.778 79.5437C68.9526 79.4717 69.1113 79.3663 69.245 79.2333C69.3786 79.1003 69.4847 78.9424 69.5571 78.7687C69.6294 78.5949 69.6666 78.4086 69.6666 78.2205V76.8811C69.665 75.5728 69.1421 74.3185 68.2124 73.3935C67.2828 72.4684 66.0225 71.9481 64.7079 71.9467H36.6992C35.3846 71.9481 34.1243 72.4684 33.1947 73.3935C32.2651 74.3185 31.7421 75.5728 31.7404 76.8811V101.106C31.741 101.485 31.8929 101.849 32.1627 102.117C32.4326 102.386 32.7984 102.536 33.1798 102.536C33.5612 102.536 33.927 102.386 34.1969 102.117C34.4667 101.849 34.6186 101.485 34.6191 101.106V76.8811C34.6195 76.3321 34.8388 75.8057 35.2288 75.4174C35.6188 75.0291 36.1476 74.8106 36.6992 74.8099H60.2137C59.9087 75.4582 59.7501 76.1652 59.7492 76.8811V89.1922C57.8907 88.9064 55.9899 89.0896 54.2211 89.7251C52.4522 90.3606 50.8721 91.428 49.6256 92.8294C48.379 94.2307 47.506 95.9212 47.0867 97.7456C46.6673 99.5701 46.715 101.47 47.2255 103.272H26.1388C25.7572 103.272 25.3913 103.422 25.1215 103.691C24.8516 103.96 24.7 104.324 24.7 104.703V106.49C24.7015 107.799 25.2246 109.054 26.1546 109.979C27.0845 110.905 28.3453 111.425 29.6604 111.427H48.8849C49.0739 111.427 49.261 111.39 49.4355 111.318C49.6101 111.246 49.7687 111.14 49.9023 111.007C50.0359 110.874 50.1419 110.716 50.2142 110.543C50.2865 110.369 50.3238 110.183 50.3238 109.995C50.3238 109.807 50.2865 109.62 50.2142 109.447C50.1419 109.273 50.0359 109.115 49.9023 108.982C49.7687 108.849 49.6101 108.744 49.4355 108.672C49.261 108.6 49.0739 108.563 48.8849 108.563H29.6594C29.1073 108.562 28.5781 108.343 28.1879 107.955C27.7976 107.566 27.5782 107.039 27.5777 106.49V106.135H48.4951C49.5022 107.753 50.9072 109.087 52.5771 110.013C54.2471 110.939 56.1267 111.425 58.0383 111.427C58.4202 111.426 58.7864 111.275 59.0565 111.007C59.3266 110.738 59.4785 110.374 59.4789 109.994V100.299L61.1147 102.32C61.3546 102.614 61.702 102.802 62.0808 102.842C62.4595 102.882 62.8388 102.771 63.1353 102.533C63.4319 102.295 63.6216 101.95 63.6629 101.573C63.7042 101.196 63.5937 100.818 63.3556 100.522L59.1598 95.3407C59.1487 95.3269 59.1338 95.3177 59.1221 95.3045C59.0673 95.2419 59.0071 95.1841 58.9421 95.1319C58.9351 95.1265 58.9288 95.1203 58.9217 95.1151C58.671 94.9155 58.3596 94.8069 58.0385 94.807C57.7175 94.8072 57.4062 94.9162 57.1558 95.116C57.1502 95.1202 57.1452 95.125 57.1397 95.1292C57.0731 95.1826 57.0114 95.2417 56.9554 95.306C56.9442 95.3187 56.9299 95.3275 56.9193 95.3407L52.7242 100.522C52.486 100.818 52.3754 101.196 52.4167 101.573C52.458 101.95 52.6478 102.295 52.9445 102.533C53.2412 102.771 53.6207 102.882 53.9996 102.842C54.3785 102.802 54.7259 102.614 54.9658 102.32L56.6002 100.301V108.438C54.6371 108.096 52.862 107.065 51.5953 105.534C50.3286 104.003 49.6539 102.071 49.6931 100.088C49.7323 98.1045 50.4827 96.2006 51.8088 94.7199C53.135 93.2392 54.9495 92.2792 56.9245 92.0134C58.8996 91.7476 60.9051 92.1934 62.5788 93.2704C64.2524 94.3474 65.484 95.9845 66.051 97.8861C66.618 99.7877 66.4831 101.828 65.6707 103.64C64.8582 105.451 63.4217 106.913 61.6207 107.763C61.2764 107.926 61.0112 108.219 60.8835 108.576C60.7558 108.934 60.776 109.327 60.9396 109.67C61.1032 110.013 61.3968 110.277 61.756 110.405C62.1152 110.533 62.5106 110.513 62.8554 110.351C64.7952 109.435 66.4307 107.984 67.5681 106.172C68.7055 104.359 69.2972 102.26 69.2731 100.123C69.2491 97.9866 68.6103 95.9014 67.4324 94.1146C66.2545 92.3279 64.5869 90.9144 62.6269 90.0417V76.8811C62.6269 76.3398 62.8397 75.82 63.22 75.433C63.6002 75.046 64.1176 74.8225 64.6613 74.8105C65.205 74.7984 65.7319 74.9986 66.1291 75.3683C66.5263 75.738 66.7623 76.2478 66.7866 76.7885H64.814C64.625 76.7885 64.4379 76.8255 64.2633 76.8975C64.0887 76.9694 63.9301 77.0749 63.7964 77.2079C63.6628 77.3408 63.5568 77.4987 63.4845 77.6725C63.4122 77.8462 63.3751 78.0325 63.3751 78.2205Z" fill="#0DCCFD"/>
<defs>
<linearGradient id="paint0_linear_170_8380" x1="11.7759" y1="43.2593" x2="113.026" y2="56.079" gradientUnits="userSpaceOnUse">
<stop stop-color="#BEF2FF"/>
<stop offset="1" stop-color="#0DCCFD"/>
</linearGradient>
</defs>
</svg>
