<svg width="277" height="290" viewBox="0 0 277 290" fill="none" xmlns="http://www.w3.org/2000/svg">
<path d="M169.682 123.039C168.87 123.039 168.047 122.857 167.293 122.475L148.643 113.023C146.354 111.863 145.57 109.293 146.892 107.284C148.213 105.274 151.141 104.585 153.429 105.746L172.08 115.198C174.37 116.358 175.153 118.928 173.832 120.937C172.945 122.285 171.336 123.039 169.682 123.039Z" fill="#1DAAF7"/>
<path d="M94.7772 161.002C92.1339 161.002 89.991 159.121 89.991 156.801V137.898C89.991 135.577 92.1339 133.696 94.7772 133.696C97.4205 133.696 99.5635 135.577 99.5635 137.898V156.801C99.5635 159.121 97.4205 161.002 94.7772 161.002Z" fill="#1DAAF7"/>
<path d="M151.042 189.514C149.387 189.514 147.778 188.76 146.892 187.413C145.57 185.403 146.355 182.834 148.644 181.673L167.294 172.221C169.584 171.06 172.511 171.749 173.833 173.759C175.155 175.768 174.37 178.337 172.081 179.497L153.43 188.95C152.677 189.332 151.853 189.514 151.042 189.514Z" fill="#1DAAF7"/>
<path d="M206.155 117.913L259.723 90.7647L254.937 83.4877L201.369 110.636L143.287 81.2004V19.9047C143.287 17.5844 141.144 15.7034 138.501 15.7034C135.857 15.7034 133.714 17.5844 133.714 19.9047V81.2009L75.6327 110.636L22.0655 83.4887L17.2793 90.7657L70.847 117.913V176.783L17.2793 203.931L22.0655 211.208L75.6333 184.06L133.715 213.495V274.792C133.715 277.112 135.858 278.993 138.501 278.993C141.144 278.993 143.287 277.112 143.287 274.792V213.496L201.369 184.06L254.936 211.208L259.722 203.931L206.155 176.783V117.913ZM138.501 206.219L80.419 176.783V117.913L138.501 88.4779L196.582 117.913V176.783L138.501 206.219Z" fill="#0676B3"/>
<path d="M201.368 126.688C208.418 126.688 214.132 121.672 214.132 115.485C214.132 109.297 208.418 104.281 201.368 104.281C194.319 104.281 188.605 109.297 188.605 115.485C188.605 121.672 194.319 126.688 201.368 126.688Z" fill="#1DAAF7"/>
<path d="M138.501 94.8303C145.55 94.8303 151.264 89.8142 151.264 83.6266C151.264 77.4389 145.55 72.4228 138.501 72.4228C131.451 72.4228 125.737 77.4389 125.737 83.6266C125.737 89.8142 131.451 94.8303 138.501 94.8303Z" fill="#1DAAF7"/>
<path d="M75.6327 126.688C82.6818 126.688 88.3963 121.672 88.3963 115.485C88.3963 109.297 82.6818 104.281 75.6327 104.281C68.5835 104.281 62.8691 109.297 62.8691 115.485C62.8691 121.672 68.5835 126.688 75.6327 126.688Z" fill="#1DAAF7"/>
<path d="M12.7636 94.8303C19.8128 94.8303 25.5272 89.8142 25.5272 83.6266C25.5272 77.4389 19.8128 72.4228 12.7636 72.4228C5.71447 72.4228 2.38377e-07 77.4389 2.38377e-07 83.6266C2.38377e-07 89.8142 5.71447 94.8303 12.7636 94.8303Z" fill="#1DAAF7"/>
<path d="M12.7636 222.274C19.8128 222.274 25.5272 217.258 25.5272 211.07C25.5272 204.883 19.8128 199.866 12.7636 199.866C5.71447 199.866 0 204.883 0 211.07C0 217.258 5.71447 222.274 12.7636 222.274Z" fill="#1DAAF7"/>
<path d="M264.236 94.8303C271.286 94.8303 277 89.8142 277 83.6266C277 77.4389 271.286 72.4228 264.236 72.4228C257.187 72.4228 251.473 77.4389 251.473 83.6266C251.473 89.8142 257.187 94.8303 264.236 94.8303Z" fill="#1DAAF7"/>
<path d="M264.236 222.274C271.286 222.274 277 217.258 277 211.07C277 204.883 271.286 199.866 264.236 199.866C257.187 199.866 251.473 204.883 251.473 211.07C251.473 217.258 257.187 222.274 264.236 222.274Z" fill="#1DAAF7"/>
<path d="M75.6327 190.41C82.6818 190.41 88.3963 185.394 88.3963 179.206C88.3963 173.019 82.6818 168.003 75.6327 168.003C68.5835 168.003 62.8691 173.019 62.8691 179.206C62.8691 185.394 68.5835 190.41 75.6327 190.41Z" fill="#1DAAF7"/>
<path d="M138.501 222.274C145.55 222.274 151.264 217.258 151.264 211.07C151.264 204.883 145.55 199.866 138.501 199.866C131.451 199.866 125.737 204.883 125.737 211.07C125.737 217.258 131.451 222.274 138.501 222.274Z" fill="#1DAAF7"/>
<path d="M201.368 190.41C208.418 190.41 214.132 185.394 214.132 179.206C214.132 173.019 208.418 168.003 201.368 168.003C194.319 168.003 188.605 173.019 188.605 179.206C188.605 185.394 194.319 190.41 201.368 190.41Z" fill="#1DAAF7"/>
<path d="M138.427 22.4074C145.476 22.4074 151.19 17.3914 151.19 11.2037C151.19 5.01608 145.476 0 138.427 0C131.377 0 125.663 5.01608 125.663 11.2037C125.663 17.3914 131.377 22.4074 138.427 22.4074Z" fill="#1DAAF7"/>
<path d="M138.287 290C145.336 290 151.051 284.984 151.051 278.796C151.051 272.609 145.336 267.593 138.287 267.593C131.238 267.593 125.523 272.609 125.523 278.796C125.523 284.984 131.238 290 138.287 290Z" fill="#1DAAF7"/>
</svg>
