<svg width="175" height="180" viewBox="0 0 175 180" fill="none" xmlns="http://www.w3.org/2000/svg">
<path d="M107.2 76.3689C106.687 76.3689 106.167 76.2562 105.691 76.019L93.9081 70.1522C92.4617 69.4321 91.9665 67.8372 92.8015 66.5898C93.6365 65.3424 95.4859 64.9151 96.932 65.6354L108.715 71.5023C110.161 72.2224 110.657 73.8173 109.822 75.0644C109.262 75.9013 108.245 76.3689 107.2 76.3689Z" fill="#1DAAF7"/>
<path d="M59.8773 99.9325C58.2074 99.9325 56.8535 98.765 56.8535 97.3248V85.5916C56.8535 84.1515 58.2074 82.9839 59.8773 82.9839C61.5473 82.9839 62.9011 84.1515 62.9011 85.5916V97.3248C62.9011 98.765 61.5473 99.9325 59.8773 99.9325Z" fill="#1DAAF7"/>
<path d="M95.4234 117.629C94.3782 117.629 93.3619 117.162 92.8019 116.325C91.9669 115.078 92.4625 113.483 93.9085 112.763L105.691 106.896C107.138 106.175 108.987 106.603 109.822 107.85C110.657 109.098 110.162 110.692 108.716 111.412L96.9323 117.279C96.4564 117.516 95.936 117.629 95.4234 117.629Z" fill="#1DAAF7"/>
<path d="M130.242 73.1872L164.085 56.3367L161.061 51.82L127.219 68.6706L90.5242 50.4002V12.3546C90.5242 10.9145 89.1703 9.74691 87.5004 9.74691C85.8304 9.74691 84.4765 10.9145 84.4765 12.3546V50.4006L47.7824 68.6709L13.9403 51.8206L10.9165 56.3373L44.7589 73.1876V109.728L10.9165 126.578L13.9403 131.095L47.7828 114.244L84.4769 132.514V170.561C84.4769 172.001 85.8308 173.168 87.5007 173.168C89.1707 173.168 90.5246 172.001 90.5246 170.561V132.515L127.219 114.244L161.061 131.095L164.085 126.578L130.242 109.728V73.1872ZM87.5004 127.998L50.8062 109.728V73.1872L87.5004 54.9173L124.195 73.1876V109.728L87.5004 127.998Z" fill="#0676B3"/>
<path d="M127.218 78.6341C131.672 78.6341 135.282 75.5207 135.282 71.6801C135.282 67.8395 131.672 64.7261 127.218 64.7261C122.765 64.7261 119.155 67.8395 119.155 71.6801C119.155 75.5207 122.765 78.6341 127.218 78.6341Z" fill="#1DAAF7"/>
<path d="M87.5004 58.8602C91.9538 58.8602 95.564 55.7467 95.564 51.9061C95.564 48.0655 91.9538 44.9521 87.5004 44.9521C83.0469 44.9521 79.4367 48.0655 79.4367 51.9061C79.4367 55.7467 83.0469 58.8602 87.5004 58.8602Z" fill="#1DAAF7"/>
<path d="M47.7824 78.6341C52.2358 78.6341 55.846 75.5207 55.846 71.6801C55.846 67.8395 52.2358 64.7261 47.7824 64.7261C43.3289 64.7261 39.7187 67.8395 39.7187 71.6801C39.7187 75.5207 43.3289 78.6341 47.7824 78.6341Z" fill="#1DAAF7"/>
<path d="M8.06366 58.8602C12.5171 58.8602 16.1273 55.7467 16.1273 51.9061C16.1273 48.0655 12.5171 44.9521 8.06366 44.9521C3.61022 44.9521 1.50599e-07 48.0655 1.50599e-07 51.9061C1.50599e-07 55.7467 3.61022 58.8602 8.06366 58.8602Z" fill="#1DAAF7"/>
<path d="M8.06366 137.963C12.5171 137.963 16.1273 134.85 16.1273 131.009C16.1273 127.168 12.5171 124.055 8.06366 124.055C3.61022 124.055 0 127.168 0 131.009C0 134.85 3.61022 137.963 8.06366 137.963Z" fill="#1DAAF7"/>
<path d="M166.936 58.8602C171.39 58.8602 175 55.7467 175 51.9061C175 48.0655 171.39 44.9521 166.936 44.9521C162.483 44.9521 158.873 48.0655 158.873 51.9061C158.873 55.7467 162.483 58.8602 166.936 58.8602Z" fill="#1DAAF7"/>
<path d="M166.936 137.963C171.39 137.963 175 134.85 175 131.009C175 127.168 171.39 124.055 166.936 124.055C162.483 124.055 158.873 127.168 158.873 131.009C158.873 134.85 162.483 137.963 166.936 137.963Z" fill="#1DAAF7"/>
<path d="M47.7824 118.186C52.2358 118.186 55.846 115.072 55.846 111.232C55.846 107.391 52.2358 104.278 47.7824 104.278C43.3289 104.278 39.7187 107.391 39.7187 111.232C39.7187 115.072 43.3289 118.186 47.7824 118.186Z" fill="#1DAAF7"/>
<path d="M87.5004 137.963C91.9538 137.963 95.564 134.85 95.564 131.009C95.564 127.168 91.9538 124.055 87.5004 124.055C83.0469 124.055 79.4367 127.168 79.4367 131.009C79.4367 134.85 83.0469 137.963 87.5004 137.963Z" fill="#1DAAF7"/>
<path d="M127.218 118.186C131.672 118.186 135.282 115.072 135.282 111.232C135.282 107.391 131.672 104.278 127.218 104.278C122.765 104.278 119.155 107.391 119.155 111.232C119.155 115.072 122.765 118.186 127.218 118.186Z" fill="#1DAAF7"/>
<path d="M87.4536 13.9081C91.907 13.9081 95.5173 10.7946 95.5173 6.95403C95.5173 3.11343 91.907 0 87.4536 0C83.0002 0 79.3899 3.11343 79.3899 6.95403C79.3899 10.7946 83.0002 13.9081 87.4536 13.9081Z" fill="#1DAAF7"/>
<path d="M87.3655 180C91.8189 180 95.4291 176.887 95.4291 173.046C95.4291 169.205 91.8189 166.092 87.3655 166.092C82.912 166.092 79.3018 169.205 79.3018 173.046C79.3018 176.887 82.912 180 87.3655 180Z" fill="#1DAAF7"/>
</svg>
