<svg width="93" height="96" viewBox="0 0 93 96" fill="none" xmlns="http://www.w3.org/2000/svg">
<path d="M56.9691 40.7301C56.6965 40.7301 56.4202 40.67 56.167 40.5435L49.9055 37.4145C49.1368 37.0305 48.8736 36.1798 49.3174 35.5146C49.7611 34.8493 50.7439 34.6214 51.5124 35.0056L57.7742 38.1346C58.5429 38.5186 58.806 39.3692 58.3623 40.0343C58.0647 40.4807 57.5244 40.7301 56.9691 40.7301Z" fill="#1DAAF7"/>
<path d="M31.8205 53.2973C30.9331 53.2973 30.2136 52.6746 30.2136 51.9066V45.6489C30.2136 44.8808 30.9331 44.2581 31.8205 44.2581C32.708 44.2581 33.4275 44.8808 33.4275 45.6489V51.9066C33.4275 52.6746 32.708 53.2973 31.8205 53.2973Z" fill="#1DAAF7"/>
<path d="M50.7107 62.7356C50.1553 62.7356 49.6152 62.4862 49.3176 62.0401C48.8738 61.3748 49.1372 60.5243 49.9057 60.1401L56.1674 57.0111C56.9361 56.6269 57.9188 56.8548 58.3627 57.5201C58.8064 58.1853 58.5431 59.0358 57.7746 59.4199L51.5126 62.549C51.2597 62.6754 50.9831 62.7356 50.7107 62.7356Z" fill="#1DAAF7"/>
<path d="M69.2144 39.0332L87.1994 30.0462L85.5925 27.6373L67.6077 36.6243L48.1071 26.8801V6.58914C48.1071 5.82106 47.3877 5.19835 46.5002 5.19835C45.6127 5.19835 44.8932 5.82106 44.8932 6.58914V26.8803L25.3929 36.6245L7.40829 27.6377L5.80134 30.0466L23.7862 39.0334V58.5214L5.80134 67.5082L7.40829 69.9171L25.3931 60.9303L44.8934 70.6743V90.9656C44.8934 91.7337 45.6129 92.3564 46.5004 92.3564C47.3879 92.3564 48.1073 91.7337 48.1073 90.9656V70.6745L67.6077 60.9303L85.5923 69.9171L87.1992 67.5082L69.2144 58.5214V39.0332ZM46.5002 68.2656L26.9999 58.5214V39.0332L46.5002 29.2892L66.0005 39.0334V58.5214L46.5002 68.2656Z" fill="#0676B3"/>
<path d="M67.6075 41.9382C69.9742 41.9382 71.8927 40.2777 71.8927 38.2294C71.8927 36.1811 69.9742 34.5206 67.6075 34.5206C65.2408 34.5206 63.3222 36.1811 63.3222 38.2294C63.3222 40.2777 65.2408 41.9382 67.6075 41.9382Z" fill="#1DAAF7"/>
<path d="M46.5002 31.3921C48.8669 31.3921 50.7854 29.7316 50.7854 27.6833C50.7854 25.635 48.8669 23.9745 46.5002 23.9745C44.1335 23.9745 42.2149 25.635 42.2149 27.6833C42.2149 29.7316 44.1335 31.3921 46.5002 31.3921Z" fill="#1DAAF7"/>
<path d="M25.3929 41.9382C27.7596 41.9382 29.6782 40.2777 29.6782 38.2294C29.6782 36.1811 27.7596 34.5206 25.3929 34.5206C23.0262 34.5206 21.1077 36.1811 21.1077 38.2294C21.1077 40.2777 23.0262 41.9382 25.3929 41.9382Z" fill="#1DAAF7"/>
<path d="M4.28526 31.3921C6.65194 31.3921 8.57052 29.7316 8.57052 27.6833C8.57052 25.635 6.65194 23.9745 4.28526 23.9745C1.91858 23.9745 8.00326e-08 25.635 8.00326e-08 27.6833C8.00326e-08 29.7316 1.91858 31.3921 4.28526 31.3921Z" fill="#1DAAF7"/>
<path d="M4.28526 73.5803C6.65194 73.5803 8.57052 71.9198 8.57052 69.8715C8.57052 67.8232 6.65194 66.1627 4.28526 66.1627C1.91858 66.1627 0 67.8232 0 69.8715C0 71.9198 1.91858 73.5803 4.28526 73.5803Z" fill="#1DAAF7"/>
<path d="M88.7147 31.3921C91.0814 31.3921 93 29.7316 93 27.6833C93 25.635 91.0814 23.9745 88.7147 23.9745C86.3481 23.9745 84.4295 25.635 84.4295 27.6833C84.4295 29.7316 86.3481 31.3921 88.7147 31.3921Z" fill="#1DAAF7"/>
<path d="M88.7147 73.5803C91.0814 73.5803 93 71.9198 93 69.8715C93 67.8232 91.0814 66.1627 88.7147 66.1627C86.3481 66.1627 84.4295 67.8232 84.4295 69.8715C84.4295 71.9198 86.3481 73.5803 88.7147 73.5803Z" fill="#1DAAF7"/>
<path d="M25.3929 63.0323C27.7596 63.0323 29.6782 61.3718 29.6782 59.3235C29.6782 57.2752 27.7596 55.6147 25.3929 55.6147C23.0262 55.6147 21.1077 57.2752 21.1077 59.3235C21.1077 61.3718 23.0262 63.0323 25.3929 63.0323Z" fill="#1DAAF7"/>
<path d="M46.5002 73.5803C48.8669 73.5803 50.7854 71.9198 50.7854 69.8715C50.7854 67.8232 48.8669 66.1627 46.5002 66.1627C44.1335 66.1627 42.2149 67.8232 42.2149 69.8715C42.2149 71.9198 44.1335 73.5803 46.5002 73.5803Z" fill="#1DAAF7"/>
<path d="M67.6075 63.0323C69.9742 63.0323 71.8927 61.3718 71.8927 59.3235C71.8927 57.2752 69.9742 55.6147 67.6075 55.6147C65.2408 55.6147 63.3222 57.2752 63.3222 59.3235C63.3222 61.3718 65.2408 63.0323 67.6075 63.0323Z" fill="#1DAAF7"/>
<path d="M46.4753 7.41763C48.842 7.41763 50.7606 5.75714 50.7606 3.70882C50.7606 1.66049 48.842 0 46.4753 0C44.1087 0 42.1901 1.66049 42.1901 3.70882C42.1901 5.75714 44.1087 7.41763 46.4753 7.41763Z" fill="#1DAAF7"/>
<path d="M46.4285 96C48.7952 96 50.7138 94.3395 50.7138 92.2912C50.7138 90.2429 48.7952 88.5824 46.4285 88.5824C44.0618 88.5824 42.1432 90.2429 42.1432 92.2912C42.1432 94.3395 44.0618 96 46.4285 96Z" fill="#1DAAF7"/>
</svg>
