<svg width="50" height="55" viewBox="0 0 50 55" fill="none" xmlns="http://www.w3.org/2000/svg">
<path d="M30.6286 23.3349C30.482 23.3349 30.3334 23.3005 30.1973 23.228L26.8309 21.4354C26.4176 21.2154 26.2761 20.728 26.5147 20.3469C26.7533 19.9657 27.2817 19.8352 27.6948 20.0553L31.0614 21.8479C31.4747 22.068 31.6161 22.5553 31.3776 22.9363C31.2176 23.1921 30.9271 23.3349 30.6286 23.3349Z" fill="#1DAAF7"/>
<path d="M17.1078 30.5349C16.6307 30.5349 16.2439 30.1782 16.2439 29.7381V26.153C16.2439 25.713 16.6307 25.3562 17.1078 25.3562C17.5849 25.3562 17.9718 25.713 17.9718 26.153V29.7381C17.9718 30.1782 17.5849 30.5349 17.1078 30.5349Z" fill="#1DAAF7"/>
<path d="M27.2638 35.9423C26.9652 35.9423 26.6748 35.7994 26.5148 35.5438C26.2763 35.1626 26.4179 34.6754 26.831 34.4553L30.1976 32.6626C30.6108 32.4425 31.1391 32.5731 31.3778 32.9542C31.6164 33.3354 31.4748 33.8226 31.0616 34.0426L27.6949 35.8354C27.559 35.9078 27.4103 35.9423 27.2638 35.9423Z" fill="#1DAAF7"/>
<path d="M37.2121 22.3628L46.8814 17.214L46.0175 15.8339L36.3482 20.9827L25.8641 15.4001V3.77503C25.8641 3.33498 25.4772 2.97822 25.0001 2.97822C24.523 2.97822 24.1362 3.33498 24.1362 3.77503V15.4002L13.6521 20.9828L3.98295 15.8341L3.119 17.2142L12.7883 22.3629V33.5279L3.119 38.6766L3.98295 40.0567L13.6522 34.908L24.1363 40.4905V52.1157C24.1363 52.5558 24.5231 52.9125 25.0002 52.9125C25.4773 52.9125 25.8642 52.5558 25.8642 52.1157V40.4906L36.3482 34.908L46.0174 40.0567L46.8813 38.6766L37.2121 33.5279V22.3628ZM25.0001 39.1105L14.5161 33.5279V22.3628L25.0001 16.7803L35.4842 22.3629V33.5279L25.0001 39.1105Z" fill="#0676B3"/>
<path d="M36.3481 24.0271C37.6205 24.0271 38.652 23.0758 38.652 21.9023C38.652 20.7287 37.6205 19.7774 36.3481 19.7774C35.0757 19.7774 34.0442 20.7287 34.0442 21.9023C34.0442 23.0758 35.0757 24.0271 36.3481 24.0271Z" fill="#1DAAF7"/>
<path d="M25.0001 17.9851C26.2725 17.9851 27.304 17.0337 27.304 15.8602C27.304 14.6867 26.2725 13.7354 25.0001 13.7354C23.7277 13.7354 22.6962 14.6867 22.6962 15.8602C22.6962 17.0337 23.7277 17.9851 25.0001 17.9851Z" fill="#1DAAF7"/>
<path d="M13.6521 24.0271C14.9245 24.0271 15.956 23.0758 15.956 21.9023C15.956 20.7287 14.9245 19.7774 13.6521 19.7774C12.3797 19.7774 11.3482 20.7287 11.3482 21.9023C11.3482 23.0758 12.3797 24.0271 13.6521 24.0271Z" fill="#1DAAF7"/>
<path d="M2.3039 17.9851C3.57631 17.9851 4.60781 17.0337 4.60781 15.8602C4.60781 14.6867 3.57631 13.7354 2.3039 13.7354C1.03149 13.7354 4.30283e-08 14.6867 4.30283e-08 15.8602C4.30283e-08 17.0337 1.03149 17.9851 2.3039 17.9851Z" fill="#1DAAF7"/>
<path d="M2.3039 42.1554C3.57631 42.1554 4.60781 41.2041 4.60781 40.0306C4.60781 38.857 3.57631 37.9057 2.3039 37.9057C1.03149 37.9057 0 38.857 0 40.0306C0 41.2041 1.03149 42.1554 2.3039 42.1554Z" fill="#1DAAF7"/>
<path d="M47.6961 17.9851C48.9685 17.9851 50 17.0337 50 15.8602C50 14.6867 48.9685 13.7354 47.6961 13.7354C46.4237 13.7354 45.3922 14.6867 45.3922 15.8602C45.3922 17.0337 46.4237 17.9851 47.6961 17.9851Z" fill="#1DAAF7"/>
<path d="M47.6961 42.1554C48.9685 42.1554 50 41.2041 50 40.0306C50 38.857 48.9685 37.9057 47.6961 37.9057C46.4237 37.9057 45.3922 38.857 45.3922 40.0306C45.3922 41.2041 46.4237 42.1554 47.6961 42.1554Z" fill="#1DAAF7"/>
<path d="M13.6521 36.1123C14.9245 36.1123 15.956 35.1609 15.956 33.9874C15.956 32.8139 14.9245 31.8626 13.6521 31.8626C12.3797 31.8626 11.3482 32.8139 11.3482 33.9874C11.3482 35.1609 12.3797 36.1123 13.6521 36.1123Z" fill="#1DAAF7"/>
<path d="M25.0001 42.1554C26.2725 42.1554 27.304 41.2041 27.304 40.0306C27.304 38.857 26.2725 37.9057 25.0001 37.9057C23.7277 37.9057 22.6962 38.857 22.6962 40.0306C22.6962 41.2041 23.7277 42.1554 25.0001 42.1554Z" fill="#1DAAF7"/>
<path d="M36.3481 36.1123C37.6205 36.1123 38.652 35.1609 38.652 33.9874C38.652 32.8139 37.6205 31.8626 36.3481 31.8626C35.0757 31.8626 34.0442 32.8139 34.0442 33.9874C34.0442 35.1609 35.0757 36.1123 36.3481 36.1123Z" fill="#1DAAF7"/>
<path d="M24.9867 4.24968C26.2591 4.24968 27.2906 3.29836 27.2906 2.12484C27.2906 0.951325 26.2591 0 24.9867 0C23.7143 0 22.6828 0.951325 22.6828 2.12484C22.6828 3.29836 23.7143 4.24968 24.9867 4.24968Z" fill="#1DAAF7"/>
<path d="M24.9616 55C26.234 55 27.2655 54.0487 27.2655 52.8752C27.2655 51.7016 26.234 50.7503 24.9616 50.7503C23.6892 50.7503 22.6577 51.7016 22.6577 52.8752C22.6577 54.0487 23.6892 55 24.9616 55Z" fill="#1DAAF7"/>
</svg>
