<svg width="250" height="141" viewBox="0 0 250 141" fill="none" xmlns="http://www.w3.org/2000/svg">
<path d="M81.2295 60.4331H95.7507V65.1778H88.8428V98.5155H81.2295V60.4331Z" fill="#0079C2"/>
<path d="M104.363 84.219L105.668 65.1778H106.105L107.409 84.219H104.363ZM95.9316 98.5155H103.386L104.091 88.4018H107.681L108.39 98.5155H115.841L111.87 60.4331H99.9022L95.9316 98.5155Z" fill="#0079C2"/>
<path d="M126.743 85.1867V92.3661C126.743 93.3338 127.493 93.6147 127.93 93.6147C128.648 93.6147 129.147 93.0216 129.147 92.3661V83.5011C129.147 82.3149 128.928 81.0038 126.088 81.0038H122.998V76.821H126.213C128.367 76.821 129.147 76.3216 129.147 73.9805V66.4264C129.147 65.7709 128.648 65.1778 127.93 65.1778C127.493 65.1778 126.743 65.4275 126.743 66.4264V72.6382H119.127V67.238C119.127 64.5847 119.439 60.4331 124.777 60.4331H131.082C136.42 60.4331 136.763 64.5847 136.763 67.238V73.3249C136.763 77.4765 133.86 78.6003 131.582 78.5066V78.8812C136.701 78.7564 136.763 82.6895 136.763 84.0317V91.7106C136.763 94.3951 136.42 98.5155 131.082 98.5155H124.777C119.439 98.5155 119.127 94.3951 119.127 91.7106V85.1867H126.743Z" fill="#0079C2"/>
<path d="M141.761 60.4331H159.397V98.5155H151.781V65.1778H149.377V98.5155H141.761V60.4331Z" fill="#0079C2"/>
<path d="M172.001 81.3784V65.1778H173C173.812 65.1778 174.405 65.8645 174.405 67.0819V79.4743C174.405 80.6917 173.812 81.3784 173 81.3784H172.001ZM164.385 98.5155H172.001V85.5612H176.371C181.678 85.5612 182.021 81.4408 182.021 78.7564V67.238C182.021 64.5847 181.678 60.4331 176.371 60.4331H164.385V98.5155Z" fill="#0079C2"/>
<path d="M197.038 92.3661C197.038 93.0216 196.538 93.6147 195.82 93.6147C195.383 93.6147 194.634 93.3338 194.634 92.3661V66.4264C194.634 65.4275 195.383 65.1778 195.82 65.1778C196.538 65.1778 197.038 65.7709 197.038 66.4264V92.3661ZM187.018 91.7106C187.018 94.3951 187.361 98.5155 192.667 98.5155H199.004C204.311 98.5155 204.654 94.3951 204.654 91.7106V67.238C204.654 64.5847 204.311 60.4331 199.004 60.4331H192.667C187.361 60.4331 187.018 64.5847 187.018 67.238V91.7106Z" fill="#0079C2"/>
<path d="M229.439 60.4331H239.365V98.5155H231.749V74.636H231.468L227.535 98.5155H221.448L217.546 74.636H217.265V98.5155H209.648V60.4331H219.544L224.507 87.2156L229.439 60.4331Z" fill="#0079C2"/>
<path d="M71.3623 20.3679C69.0306 10.1606 63.1871 1.85738 62.3818 0.515137C61.1082 2.41925 56.4478 9.75478 54.0785 17.8707C51.4908 26.9543 51.11 35.0078 52.0027 42.9052C52.8893 50.8338 56.2386 58.9809 56.2386 58.9809C58.0179 63.2262 60.6837 67.8148 62.4192 70.0623C64.9632 66.7535 70.8098 56.8895 72.6328 44.0289C73.6473 36.8495 73.691 30.5752 71.3623 20.3679ZM62.3818 67.5026C61.2362 65.3488 59.4569 61.2596 59.2883 54.8918C59.2446 48.7736 61.7013 43.4983 62.4192 42.4057C63.0591 43.4983 65.1755 48.0869 65.4284 54.3611C65.6 60.4793 63.5648 65.3176 62.3818 67.5026ZM70.685 37.6922C70.5976 41.5941 70.1325 45.7145 69.5394 48.1805C69.7516 43.9353 69.2428 37.9732 68.2689 33.2909C67.295 28.6399 64.5387 20.8361 62.3381 17.2464C60.306 20.6801 57.8025 27.4225 56.4915 33.2597C55.1742 39.0969 55.1367 46.1828 55.1367 48.3054C54.7871 46.5261 53.9131 40.127 54.1597 33.7279C54.3657 28.4526 55.6018 22.99 56.2792 20.4928C58.8638 12.1584 61.7887 6.82058 62.3381 5.97776C62.8874 6.82058 66.5708 13.4069 68.4812 20.3055C70.3822 27.204 70.7661 33.8216 70.685 37.6922Z" fill="#0079C2"/>
<path d="M48.6076 72.4335V84.3264C48.6232 84.3264 48.6357 84.2952 48.6513 84.2952C52.8279 80.1124 59.6015 80.1124 63.7812 84.2952C67.9578 88.4468 67.9578 95.2205 63.7812 99.4033C63.7625 99.4345 63.7438 99.4345 63.7251 99.4657C63.7032 99.4657 63.6814 99.497 63.6626 99.5282C59.4954 103.649 54.0515 105.709 48.6076 105.709C43.1387 105.709 37.6699 103.649 33.4995 99.4657C26.1452 92.1302 25.2744 80.7367 30.8806 72.4335C31.636 71.3098 32.5069 70.2484 33.4995 69.2496C37.6699 65.0667 43.1387 63.0065 48.6076 63.0065V34.4136C27.5936 34.4136 10.5596 51.4258 10.5596 72.4335C10.5596 93.4412 27.5936 110.485 48.6076 110.485C59.5641 110.485 69.4343 105.834 76.3765 98.4356V72.4335H48.6076Z" fill="#0079C2"/>
</svg>
