<svg width="229" height="81" viewBox="0 0 229 81" fill="none" xmlns="http://www.w3.org/2000/svg">
<g clip-path="url(#clip0_4539_23233)">
<path d="M46.8943 46.2C45.7807 47.4292 44.3277 48.3007 42.7189 48.7044C41.1102 49.1081 39.4179 49.0258 37.8559 48.468C36.2939 47.9102 34.9323 46.9019 33.9431 45.5705C32.954 44.2391 32.3817 42.6444 32.2986 40.9878C32.2155 39.3313 32.6254 37.6873 33.4763 36.2636C34.3273 34.8399 35.5811 33.7004 37.0795 32.9891C38.5779 32.2778 40.2534 32.0266 41.8945 32.2673C43.5356 32.5079 45.0685 33.2297 46.2995 34.3413C47.1194 35.0795 47.7855 35.9724 48.2593 36.9687C48.7332 37.965 49.0056 39.0452 49.0609 40.1471C49.1162 41.249 48.9532 42.3509 48.5814 43.3897C48.2096 44.4284 47.6362 45.3835 46.8943 46.2Z" fill="url(#paint0_radial_4539_23233)"/>
<path d="M42.8675 11.8259C43.5615 12.5199 44.2182 13.2262 44.8006 13.9325C46.8271 16.3501 48.4963 19.0459 49.7572 21.9375C51.7461 22.3084 53.7709 22.4498 55.7919 22.3588H56.1513H56.4735C61.9946 21.8543 67.1476 19.3724 70.984 15.3699L71.4921 14.8495C70.7238 13.9325 69.9431 13.0403 69.0881 12.1853C62.2634 5.38467 53.2194 1.26682 43.609 0.584267C33.9986 -0.0982903 24.4635 2.70002 16.7461 8.46783C29.0138 2.49509 37.5268 6.60909 42.8675 11.8259Z" fill="url(#paint1_linear_4539_23233)"/>
<path d="M14.4653 52.5447C14.7131 51.5906 14.9981 50.6736 15.3079 49.8186C16.3945 46.8578 17.8965 44.0665 19.7689 41.5286C19.0987 39.6226 18.2087 37.8012 17.1171 36.1011L16.9188 35.7913L16.733 35.5311C13.5536 31.0459 8.87114 27.8495 3.53593 26.5224L2.82961 26.3118C2.42069 27.427 2.04894 28.5546 1.72676 29.7195C-0.756056 39.027 0.192529 48.9171 4.39922 57.583C8.60591 66.2489 15.7899 73.1122 24.6388 76.919C13.3005 69.2362 12.5942 59.769 14.4653 52.5447Z" fill="url(#paint2_linear_4539_23233)"/>
<path d="M64.0442 56.8446C63.09 57.1048 62.1483 57.3155 61.2437 57.4766C58.1375 58.0144 54.9705 58.1062 51.8385 57.7492C50.5278 59.2661 49.3968 60.9293 48.468 62.7058C48.468 62.8173 48.3564 62.9165 48.3069 63.028C48.2564 63.1247 48.2109 63.224 48.1706 63.3254C45.8519 68.3235 45.412 73.9897 46.9314 79.2857C46.9314 79.5212 47.0677 79.7566 47.1421 79.9921C48.3069 79.7814 49.4841 79.5583 50.6489 79.2486C59.9342 76.736 68.0089 70.9732 73.4033 63.0089C78.7978 55.0445 81.1535 45.4081 80.0417 35.8533C79.0504 49.5212 71.2065 54.8496 64.0442 56.8446Z" fill="url(#paint3_linear_4539_23233)"/>
<path d="M16.6841 8.46769C10.8094 12.5722 6.21676 18.2561 3.4375 24.8617C7.5698 25.7343 11.3979 27.6839 14.5338 30.5129C17.6697 33.3419 20.0018 36.9498 21.2938 40.9708C22.3966 40.2645 25.7919 37.5755 28.0719 30.1901C30.8353 21.2558 36.0645 14.6635 42.8675 11.7886C42.8675 11.8258 34.2553 -0.429459 16.6841 8.46769Z" fill="url(#paint4_linear_4539_23233)"/>
<path d="M44.2677 72.7925C44.2628 66.8056 46.5048 61.0349 50.5502 56.6215L50.6122 56.5348C49.7819 55.655 46.8947 53.4988 39.4597 55.1841C30.4015 57.2535 20.3395 57.018 14.4659 52.5447C14.4659 52.5447 8.14624 66.1754 24.6394 76.8941C31.1212 79.9306 38.3304 81.0691 45.4325 80.1779C44.6416 77.7967 44.248 75.3015 44.2677 72.7925Z" fill="url(#paint5_linear_4539_23233)"/>
<path d="M72.4708 16.1877C70.2521 18.7094 67.5226 20.7306 64.4633 22.1171C61.404 23.5036 58.0849 24.2238 54.7261 24.2299C52.9562 24.2236 51.1916 24.0367 49.4597 23.6723H49.3729C49.026 24.9114 48.7533 28.443 53.7719 33.8457C60.1288 40.7107 64.9243 49.5335 64.0445 56.8569C64.0445 56.8569 78.9144 55.531 80.0421 35.8656C79.428 28.7227 76.8029 21.9 72.4708 16.1877Z" fill="url(#paint6_linear_4539_23233)"/>
<path d="M98.5422 50.7355H94.3662V31.2683H101.07C106.027 31.2683 109.05 33.3005 109.05 37.7739C109.05 42.2472 105.878 44.6512 100.723 44.6512H98.5422V50.7355ZM98.4554 40.9709H100.723C103.201 40.9709 104.726 40.0044 104.726 37.9474C104.726 35.8904 103.325 34.9486 100.723 34.9486H98.4554V40.9709Z" fill="white"/>
<path d="M112.086 41.0079C112.086 34.4652 116.064 30.9336 121.429 30.9336C127.439 30.9336 130.921 34.7502 130.921 41.0079C130.921 47.9348 126.881 51.0699 121.541 51.0699C115.903 51.0699 112.086 47.5879 112.086 41.0079ZM126.497 41.0079C126.497 36.5842 124.465 34.6139 121.429 34.6139C118.678 34.6139 116.473 36.6709 116.473 41.0079C116.473 45.345 118.728 47.402 121.652 47.402C124.577 47.402 126.497 45.3698 126.497 41.0079Z" fill="white"/>
<path d="M149.484 49.9548C147.858 50.7858 146.041 51.1706 144.218 51.07C138.27 51.07 134.305 47.65 134.305 41.2559C134.305 34.5521 138.22 30.9337 144.59 30.9337C146.287 30.8944 147.975 31.2066 149.546 31.8507L148.629 35.3575C147.532 34.9997 146.388 34.8035 145.234 34.7751C141.393 34.7751 138.778 36.6958 138.778 40.9709C138.778 45.0849 141.256 47.1667 145.209 47.1667C146.393 47.1285 147.56 46.8766 148.654 46.4232L149.484 49.9548Z" fill="white"/>
<path d="M164.751 45.5434H156.486L154.602 50.7355H152.124L159.559 31.2683H162.037L169.324 50.7355H166.709L164.751 45.5434ZM157.242 43.2634H163.921L160.674 34.106H160.563L157.242 43.2634Z" fill="white"/>
<path d="M177.923 50.7355H175.445V33.6103H169.683V31.2683H183.698V33.6103H177.923V50.7355Z" fill="white"/>
<path d="M186.324 41.008C186.324 34.8122 189.918 30.9956 194.998 30.9956C200.785 30.9956 203.895 35.1096 203.895 41.008C203.895 47.6251 200.178 51.0204 195.085 51.0204C189.744 51.0204 186.324 47.179 186.324 41.008ZM201.293 41.008C201.293 35.6672 198.902 33.3252 195.097 33.3252C191.677 33.3252 189.038 35.8035 189.038 41.008C189.038 46.2125 191.591 48.6784 195.432 48.6784C199.038 48.6784 201.293 46.039 201.293 41.008Z" fill="white"/>
<path d="M228.134 50.7355H225.655L224.416 35.531L219.459 50.7355H216.845L211.963 35.5806L210.723 50.7355H208.245L209.906 31.2683H212.966L218.22 48.0093L223.4 31.2683H226.461L228.134 50.7355Z" fill="white"/>
</g>
<defs>
<radialGradient id="paint0_radial_4539_23233" cx="0" cy="0" r="1" gradientUnits="userSpaceOnUse" gradientTransform="translate(38.0576 34.6481) scale(11.7815 11.7815)">
<stop stop-color="#4495D1"/>
<stop offset="1" stop-color="#15256D"/>
</radialGradient>
<linearGradient id="paint1_linear_4539_23233" x1="29.1873" y1="3.19789" x2="64.4463" y2="17.3926" gradientUnits="userSpaceOnUse">
<stop stop-color="#4495D1"/>
<stop offset="1" stop-color="#15256D"/>
</linearGradient>
<linearGradient id="paint2_linear_4539_23233" x1="13.863" y1="68.7509" x2="8.53844" y2="31.1216" gradientUnits="userSpaceOnUse">
<stop stop-color="#4495D1"/>
<stop offset="1" stop-color="#15256D"/>
</linearGradient>
<linearGradient id="paint3_linear_4539_23233" x1="78.3873" y1="49.2787" x2="48.4648" y2="72.7165" gradientUnits="userSpaceOnUse">
<stop stop-color="#4495D1"/>
<stop offset="1" stop-color="#15256D"/>
</linearGradient>
<linearGradient id="paint4_linear_4539_23233" x1="15.0732" y1="30.1777" x2="30.922" y2="5.85307" gradientUnits="userSpaceOnUse">
<stop stop-color="#4495D1"/>
<stop offset="1" stop-color="#15256D"/>
</linearGradient>
<linearGradient id="paint5_linear_4539_23233" x1="45.0607" y1="64.8495" x2="16.6345" y2="67.7491" gradientUnits="userSpaceOnUse">
<stop stop-color="#4495D1"/>
<stop offset="1" stop-color="#15256D"/>
</linearGradient>
<linearGradient id="paint6_linear_4539_23233" x1="63.363" y1="23.7342" x2="69.1499" y2="52.9907" gradientUnits="userSpaceOnUse">
<stop stop-color="#4495D1"/>
<stop offset="1" stop-color="#15256D"/>
</linearGradient>
<clipPath id="clip0_4539_23233">
<rect width="227.782" height="80" fill="white" transform="translate(0.351562 0.5)"/>
</clipPath>
</defs>
</svg>
