<svg width="234" height="80" viewBox="0 0 234 80" fill="none" xmlns="http://www.w3.org/2000/svg">
<g clip-path="url(#clip0_4539_23153)">
<path d="M115.604 32.4275C115.604 31.6453 115.476 30.9652 115.219 30.3861C114.96 29.8064 114.569 29.3343 114.043 28.9679C113.587 28.6549 113.054 28.4287 112.449 28.297C111.84 28.1648 111.084 28.1005 110.18 28.1005H107.788V37.1697H109.758C110.924 37.1697 111.867 37.0711 112.585 36.8732C113.305 36.6739 113.903 36.3225 114.38 35.8122C114.806 35.3554 115.118 34.8579 115.312 34.3199C115.508 33.7796 115.604 33.1522 115.604 32.4275ZM118.609 32.3526C118.609 33.3383 118.441 34.2707 118.104 35.1491C117.769 36.0291 117.306 36.7789 116.713 37.3968C115.963 38.1692 115.084 38.7564 114.074 39.1525C113.062 39.5478 111.784 39.7467 110.239 39.7467H107.788V48.2071H104.903V25.5083H110.355C111.637 25.5083 112.732 25.6189 113.635 25.8429C114.54 26.0673 115.336 26.429 116.028 26.9265C116.833 27.5045 117.467 28.238 117.924 29.128C118.379 30.0179 118.609 31.0927 118.609 32.3526Z" fill="white"/>
<path d="M115.604 32.4275C115.604 31.6453 115.476 30.9652 115.219 30.3861C114.96 29.8064 114.569 29.3343 114.043 28.9679C113.587 28.6549 113.054 28.4287 112.449 28.297C111.84 28.1648 111.084 28.1005 110.18 28.1005H107.788V37.1697H109.758C110.924 37.1697 111.867 37.0711 112.585 36.8732C113.305 36.6739 113.903 36.3225 114.38 35.8122C114.806 35.3554 115.118 34.8579 115.312 34.3199C115.508 33.7796 115.604 33.1522 115.604 32.4275ZM118.609 32.3526C118.609 33.3383 118.441 34.2707 118.104 35.1491C117.769 36.0291 117.306 36.7789 116.713 37.3968C115.963 38.1692 115.084 38.7564 114.074 39.1525C113.062 39.5478 111.784 39.7467 110.239 39.7467H107.788V48.2071H104.903V25.5083H110.355C111.637 25.5083 112.732 25.6189 113.635 25.8429C114.54 26.0673 115.336 26.429 116.028 26.9265C116.833 27.5045 117.467 28.238 117.924 29.128C118.379 30.0179 118.609 31.0927 118.609 32.3526Z" stroke="white" stroke-width="1.25" stroke-miterlimit="10"/>
<path d="M135.912 33.3997L127.151 53.6673H124.219L127.135 47.4897L121.214 33.3997H124.174L128.622 44.3618L133.054 33.3997H135.912Z" fill="white"/>
<path d="M135.912 33.3997L127.151 53.6673H124.219L127.135 47.4897L121.214 33.3997H124.174L128.622 44.3618L133.054 33.3997H135.912Z" stroke="white" stroke-width="1.25" stroke-miterlimit="10"/>
<path d="M145.209 48.5369C144.093 48.5369 143.065 48.3786 142.131 48.0677C141.2 47.7536 140.397 47.277 139.727 46.6421C139.058 46.0054 138.536 45.2024 138.168 44.2354C137.797 43.2666 137.611 42.1289 137.611 40.8238C137.611 39.5229 137.804 38.4004 138.189 37.4553C138.573 36.5103 139.085 35.7153 139.727 35.0694C140.367 34.4264 141.168 33.9272 142.127 33.5799C143.082 33.2287 144.11 33.0552 145.209 33.0552C146.104 33.0552 146.967 33.1682 147.798 33.3997C148.629 33.6293 149.368 33.8947 150.019 34.1946V36.9933H149.86C149.667 36.8413 149.418 36.6686 149.11 36.4742C148.803 36.2806 148.432 36.0824 147.996 35.8781C147.618 35.7015 147.168 35.5478 146.652 35.4139C146.137 35.2822 145.641 35.216 145.165 35.216C143.747 35.216 142.608 35.7044 141.745 36.6802C140.886 37.657 140.455 39.0374 140.455 40.8238C140.455 42.5738 140.874 43.9361 141.703 44.9119C142.533 45.8878 143.688 46.3765 145.165 46.3765C146.061 46.3765 146.909 46.21 147.718 45.8733C148.525 45.5387 149.239 45.1056 149.86 44.5728H150.019V47.3703C149.749 47.4852 149.408 47.6243 149 47.7882C148.594 47.9536 148.223 48.0731 147.891 48.1525C147.428 48.2766 147.008 48.3723 146.639 48.4394C146.269 48.5027 145.792 48.5369 145.209 48.5369Z" fill="white"/>
<path d="M145.209 48.5369C144.093 48.5369 143.065 48.3786 142.131 48.0677C141.2 47.7536 140.397 47.277 139.727 46.6421C139.058 46.0054 138.536 45.2024 138.168 44.2354C137.797 43.2666 137.611 42.1289 137.611 40.8238C137.611 39.5229 137.804 38.4004 138.189 37.4553C138.573 36.5103 139.085 35.7153 139.727 35.0694C140.367 34.4264 141.168 33.9272 142.127 33.5799C143.082 33.2287 144.11 33.0552 145.209 33.0552C146.104 33.0552 146.967 33.1682 147.798 33.3997C148.629 33.6293 149.368 33.8947 150.019 34.1946V36.9933H149.86C149.667 36.8413 149.418 36.6686 149.11 36.4742C148.803 36.2806 148.432 36.0824 147.996 35.8781C147.618 35.7015 147.168 35.5478 146.652 35.4139C146.137 35.2822 145.641 35.216 145.165 35.216C143.747 35.216 142.608 35.7044 141.745 36.6802C140.886 37.657 140.455 39.0374 140.455 40.8238C140.455 42.5738 140.874 43.9361 141.703 44.9119C142.533 45.8878 143.688 46.3765 145.165 46.3765C146.061 46.3765 146.909 46.21 147.718 45.8733C148.525 45.5387 149.239 45.1056 149.86 44.5728H150.019V47.3703C149.749 47.4852 149.408 47.6243 149 47.7882C148.594 47.9536 148.223 48.0731 147.891 48.1525C147.428 48.2766 147.008 48.3723 146.639 48.4394C146.269 48.5027 145.792 48.5369 145.209 48.5369Z" stroke="white" stroke-width="1.25" stroke-miterlimit="10"/>
<path d="M167.024 28.192H157.036V48.2071H154.149V25.5083H167.024V28.192Z" fill="white"/>
<path d="M167.024 28.192H157.036V48.2071H154.149V25.5083H167.024V28.192Z" stroke="white" stroke-width="1.25" stroke-miterlimit="10"/>
<path d="M178.94 48.2069H176.225V37.1642L168.557 48.2069H166.077V33.3997H168.79V44.2689L176.373 33.3997H178.94V48.2069Z" fill="white"/>
<path d="M178.94 48.2069H176.225V37.1642L168.557 48.2069H166.077V33.3997H168.79V44.2689L176.373 33.3997H178.94V48.2069Z" stroke="white" stroke-width="1.25" stroke-miterlimit="10"/>
<path d="M193.768 46.0842V35.4944H189.102C188.976 37.7033 188.643 39.7193 188.102 41.5462C187.564 43.369 186.886 44.883 186.068 46.0842H193.768ZM198.128 51.758H195.575V48.1663H184.844V51.758H182.292V46.0842H183.372C184.295 44.7067 185.05 42.9058 185.638 40.6842C186.228 38.4601 186.52 36.0336 186.52 33.3997H196.509V46.0842H198.128V51.758Z" fill="white"/>
<path d="M193.768 46.0842V35.4944H189.102C188.976 37.7033 188.643 39.7193 188.102 41.5462C187.564 43.369 186.886 44.883 186.068 46.0842H193.768ZM198.128 51.758H195.575V48.1663H184.844V51.758H182.292V46.0842H183.372C184.295 44.7067 185.05 42.9058 185.638 40.6842C186.228 38.4601 186.52 36.0336 186.52 33.3997H196.509V46.0842H198.128V51.758Z" stroke="white" stroke-width="1.25" stroke-miterlimit="10"/>
<path d="M204.904 35.67V45.7097C205.624 46.0287 206.24 45.9711 206.75 46.0842C207.259 46.1979 207.846 46.2587 208.504 46.2587C209.925 46.2587 211.031 45.7839 211.817 44.8388C212.603 43.8926 212.998 42.5098 212.998 40.6899C212.998 39.0028 212.702 38.2414 212.109 37.309C211.516 36.3762 210.552 35.9106 209.22 35.9106L204.904 35.67ZM209.891 33.5371C211.758 33.5371 213.214 34.2073 214.259 35.5524C215.303 36.8956 215.825 38.1499 215.825 40.4121C215.825 42.8775 215.177 44.8405 213.879 46.3047C212.583 47.7656 210.941 48.498 208.958 48.498C208.153 48.498 207.437 48.6888 206.817 48.5199C206.194 48.3524 205.557 48.6419 204.904 48.2875V53.6673H202.163V33.3997H204.904L209.891 33.5371Z" fill="white"/>
<path d="M204.904 35.67V45.7097C205.624 46.0287 206.24 45.9711 206.75 46.0842C207.259 46.1979 207.846 46.2587 208.504 46.2587C209.925 46.2587 211.031 45.7839 211.817 44.8388C212.603 43.8926 212.998 42.5098 212.998 40.6899C212.998 39.0028 212.702 38.2414 212.109 37.309C211.516 36.3762 210.552 35.9106 209.22 35.9106L204.904 35.67ZM209.891 33.5371C211.758 33.5371 213.214 34.2073 214.259 35.5524C215.303 36.8956 215.825 38.1499 215.825 40.4121C215.825 42.8775 215.177 44.8405 213.879 46.3047C212.583 47.7656 210.941 48.498 208.958 48.498C208.153 48.498 207.437 48.6888 206.817 48.5199C206.194 48.3524 205.557 48.6419 204.904 48.2875V53.6673H202.163V33.3997H204.904L209.891 33.5371Z" stroke="white" stroke-width="1.25" stroke-miterlimit="10"/>
<path d="M230.691 40.81C230.691 38.8908 230.309 37.4674 229.54 36.5346C228.771 35.6011 227.68 35.1372 226.259 35.1372C224.83 35.1372 223.731 35.6011 222.957 36.5346C222.183 37.4674 221.798 38.8908 221.798 40.81C221.798 42.6635 222.183 44.0717 222.957 45.0296C223.731 45.9909 224.83 46.4693 226.259 46.4693C227.668 46.4693 228.76 45.9991 229.533 45.0575C230.305 44.1169 230.691 42.6995 230.691 40.81ZM233.52 40.81C233.52 43.3012 232.861 45.2249 231.537 46.5835C230.216 47.9391 228.458 48.6157 226.259 48.6157C223.993 48.6157 222.213 47.9165 220.916 46.5156C219.617 45.1144 218.969 43.2132 218.969 40.81C218.969 38.3347 219.638 36.4144 220.973 35.0433C222.31 33.6721 224.073 32.9873 226.259 32.9873C228.458 32.9873 230.216 33.6703 231.537 35.0351C232.861 36.4007 233.52 38.3266 233.52 40.81Z" fill="white"/>
<path d="M230.691 40.81C230.691 38.8908 230.309 37.4674 229.54 36.5346C228.771 35.6011 227.68 35.1372 226.259 35.1372C224.83 35.1372 223.731 35.6011 222.957 36.5346C222.183 37.4674 221.798 38.8908 221.798 40.81C221.798 42.6635 222.183 44.0717 222.957 45.0296C223.731 45.9909 224.83 46.4693 226.259 46.4693C227.668 46.4693 228.76 45.9991 229.533 45.0575C230.305 44.1169 230.691 42.6995 230.691 40.81ZM233.52 40.81C233.52 43.3012 232.861 45.2249 231.537 46.5835C230.216 47.9391 228.458 48.6157 226.259 48.6157C223.993 48.6157 222.213 47.9165 220.916 46.5156C219.617 45.1144 218.969 43.2132 218.969 40.81C218.969 38.3347 219.638 36.4144 220.973 35.0433C222.31 33.6721 224.073 32.9873 226.259 32.9873C228.458 32.9873 230.216 33.6703 231.537 35.0351C232.861 36.4007 233.52 38.3266 233.52 40.81Z" stroke="white" stroke-width="1.25" stroke-miterlimit="10"/>
<mask id="mask0_4539_23153" style="mask-type:luminance" maskUnits="userSpaceOnUse" x="14" y="61" width="31" height="19">
<path d="M14.5098 66.351L19.2271 61.5417C19.2271 61.5417 27.007 67.4851 32.2487 69.4071C37.4944 71.3298 41.2525 77.2725 41.2525 77.2725C41.2525 77.2725 50.0782 79.2838 37.0555 79.5453C24.0346 79.8085 16.8681 73.4291 16.8681 73.4291L14.5098 66.351Z" fill="white"/>
</mask>
<g mask="url(#mask0_4539_23153)">
<path d="M14.5098 66.351L19.2271 61.5417C19.2271 61.5417 27.007 67.4851 32.2487 69.4071C37.4944 71.3298 41.2525 77.2725 41.2525 77.2725C41.2525 77.2725 50.0782 79.2838 37.0555 79.5453C24.0346 79.8085 16.8681 73.4291 16.8681 73.4291L14.5098 66.351Z" fill="url(#paint0_radial_4539_23153)"/>
</g>
<mask id="mask1_4539_23153" style="mask-type:luminance" maskUnits="userSpaceOnUse" x="1" y="12" width="77" height="60">
<path d="M7.16723 38.3825C7.16723 38.3825 -5.59328 29.2942 6.73054 20.1156L18.5275 12.8628C18.5275 12.8628 19.7521 19.8545 48.5064 31.1269C77.2591 42.4011 76.3839 46.4217 76.91 47.7339C77.4357 49.0447 77.871 54.7245 73.1529 60.6672C68.4316 66.6112 59.6939 71.1562 59.6939 71.1562C59.6939 71.1562 61.7039 66.0866 54.973 61.6286C48.2449 57.1729 33.7358 50.6194 28.9312 48.5217C24.1205 46.4217 7.16723 38.3825 7.16723 38.3825Z" fill="white"/>
</mask>
<g mask="url(#mask1_4539_23153)">
<path d="M7.16723 38.3825C7.16723 38.3825 -5.59328 29.2942 6.73054 20.1156L18.5275 12.8628C18.5275 12.8628 19.7521 19.8545 48.5064 31.1269C77.2591 42.4011 76.3839 46.4217 76.91 47.7339C77.4357 49.0447 77.871 54.7245 73.1529 60.6672C68.4316 66.6112 59.6939 71.1562 59.6939 71.1562C59.6939 71.1562 61.7039 66.0866 54.973 61.6286C48.2449 57.1729 33.7358 50.6194 28.9312 48.5217C24.1205 46.4217 7.16723 38.3825 7.16723 38.3825Z" fill="url(#paint1_radial_4539_23153)"/>
</g>
<mask id="mask2_4539_23153" style="mask-type:luminance" maskUnits="userSpaceOnUse" x="36" y="0" width="30" height="16">
<path d="M39.8525 0.275057C39.8525 0.275057 55.4105 0.712729 62.0528 7.17909C68.6947 13.6478 62.2277 13.3857 61.4419 14.347C60.6544 15.3077 57.07 15.9207 57.07 15.9207C57.07 15.9207 45.0101 11.2005 37.055 3.42263C35.5704 1.06294 39.8525 0.275057 39.8525 0.275057Z" fill="white"/>
</mask>
<g mask="url(#mask2_4539_23153)">
<path d="M39.8525 0.275057C39.8525 0.275057 55.4105 0.712729 62.0528 7.17909C68.6947 13.6478 62.2277 13.3857 61.4419 14.347C60.6544 15.3077 57.07 15.9207 57.07 15.9207C57.07 15.9207 45.0101 11.2005 37.055 3.42263C35.5704 1.06294 39.8525 0.275057 39.8525 0.275057Z" fill="url(#paint2_radial_4539_23153)"/>
</g>
<mask id="mask3_4539_23153" style="mask-type:luminance" maskUnits="userSpaceOnUse" x="0" y="5" width="79" height="69">
<path d="M60.886 5.99052C60.886 5.99052 64.6417 10.4397 58.5555 14.2618C36.8803 28.2434 16.9553 28.5056 0 45.2864C0 56.7351 12.2366 71.0664 17.0437 73.6904C17.0437 73.6904 13.6335 69.3217 20.3641 64.9506C27.0929 60.5809 44.1355 53.327 49.7299 51.2294C55.3231 49.1304 67.9945 43.4513 71.2288 40.916C74.463 38.3824 76.2973 37.5938 78.2197 33.3996C76.2112 20.7264 69.7417 11.7241 60.886 5.99052Z" fill="white"/>
</mask>
<g mask="url(#mask3_4539_23153)">
<path d="M60.886 5.99052C60.886 5.99052 64.6417 10.4397 58.5555 14.2618C36.8803 28.2434 16.9553 28.5056 0 45.2864C0 56.7351 12.2366 71.0664 17.0437 73.6904C17.0437 73.6904 13.6335 69.3217 20.3641 64.9506C27.0929 60.5809 44.1355 53.327 49.7299 51.2294C55.3231 49.1304 67.9945 43.4513 71.2288 40.916C74.463 38.3824 76.2973 37.5938 78.2197 33.3996C76.2112 20.7264 69.7417 11.7241 60.886 5.99052Z" fill="url(#paint3_radial_4539_23153)"/>
</g>
<mask id="mask4_4539_23153" style="mask-type:luminance" maskUnits="userSpaceOnUse" x="37" y="55" width="40" height="25">
<path d="M76.1255 55.4248C76.1255 55.4248 66.5985 64.3409 53.6624 70.108C41.2308 75.6504 38.8043 77.7109 37.4062 79.3697C37.5814 80.1575 38.4563 79.9837 39.4176 79.9837C40.3786 79.9837 49.9933 79.1979 58.2943 74.9144C66.5985 70.6326 72.1918 64.6882 76.1255 55.4248Z" fill="white"/>
</mask>
<g mask="url(#mask4_4539_23153)">
<path d="M76.1255 55.4248C76.1255 55.4248 66.5985 64.3409 53.6624 70.108C41.2308 75.6504 38.8043 77.7109 37.4062 79.3697C37.5814 80.1575 38.4563 79.9837 39.4176 79.9837C40.3786 79.9837 49.9933 79.1979 58.2943 74.9144C66.5985 70.6326 72.1918 64.6882 76.1255 55.4248Z" fill="url(#paint4_radial_4539_23153)"/>
</g>
<mask id="mask5_4539_23153" style="mask-type:luminance" maskUnits="userSpaceOnUse" x="1" y="0" width="41" height="26">
<path d="M41.2519 0.0130367C37.8439 -0.0738831 12.0618 -0.424725 1.92285 25.7959C1.92285 25.7959 10.0373 16.7522 21.0621 11.8136C32.7739 6.56876 44.6596 0.101767 41.2519 0.0130367Z" fill="white"/>
</mask>
<g mask="url(#mask5_4539_23153)">
<path d="M41.2519 0.0130367C37.8439 -0.0738831 12.0618 -0.424725 1.92285 25.7959C1.92285 25.7959 10.0373 16.7522 21.0621 11.8136C32.7739 6.56876 44.6596 0.101767 41.2519 0.0130367Z" fill="url(#paint5_radial_4539_23153)"/>
</g>
</g>
<defs>
<radialGradient id="paint0_radial_4539_23153" cx="0" cy="0" r="1" gradientUnits="userSpaceOnUse" gradientTransform="translate(2.44453 79.0541) scale(1.22703)">
<stop stop-color="#F57D14"/>
<stop offset="1" stop-color="#F2521B"/>
</radialGradient>
<radialGradient id="paint1_radial_4539_23153" cx="0" cy="0" r="1" gradientUnits="userSpaceOnUse" gradientTransform="translate(3.43963 76.2003) scale(3.38242)">
<stop stop-color="#F57D14"/>
<stop offset="1" stop-color="#F2521B"/>
</radialGradient>
<radialGradient id="paint2_radial_4539_23153" cx="0" cy="0" r="1" gradientUnits="userSpaceOnUse" gradientTransform="translate(4.59795 72.809) scale(1.14261)">
<stop stop-color="#F57D14"/>
<stop offset="1" stop-color="#F2521B"/>
</radialGradient>
<radialGradient id="paint3_radial_4539_23153" cx="0" cy="0" r="1" gradientUnits="userSpaceOnUse" gradientTransform="translate(4.65381 74.5846) scale(5.70844)">
<stop stop-color="#576EBE"/>
<stop offset="0.563636" stop-color="#293D9B"/>
<stop offset="0.678788" stop-color="#2B2F7F"/>
<stop offset="0.90303" stop-color="#293D9B"/>
<stop offset="1" stop-color="#576EBE"/>
</radialGradient>
<radialGradient id="paint4_radial_4539_23153" cx="0" cy="0" r="1" gradientUnits="userSpaceOnUse" gradientTransform="translate(4.30995 78.357) scale(1.99916)">
<stop stop-color="#2B2F7F"/>
<stop offset="0.661236" stop-color="#293D9B"/>
<stop offset="1" stop-color="#576EBE"/>
</radialGradient>
<radialGradient id="paint5_radial_4539_23153" cx="0" cy="0" r="1" gradientUnits="userSpaceOnUse" gradientTransform="translate(4.65363 74.5848) scale(5.70855)">
<stop stop-color="#576EBE"/>
<stop offset="0.563636" stop-color="#293D9B"/>
<stop offset="0.678788" stop-color="#2B2F7F"/>
<stop offset="0.90303" stop-color="#293D9B"/>
<stop offset="1" stop-color="#576EBE"/>
</radialGradient>
<clipPath id="clip0_4539_23153">
<rect width="233.977" height="80" fill="white"/>
</clipPath>
</defs>
</svg>
