<svg width="365" height="71" viewBox="0 0 365 71" fill="none" xmlns="http://www.w3.org/2000/svg">
<g clip-path="url(#clip0_4539_23248)">
<path d="M29.9643 56.6728C19.5308 51.8538 12.4477 43.2715 10.3824 34.123C9.99275 32.3348 9.96805 30.4863 10.3098 28.6882C10.6515 26.8902 11.3526 25.1796 12.3712 23.659C13.6715 21.6243 15.2473 21.4866 15.2473 21.4866C15.2473 21.4866 13.6256 20.7217 11.4533 20.4004C8.73017 19.9874 5.18095 20.2933 2.9168 23.7202C1.18925 27.7589 0.284307 32.1016 0.254883 36.4943C0.300778 45.2143 3.58993 55.2807 13.6256 63.2664C16.4099 65.347 19.5308 66.9839 22.8965 68.1007C23.3554 68.2537 23.8449 68.3761 24.2886 68.4984C25.7725 68.9115 27.2259 69.2022 28.618 69.4316C28.7251 69.4316 28.8322 69.4469 28.924 69.4775L30.1938 69.5999C30.8516 69.6611 31.4788 69.7223 32.1214 69.7529L33.0699 69.7682H33.4064L35.2116 69.7223L37.0627 69.5693L37.2769 69.5387C37.7817 69.4775 38.2713 69.3857 38.7761 69.3093L39.6329 69.1563L39.8164 69.1104C45.3544 67.9783 49.9439 65.4694 53.4932 62.8686C55.5584 61.2776 57.4095 59.4571 59.0312 57.4377C50.8924 61.3388 40.0765 61.3541 29.9643 56.6728ZM12.1876 18.0751C14.7066 14.8477 17.8402 12.1516 21.4075 10.1426C24.9748 8.13371 28.9048 6.85177 32.9705 6.37095C37.0362 5.89012 41.1569 6.21993 45.0944 7.34133C49.0319 8.46272 52.708 10.3535 55.9103 12.9042C49.782 7.1655 41.6951 3.98108 33.2993 4.00058C21.7491 4.00058 11.5757 9.92104 5.6705 18.9165C7.71486 18.0084 9.97963 17.716 12.1876 18.0751Z" fill="#14549C"/>
<path d="M31.6016 54.2098C35.7321 56.5504 40.2451 57.8508 44.7429 58.2792C46.6246 57.8202 48.4298 57.1471 50.0055 56.2292C56.3849 52.2669 75.1407 26.2444 75.1407 26.2444C75.1407 26.2444 64.9214 24.1332 60.4849 27.3765C56.0483 30.6197 52.7133 35.76 47.7872 41.3286C42.8918 46.8666 40.7194 50.3699 36.3747 51.4714C33.1467 52.2975 30.1023 52.1445 27.3486 51.5326C28.6643 52.4505 30.0717 53.3225 31.6016 54.2098Z" fill="#14549C"/>
<path d="M61.938 55.3726C65.885 52.4966 75.064 39.9978 75.064 39.9978C75.064 39.9978 68.0268 36.3262 61.6321 39.9978C55.2068 43.7153 55.4056 44.6638 49.0568 49.8958C42.7233 55.1126 37.9808 55.7092 34.4775 55.4338C34.2633 55.4338 34.095 55.3879 33.8809 55.3726C43.0293 59.6256 54.962 60.3293 61.938 55.3726Z" fill="#EE2121"/>
<path d="M75.0337 4.00079C75.0337 4.00079 64.9521 1.23179 56.8898 8.20784C51.0765 13.2257 38.5624 46.8974 28.7409 48.8097C27.2195 49.1415 25.6572 49.2446 24.1055 49.1156C25.7424 49.2686 27.67 49.2074 29.873 48.7791C39.7251 46.8668 52.7287 15.7958 58.7409 11.0074C64.7685 6.26495 71.974 7.47352 71.974 7.47352L65.9006 18.1977L75.0337 4.00079ZM99.404 9.27872L90.0414 24.0416H108.751L103.473 64.7506H121.908L127.171 24.0416H142.316L144.152 9.27872H99.404ZM529.869 8.97275L528.064 23.7204H544.357L539.048 64.6894H557.452L562.761 23.7204H576.07L585.417 8.97275H529.869ZM471.842 23.5368L473.648 9.00335H428.273L421.19 64.5364H466.565L468.354 50.0029H441.491L442.47 43.0575L469.242 42.9504L470.863 30.3905L444.061 30.4975L445.04 23.5368H471.842ZM244.264 9.23283H217.308C215.473 9.23283 213.637 10.3955 213.086 11.9559L193.81 64.7506H212.597L215.763 55.3115L233.724 55.0973L234.718 64.7506H253.535L247.691 11.9253C247.569 10.319 246.161 9.23283 244.264 9.23283ZM221.072 41.2217L226.809 25.9233H230.48L232.194 41.2217H221.072ZM291.811 34.368L283.872 9.23283H265.361L258.262 64.7659H276.788L279.833 41.237L287.941 64.7659H307.492L314.591 9.23283H295.024L291.811 34.368ZM472.577 64.5364H491.088L493.841 43.0575L512.888 42.9504L514.418 30.3905L495.448 30.4975L496.412 23.5368H515.764L525.019 9.00335H479.675L472.577 64.5364ZM194.743 12.3996C193.805 11.3789 192.658 10.572 191.381 10.0335C190.103 9.49506 188.725 9.23764 187.339 9.27872L150.317 9.24813L145.299 55.4339L143.999 64.7506H162.571L164.3 51.5787H168.124L171.872 64.7506H189.159L185.212 51.1044C189.572 49.8806 193.122 46.2854 193.688 42.0784L196.549 18.7943C196.724 17.6613 196.654 16.5037 196.343 15.4003C196.031 14.2968 195.486 13.2734 194.743 12.3996ZM167.512 26.673L167.879 23.9345H177.594L175.957 35.4542C175.892 35.8461 175.69 36.2023 175.388 36.4599C175.086 36.7175 174.702 36.8598 174.305 36.8617H166.105L167.512 26.673ZM353.984 9.23283H333.958C329.995 9.25253 326.174 10.7093 323.204 13.3328C320.712 15.4733 319.086 18.4482 318.629 21.701L317.727 28.9065C317.115 33.7867 318.538 36.7546 323.25 38.6516C332.612 42.3997 344.545 46.7291 344.545 46.7291L344.438 47.7388L344.285 48.8709L333.744 48.8556L334.05 45.3828H315.554L314.698 52.2059C313.933 59.1208 319.41 64.7506 326.921 64.7506H346.962C350.832 64.7506 354.734 63.2513 357.671 60.62C360.131 58.4434 361.731 55.4591 362.184 52.2059L363.224 44.0213C363.775 39.6001 362.352 37.0452 357.197 35.1329L336.406 27.3155C336.605 26.0457 336.712 25.1737 336.712 25.0207L336.865 23.7969L338.028 23.8275L346.396 23.8734H347.589L347.054 27.392H365.458L366.406 19.7275C367.324 11.9559 360.287 9.23283 353.984 9.23283ZM403.061 9.23283L399.818 34.368L392.107 9.23283H373.581L366.498 64.7812H385.009L388.069 41.237L395.978 64.7965H415.56L422.612 9.20223L403.061 9.23283Z" fill="#14549C"/>
</g>
<defs>
<clipPath id="clip0_4539_23248">
<rect width="585.284" height="70" fill="white" transform="translate(0.132812 0.5)"/>
</clipPath>
</defs>
</svg>
