<svg width="442" height="71" viewBox="0 0 442 71" fill="none" xmlns="http://www.w3.org/2000/svg">
<path d="M112.011 6.66286V9.21919H133.941C135.403 9.21919 137.596 9.21919 139.036 10.6812C140.476 12.1432 140.498 14.3363 140.498 15.7762V37.7065C140.498 39.1686 140.498 41.3616 139.036 42.8015C137.574 44.2635 135.381 44.2635 133.941 44.2635H123.353C121.527 44.2635 119.148 44.2635 118.258 42.2521C117.345 40.2407 118.623 38.4154 119.72 36.9356L133.985 17.9293H112.055L103.283 29.6255C101.812 31.5837 100.541 33.2806 100.541 35.4736C100.541 37.6667 101.723 39.2439 103.283 41.3217L105.476 44.2458C107.669 47.1698 109.862 50.0939 112.786 51.5559C115.71 53.0179 119.166 53.0179 123.951 53.0179H133.432C138.925 53.0179 147.122 53.0179 152.615 47.5243C158.109 42.0306 158.109 34.0116 158.109 31.0875V22.3154C158.109 19.3913 158.109 11.3724 152.615 5.87869C147.122 0.385015 138.925 0.385015 133.432 0.385015L118.28 0.380142C116.818 0.379699 114.992 0.380142 113.539 1.84217C112.077 3.30419 112.077 5.12951 112.077 6.58267" fill="#C4151C"/>
<path d="M85.8716 18.0046H107.58L81.4412 53.1819H59.7323L85.8716 18.0046Z" fill="#C4151C"/>
<path d="M0.365234 24.2072C0.365234 22.7451 0.365234 20.9198 1.82726 19.4667C3.28928 18.0135 5.1146 18.0046 6.56777 18.0046H43.2956C48.0361 18.0046 51.5361 18.0046 54.4602 19.4667C57.3842 20.9287 59.5551 23.8527 61.7703 26.7768L63.9633 29.7008C65.5184 31.7743 66.7057 33.3559 66.7057 35.5489C66.7057 37.742 65.4342 39.4388 63.9633 41.397L55.1912 53.0932H33.2608L47.5266 34.0869C48.6209 32.6249 49.9013 30.7996 48.9887 28.7705C48.076 26.7591 45.7013 26.7591 43.8937 26.7591H26.7038V70.6198H9.15954V26.7591H0.387386V24.1983" fill="#C4151C"/>
<path d="M178.91 46.9793C177.594 48.7692 176.251 50.5325 174.935 52.2958V53.297H178.644C180.46 50.8781 181.408 49.6154 181.408 48.1578H185.041V53.297H188.515V48.1578H192.148C192.148 49.6065 193.096 50.8692 194.912 53.297H198.62V52.2958L194.62 46.9793C197.987 44.454 197.987 44.454 197.987 41.1312V40.0281H194.199V41.1312C194.199 45.1584 194.199 45.1584 190.251 45.1584H188.515V40.0192H185.041V45.1584H183.304C179.357 45.1584 179.357 45.1584 179.357 41.1312V40.0281H175.569V41.1312C175.569 44.4451 175.569 44.4451 178.91 46.9793Z" fill="white"/>
<path fill-rule="evenodd" clip-rule="evenodd" d="M205.492 45.2072C205.492 42.2875 205.492 42.2875 208.726 42.2875C211.96 42.2875 211.96 42.2875 211.96 45.2072H205.492ZM205.492 47.573H208.726C212.12 47.5464 213.121 47.5996 214.264 47.336L215.606 47.0205V45.7313C215.606 43.5471 215.606 39.4401 209.36 39.4401H208.097C201.85 39.4401 201.85 43.5427 201.85 45.7756V47.0382C201.85 49.4041 201.902 53.3737 208.761 53.3737C209.789 53.3737 212.102 53.3737 214.61 52.7446V49.9047H213.901L211.375 50.5338H208.691C205.456 50.5329 205.456 50.5329 205.456 47.6142L205.492 47.573Z" fill="white"/>
<path d="M221.441 39.8021C221.441 41.8002 221.283 47.8211 218.127 52.03V53.0578H221.995C224.285 50.0053 224.285 46.0135 224.285 42.735H229.735V53.0578H233.208V39.811H221.468" fill="white"/>
<path fill-rule="evenodd" clip-rule="evenodd" d="M240.935 45.2072C240.935 42.2875 240.935 42.2875 244.173 42.2875C247.408 42.2875 247.408 42.2875 247.408 45.2072H240.939M240.939 47.573H244.178C247.572 47.5464 248.573 47.5996 249.716 47.336L251.058 47.0205V45.7313C251.058 43.5471 251.058 39.4401 244.811 39.4401H243.549C237.302 39.4401 237.302 43.5427 237.302 45.7756V47.0382C237.302 49.4041 237.354 53.3737 244.213 53.3737C245.241 53.3737 247.554 53.3737 250.061 52.7446V49.9047H249.353L246.827 50.5338H244.142C240.908 50.5329 240.908 50.5329 240.908 47.6142L240.939 47.573Z" fill="white"/>
<path d="M263.973 46.5363V46.1415C266.658 45.4593 266.658 43.8023 266.658 43.1688C266.658 41.9061 266.658 39.3808 260.278 39.3808C259.33 39.3808 257.119 39.3808 254.607 40.0143V42.8542H255.316L257.841 42.2206H260.761C262.785 42.2206 262.892 42.2206 262.892 43.6915C262.892 45.1403 262.892 45.1403 260.761 45.1403H257.841V47.5061H260.761C262.785 47.5061 262.892 47.5061 262.892 48.9548C262.892 50.4301 262.892 50.4301 260.761 50.4301H257.841L255.316 49.7966H254.607V52.6365C257.132 53.2656 259.347 53.2656 260.278 53.2656C266.658 53.2656 266.658 50.7403 266.658 49.4776C266.658 48.8485 266.658 47.1915 263.973 46.5314" fill="white"/>
<path d="M281.251 39.8021V44.7641H274.163V39.8021H270.618V53.1819H274.163V47.8654H281.251V53.1819H284.353V39.8021H281.251Z" fill="white"/>
<path fill-rule="evenodd" clip-rule="evenodd" d="M295.429 46.5363C298.193 46.5363 298.193 46.5363 298.193 48.5875C298.193 50.6388 298.193 50.6388 295.429 50.6388H292.664V46.5363H295.429ZM307.834 39.8907H304.36V53.1375H307.834V39.8907ZM295.916 53.1375C300.098 53.1375 301.853 52.216 301.853 48.6186C301.853 46.647 301.853 43.7894 296.403 43.7894C295.615 43.7894 294.272 43.8692 292.695 44.2635V39.842H289.222V53.0888H295.911L295.916 53.1375Z" fill="white"/>
<path fill-rule="evenodd" clip-rule="evenodd" d="M315.808 45.2072C315.808 42.2875 315.808 42.2875 319.042 42.2875C322.277 42.2875 322.277 42.2875 322.277 45.2072H315.808ZM315.808 47.573H319.042C322.436 47.5464 323.437 47.5996 324.58 47.336L325.923 47.0205V45.7313C325.923 43.5471 325.923 39.4401 319.676 39.4401H318.413C312.167 39.4401 312.167 43.5427 312.167 45.7756V47.0382C312.167 49.4041 312.219 53.3737 319.078 53.3737C320.106 53.3737 322.418 53.3737 324.926 52.7446V49.9047H324.217L321.692 50.5338H319.007C315.773 50.5329 315.773 50.5329 315.773 47.6142L315.808 47.573Z" fill="white"/>
<path fill-rule="evenodd" clip-rule="evenodd" d="M340.175 46.0932C340.175 42.5401 340.175 42.6198 344.872 42.6198C345.505 42.6198 346.373 42.6982 347.423 42.9353V48.6062L344.056 49.4479C340.162 49.4484 340.162 49.4484 340.162 46.0808M338.111 55.2517V58.2511C340.636 58.8846 342.674 58.8846 343.472 58.8846C350.649 58.8846 350.87 55.7789 350.87 52.2391V39.9226H349.736L348.053 41.1853C346.896 39.6834 344.079 39.6346 343.179 39.6346C336.489 39.6346 336.489 43.8435 336.489 45.7486V46.3821C336.489 48.5929 336.489 52.2302 342.16 52.2302C343.87 52.2302 345.895 51.7562 347.388 50.653V51.7562C347.388 55.8321 347.309 55.8587 343.126 55.8587H341.31L338.784 55.2251H338.075L338.111 55.2517Z" fill="white"/>
<path fill-rule="evenodd" clip-rule="evenodd" d="M361.441 39.492C354.751 39.492 354.751 43.4394 354.751 45.8274V47.0901C354.751 49.4559 354.751 53.4255 361.441 53.4255H362.704C369.394 53.4255 369.394 49.4781 369.394 47.0901V45.8274C369.394 43.4616 369.394 39.492 362.704 39.492H361.441ZM362.07 42.4116C365.779 42.4116 365.779 42.4116 365.779 46.4388C365.779 50.466 365.779 50.466 362.07 50.466C358.362 50.466 358.362 50.466 358.362 46.4388C358.362 42.4116 358.362 42.4116 362.07 42.4116Z" fill="white"/>
<path fill-rule="evenodd" clip-rule="evenodd" d="M384.036 46.5363C384.036 50.4837 384.036 50.4837 380.168 50.4837C379.22 50.4837 378.011 50.4837 376.775 50.1679V43.5223L380.142 42.6805C384.036 42.6805 384.036 42.7328 384.036 46.5217M373.315 39.8761V58.4837H376.788V52.7242C378.365 53.1189 379.628 53.4331 381.529 53.4331C387.687 53.4331 387.687 48.9141 387.687 47.0976V45.835C387.687 43.6242 387.687 39.4995 381.927 39.4995C378.981 39.4995 377.275 40.7887 376.345 41.4976L375.082 39.8141H373.346L373.315 39.8761Z" fill="white"/>
<path fill-rule="evenodd" clip-rule="evenodd" d="M398.213 39.492C391.523 39.492 391.523 43.4394 391.523 45.8274V47.0901C391.523 49.4559 391.523 53.4255 398.213 53.4255H399.476C406.166 53.4255 406.166 49.4781 406.166 47.0901V45.8274C406.166 43.4616 406.166 39.492 399.476 39.492H398.213ZM398.842 42.4116C402.551 42.4116 402.551 42.4116 402.551 46.4388C402.551 50.466 402.551 50.466 398.842 50.466C395.134 50.466 395.134 50.466 395.134 46.4388C395.134 42.4116 395.134 42.4116 398.842 42.4116Z" fill="white"/>
<path d="M416.378 39.492C415.115 39.492 413.458 39.492 410.929 40.1255V42.9654H411.637L414.163 42.3363H417.397C419.134 42.3363 419.134 42.3363 419.134 43.3375C419.134 44.0198 419.134 44.2325 417.791 44.4673L414.632 45.2559C412.816 45.7034 410.291 46.3856 410.291 49.1236C410.291 50.9401 410.291 53.3857 416.67 53.3857C417.933 53.3857 419.59 53.3856 422.12 52.7565V49.9167H421.411C420.356 50.206 419.36 50.4439 418.965 50.5502H415.651C413.915 50.5502 413.915 50.5502 413.915 49.5489C413.915 48.9464 413.915 48.8135 414.65 48.6008L416.413 48.1268L418.411 47.6262C420.228 47.1787 422.753 46.523 422.753 43.7584C422.753 41.942 422.753 39.4964 416.373 39.4964" fill="white"/>
<path d="M438.973 53.6249L441.551 51.7021C440.603 50.4394 440.603 50.4394 440.603 48.2021V40.0059H437.13V49.6198L433.763 50.4616C430.183 50.4616 430.183 50.4616 430.183 46.8065V39.9837H426.71V47.3382C426.71 49.9432 426.71 53.585 431.982 53.585C434.746 53.585 436.456 52.2958 437.387 51.5869L438.937 53.6382" fill="white"/>
<path fill-rule="evenodd" clip-rule="evenodd" d="M175.808 8.12489V26.7325H179.596V21.5932H182.596C187.735 21.5932 191.766 21.5932 191.766 14.8591C191.766 8.08058 187.739 8.08059 182.596 8.08059H175.817M179.605 18.2705V11.4034H184.168C187.562 11.4034 187.722 11.4034 187.722 14.8502C187.722 18.1907 187.722 18.2705 184.168 18.2705H179.605Z" fill="white"/>
<path fill-rule="evenodd" clip-rule="evenodd" d="M201.504 13.1755C194.815 13.1755 194.815 17.123 194.815 19.511V20.7736C194.815 23.1394 194.815 27.1091 201.504 27.1091H202.767C209.457 27.1091 209.457 23.1616 209.457 20.7736V19.511C209.457 17.1451 209.457 13.1755 202.767 13.1755H201.504ZM202.134 16.0951C205.842 16.0951 205.842 16.0951 205.842 20.1224C205.842 24.1496 205.842 24.1496 202.134 24.1496C198.425 24.1496 198.425 24.1496 198.425 20.1224C198.425 16.0951 198.425 16.0951 202.134 16.0951Z" fill="white"/>
<path d="M219.669 27.0869C220.617 27.0869 223.063 27.0869 225.606 26.4534V23.6135H224.897L222.345 24.2426H220.848C216.453 24.2426 216.453 24.2426 216.453 20.1401C216.453 16.0375 216.453 16.0375 219.687 16.0375C222.425 16.0375 222.425 16.0375 223.08 18.6426L226.239 17.854C226.239 16.5913 226.239 13.2021 220.303 13.2021H219.04C212.793 13.2021 212.793 17.1496 212.793 19.5375V20.8002C212.793 23.166 212.793 27.1356 219.66 27.1356" fill="white"/>
<path d="M236.504 27.0869C237.453 27.0869 239.898 27.0869 242.441 26.4534V23.6135H241.732L239.18 24.2426H237.683C233.288 24.2426 233.288 24.2426 233.288 20.1401C233.288 16.0375 233.288 16.0375 236.522 16.0375C239.26 16.0375 239.26 16.0375 239.916 18.6426L243.075 17.854C243.075 16.5913 243.075 13.2021 237.138 13.2021H235.875C229.629 13.2021 229.629 17.1496 229.629 19.5375V20.8002C229.629 23.166 229.629 27.1356 236.496 27.1356" fill="white"/>
<path d="M258.656 27.1312L261.235 25.2084C260.287 23.9458 260.287 23.9458 260.287 21.7084V13.5122H256.813V23.1262L253.446 23.9679C249.866 23.9679 249.866 23.9679 249.866 20.3129V13.4901H246.393V20.8445C246.393 23.4496 246.393 27.0913 251.665 27.0913C254.43 27.0913 256.14 25.8021 257.07 25.0932L258.621 27.1445" fill="white"/>
<path fill-rule="evenodd" clip-rule="evenodd" d="M271.061 8.78944C269.351 8.78944 269.351 8.78944 268.51 7.84134L266.985 9.02426C268.642 11.1553 269.484 11.3148 271.903 11.3148H272.484C274.876 11.3148 275.744 11.1566 277.357 9.02426L275.833 7.84134C275.018 8.78944 275.018 8.78944 273.281 8.78944H271.044M277.468 27.1755L280.046 25.2527C279.098 23.9901 279.098 23.9901 279.098 21.7527V13.5565H275.625V23.1705L272.258 24.0122C268.758 24.0122 268.678 24.0122 268.678 20.3572V13.5344H265.204V20.8888C265.204 23.4939 265.204 27.1356 270.477 27.1356C273.241 27.1356 274.951 25.8464 275.882 25.1375L277.432 27.1888L277.468 27.1755Z" fill="white"/>
<path d="M290.112 27.0869C291.06 27.0869 293.506 27.0869 296.049 26.4534V23.6135H295.34L292.788 24.2426H291.286C286.891 24.2426 286.891 24.2426 286.891 20.1401C286.891 16.0375 286.891 16.0375 290.125 16.0375C292.863 16.0375 292.863 16.0375 293.519 18.6426L296.678 17.854C296.678 16.5913 296.678 13.2021 290.741 13.2021H289.479C283.232 13.2021 283.232 17.1496 283.232 19.5375V20.8002C283.232 23.166 283.232 27.1356 290.099 27.1356" fill="white"/>
<path d="M300.745 13.53V26.7768H304.218V21.6375H308.48C308.48 23.0863 309.429 24.3489 311.241 26.7768H314.949V25.7755L310.948 20.4591C314.315 17.9337 314.315 17.9338 314.315 14.611V13.5078H310.527V14.611C310.527 18.6382 310.527 18.6382 306.58 18.6382H304.214V13.4989H300.741" fill="white"/>
<path d="M330.872 27.1312L333.45 25.2084C332.502 23.9458 332.502 23.9458 332.502 21.7084V13.5122H329.029V23.1262L325.661 23.9679C322.082 23.9679 322.082 23.9679 322.082 20.3129V13.4901H318.608V20.8445C318.608 23.4496 318.608 27.0913 323.88 27.0913C326.645 27.0913 328.355 25.8021 329.285 25.0932L330.836 27.1445" fill="white"/>
<path fill-rule="evenodd" clip-rule="evenodd" d="M340.175 18.935C340.175 16.0154 340.175 16.0154 343.414 16.0154C346.648 16.0154 346.648 16.0154 346.648 18.935H340.18M340.18 21.3008H343.418C346.812 21.2743 347.813 21.3274 348.956 21.0638L350.299 20.7484V19.4591C350.299 17.275 350.299 13.168 344.052 13.168H342.789C336.542 13.168 336.542 17.2705 336.542 19.5034V20.7661C336.542 23.1319 336.595 27.1015 343.454 27.1015C344.482 27.1015 346.794 27.1015 349.302 26.468V23.6281H348.593L346.068 24.2572H343.383C340.144 24.2568 340.144 24.2568 340.144 21.3376L340.18 21.3008Z" fill="white"/>
</svg>
