<svg width="84" height="101" viewBox="0 0 84 101" fill="none" xmlns="http://www.w3.org/2000/svg">
<path fill-rule="evenodd" clip-rule="evenodd" d="M83.3508 41.9C83.3508 19.05 64.8508 0.5 41.9508 0.5C19.1008 0.5 0.550781 19.05 0.550781 41.9C0.550781 53.35 5.20078 63.7 12.7008 71.15C13.3008 71.75 14.1508 72.15 15.0508 72.15C16.9008 72.15 18.4008 70.65 18.4008 68.8C18.4008 67.85 18.0508 67 17.4008 66.35C11.1508 60.1 7.30078 51.4 7.30078 41.9C7.30078 22.8 22.8008 7.2 41.9008 7.2C61.0008 7.2 76.6008 22.75 76.6008 41.9C76.6008 51.5 72.7508 60.15 66.4508 66.45L37.2008 95.7L41.9508 100.5L71.3008 71.15C78.7508 63.7 83.3508 53.35 83.3508 41.9Z" fill="#D9232E"/>
<path fill-rule="evenodd" clip-rule="evenodd" d="M61.1518 49.9008L50.8018 23.8008L42.1018 39.0508L33.3518 23.8008L23.0518 49.9008H20.0518V53.8008H35.6018V49.9008H33.3018L35.5518 43.4008L42.1018 54.1008L48.6518 43.4008L50.9018 49.9008H48.5518V53.8008H64.2018V49.9008H61.1518Z" fill="#D9232E"/>
</svg>
