<svg width="304" height="304" viewBox="0 0 304 304" fill="none" xmlns="http://www.w3.org/2000/svg">
<path d="M203.154 165.365C181.56 247.873 141.151 308.775 112.9 301.394C84.6479 294.012 79.2514 221.143 100.846 138.635C122.441 56.1265 162.849 -4.77549 191.101 2.60605C219.353 9.98758 224.749 82.8575 203.154 165.365Z" stroke="#050F27" stroke-width="4"/>
<path d="M202.442 101.606C262.798 161.91 289.144 233.358 261.287 261.191C233.431 289.023 161.92 262.7 101.564 202.396C41.2086 142.093 14.8627 70.644 42.7192 42.8115C70.5758 14.9789 142.086 41.3021 202.442 101.606Z" stroke="#050F27" stroke-width="4"/>
<path d="M137.479 97.8546C219.927 75.7819 293.265 82.13 301.285 112.033C309.304 141.937 248.968 184.072 166.521 206.145C84.0729 228.217 10.7348 221.869 2.71527 191.966C-5.30425 162.062 55.0317 119.927 137.479 97.8546Z" stroke="#050F27" stroke-width="4"/>
<path d="M179.93 151.999C179.93 167.41 167.426 179.903 152.002 179.903C136.578 179.903 124.074 167.41 124.074 151.999C124.074 136.588 136.578 124.095 152.002 124.095C167.426 124.095 179.93 136.588 179.93 151.999Z" stroke="#050F27" stroke-width="4"/>
<path d="M113.12 35.8332C113.12 42.8041 107.464 48.4552 100.487 48.4552C93.5102 48.4552 87.8543 42.8041 87.8543 35.8332C87.8543 28.8623 93.5102 23.2113 100.487 23.2113C107.464 23.2113 113.12 28.8623 113.12 35.8332Z" stroke="#050F27" stroke-width="4"/>
<path d="M294.79 152.001C294.79 158.972 289.134 164.623 282.157 164.623C275.18 164.623 269.524 158.972 269.524 152.001C269.524 145.03 275.18 139.379 282.157 139.379C289.134 139.379 294.79 145.03 294.79 152.001Z" stroke="#050F27" stroke-width="4"/>
<path d="M101.781 262.108C101.781 269.079 96.125 274.73 89.1481 274.73C82.1711 274.73 76.5152 269.079 76.5152 262.108C76.5152 255.137 82.1711 249.486 89.1481 249.486C96.125 249.486 101.781 255.137 101.781 262.108Z" stroke="#050F27" stroke-width="4"/>
</svg>
