<svg width="208" height="305" viewBox="0 0 208 305" fill="none" xmlns="http://www.w3.org/2000/svg">
<path d="M152.238 269.332V210.137L102.31 180.715M152.238 269.332L102.012 298.929L51.7861 269.332V210.137L51.9285 210.054M152.238 269.332L206 303M102.31 180.715L102.452 180.632V121.437L52.2261 91.8396L2 121.437V180.632L51.9285 210.054M102.31 180.715L51.9285 210.054M153.56 91.7922V32.5974L103.334 3L53.1081 32.5974V91.7922L103.037 121.214M153.56 91.7922L153.418 91.8751M153.56 91.7922L204.142 64.2743M153.418 91.8751L203.346 121.297V180.492L153.12 210.089L102.894 180.492V121.297L103.037 121.214M153.418 91.8751L103.037 121.214" stroke="#050F27" stroke-width="4"/>
</svg>
