<svg width="274" height="284" viewBox="0 0 274 284" fill="none" xmlns="http://www.w3.org/2000/svg">
<path d="M67.512 226.338L66.1341 227.788C66.5272 228.161 67.0553 228.359 67.5973 228.336C68.1392 228.313 68.6485 228.071 69.0084 227.665L67.512 226.338ZM26.9714 156.12L26.5705 154.16C26.0391 154.269 25.5747 154.589 25.2836 155.047C24.9926 155.504 24.9 156.061 25.0271 156.588L26.9714 156.12ZM77.2105 145.839L78.9426 144.839C78.5121 144.093 77.6529 143.707 76.8096 143.88L77.2105 145.839ZM101.535 187.97L103.031 189.297C103.602 188.653 103.697 187.715 103.267 186.97L101.535 187.97ZM40.9736 194.82L39.2414 195.82L40.9736 194.82ZM237.028 156.12L238.973 156.588C239.1 156.061 239.007 155.505 238.716 155.047C238.425 154.589 237.961 154.269 237.429 154.16L237.028 156.12ZM196.488 226.338L194.992 227.665C195.351 228.071 195.861 228.313 196.403 228.336C196.944 228.359 197.473 228.161 197.866 227.788L196.488 226.338ZM162.465 187.97L160.733 186.97C160.303 187.716 160.397 188.653 160.969 189.297L162.465 187.97ZM186.789 145.839L187.19 143.88C186.347 143.707 185.488 144.094 185.057 144.839L186.789 145.839ZM223.002 194.862L221.27 193.861L223.002 194.862ZM91.4594 44.4231L90.893 42.505C90.3728 42.6586 89.9372 43.017 89.6863 43.4979C89.4354 43.9788 89.3905 44.541 89.562 45.0556L91.4594 44.4231ZM172.54 44.4231L174.438 45.0556C174.609 44.541 174.565 43.9788 174.314 43.4979C174.063 43.0171 173.627 42.6587 173.107 42.505L172.54 44.4231ZM156.324 93.0718V95.0718C157.185 95.0718 157.949 94.5209 158.222 93.7042L156.324 93.0718ZM107.676 93.0718L105.778 93.7042C106.05 94.5209 106.815 95.0718 107.676 95.0718V93.0718ZM132.024 37.1992L132.024 35.1992L132.024 37.1992ZM27.3724 158.079L77.6115 147.798L76.8096 143.88L26.5705 154.16L27.3724 158.079ZM75.4785 146.839L99.8028 188.97L103.267 186.97L78.9426 144.839L75.4785 146.839ZM100.038 186.643L66.0156 225.011L69.0084 227.665L103.031 189.297L100.038 186.643ZM67.512 226.338C68.8899 224.888 68.89 224.888 68.89 224.888C68.8899 224.888 68.8898 224.888 68.8896 224.888C68.8892 224.888 68.8885 224.887 68.8876 224.886C68.8857 224.884 68.8826 224.881 68.8785 224.878C68.8703 224.87 68.8577 224.858 68.8407 224.841C68.8069 224.809 68.7559 224.76 68.6887 224.696C68.5542 224.566 68.3546 224.374 68.0971 224.123C67.582 223.621 66.8352 222.887 65.913 221.961C64.068 220.11 61.5245 217.497 58.7327 214.453C53.1206 208.335 46.6118 200.589 42.7059 193.82L39.2414 195.82C43.378 202.988 50.1383 211.001 55.7848 217.157C58.6223 220.251 61.2054 222.904 63.0797 224.785C64.0172 225.726 64.7782 226.474 65.306 226.988C65.5699 227.245 65.7756 227.444 65.9159 227.579C65.9861 227.646 66.04 227.698 66.0766 227.733C66.095 227.75 66.109 227.764 66.1186 227.773C66.1234 227.777 66.1271 227.781 66.1297 227.783C66.131 227.785 66.132 227.786 66.1327 227.786C66.1331 227.787 66.1334 227.787 66.1336 227.787C66.1339 227.787 66.1341 227.788 67.512 226.338ZM42.7059 193.82C38.8045 187.06 35.3566 177.56 32.8679 169.649C31.6298 165.714 30.6403 162.209 29.9606 159.688C29.6209 158.428 29.3589 157.416 29.1821 156.72C29.0938 156.371 29.0268 156.103 28.9821 155.922C28.9597 155.831 28.9429 155.763 28.9319 155.717C28.9263 155.695 28.9222 155.678 28.9195 155.667C28.9182 155.661 28.9172 155.657 28.9166 155.654C28.9163 155.653 28.9161 155.652 28.9159 155.652C28.9159 155.651 28.9159 155.651 28.9158 155.651C28.9158 155.651 28.9158 155.651 26.9714 156.12C25.0271 156.588 25.0271 156.588 25.0272 156.589C25.0273 156.589 25.0274 156.589 25.0275 156.59C25.0277 156.591 25.0281 156.592 25.0285 156.594C25.0293 156.597 25.0305 156.602 25.0321 156.609C25.0352 156.622 25.0398 156.64 25.0458 156.665C25.0578 156.714 25.0755 156.787 25.0988 156.881C25.1455 157.07 25.2146 157.347 25.3051 157.704C25.4862 158.417 25.7532 159.449 26.0986 160.73C26.7891 163.29 27.7939 166.85 29.0523 170.85C31.5563 178.809 35.1095 188.66 39.2414 195.82L42.7059 193.82ZM197.984 225.011L163.961 186.643L160.969 189.297L194.992 227.665L197.984 225.011ZM164.197 188.97L188.521 146.839L185.057 144.839L160.733 186.97L164.197 188.97ZM186.388 147.798L236.628 158.079L237.429 154.16L187.19 143.88L186.388 147.798ZM237.028 156.12C235.084 155.651 235.084 155.651 235.084 155.651C235.084 155.651 235.084 155.651 235.084 155.652C235.084 155.652 235.084 155.653 235.083 155.654C235.083 155.657 235.082 155.661 235.08 155.667C235.078 155.678 235.074 155.695 235.068 155.717C235.057 155.763 235.04 155.831 235.018 155.922C234.973 156.103 234.906 156.372 234.817 156.721C234.64 157.418 234.378 158.432 234.038 159.693C233.357 162.216 232.366 165.725 231.126 169.665C228.633 177.585 225.179 187.094 221.27 193.861L224.734 195.862C228.874 188.695 232.433 178.834 234.941 170.866C236.202 166.862 237.208 163.298 237.9 160.735C238.246 159.452 238.513 158.419 238.694 157.705C238.785 157.348 238.854 157.071 238.901 156.882C238.924 156.787 238.942 156.715 238.954 156.665C238.96 156.641 238.965 156.622 238.968 156.609C238.969 156.603 238.971 156.598 238.971 156.594C238.972 156.592 238.972 156.591 238.972 156.59C238.972 156.59 238.973 156.589 238.973 156.589C238.973 156.589 238.973 156.588 237.028 156.12ZM221.27 193.861C217.366 200.62 210.863 208.356 205.257 214.467C202.468 217.507 199.927 220.116 198.084 221.965C197.163 222.889 196.417 223.622 195.902 224.124C195.645 224.374 195.445 224.567 195.311 224.696C195.244 224.76 195.193 224.809 195.159 224.841C195.142 224.858 195.13 224.87 195.121 224.877C195.117 224.881 195.114 224.884 195.112 224.886C195.112 224.887 195.111 224.888 195.11 224.888C195.11 224.888 195.11 224.888 195.11 224.888C195.11 224.888 195.11 224.888 196.488 226.338C197.866 227.788 197.866 227.788 197.866 227.787C197.866 227.787 197.867 227.787 197.867 227.786C197.868 227.786 197.869 227.785 197.87 227.784C197.873 227.781 197.876 227.778 197.881 227.773C197.891 227.764 197.905 227.75 197.923 227.733C197.96 227.698 198.014 227.646 198.084 227.579C198.224 227.444 198.429 227.246 198.693 226.989C199.22 226.476 199.98 225.728 200.917 224.789C202.789 222.911 205.37 220.26 208.204 217.171C213.845 211.023 220.599 203.02 224.734 195.862L221.27 193.861ZM170.643 43.7907L154.427 92.4393L158.222 93.7042L174.438 45.0556L170.643 43.7907ZM156.324 91.0718H107.676V95.0718H156.324V91.0718ZM109.573 92.4393L93.3568 43.7907L89.562 45.0556L105.778 93.7042L109.573 92.4393ZM91.4594 44.4231C92.0258 46.3412 92.0258 46.3412 92.0258 46.3412C92.0259 46.3412 92.026 46.3412 92.0263 46.3411C92.0268 46.3409 92.0277 46.3407 92.029 46.3403C92.0315 46.3396 92.0355 46.3384 92.0409 46.3368C92.0518 46.3336 92.0686 46.3287 92.0911 46.3221C92.136 46.309 92.2038 46.2892 92.2934 46.2633C92.4727 46.2115 92.7393 46.1351 93.0854 46.0375C93.7775 45.8423 94.7868 45.5626 96.0492 45.2266C98.575 44.5545 102.11 43.6582 106.141 42.7623C114.246 40.9615 124.209 39.1976 132.024 39.1992L132.024 35.1992C123.748 35.1975 113.429 37.0456 105.274 38.8575C101.176 39.7681 97.5865 40.6783 95.0205 41.3612C93.7371 41.7027 92.7087 41.9877 91.9995 42.1877C91.6449 42.2877 91.3701 42.3665 91.183 42.4206C91.0894 42.4476 91.0178 42.4684 90.9692 42.4827C90.9448 42.4898 90.9262 42.4952 90.9135 42.499C90.9071 42.5008 90.9022 42.5023 90.8988 42.5033C90.8971 42.5038 90.8957 42.5042 90.8948 42.5045C90.8943 42.5046 90.8938 42.5047 90.8936 42.5048C90.8932 42.5049 90.893 42.505 91.4594 44.4231ZM132.024 39.1992C139.829 39.2008 149.78 40.9647 157.875 42.7647C161.902 43.6602 165.433 44.5559 167.955 45.2275C169.216 45.5632 170.224 45.8427 170.916 46.0377C171.261 46.1352 171.528 46.2116 171.707 46.2634C171.796 46.2892 171.864 46.309 171.909 46.3221C171.931 46.3286 171.948 46.3335 171.959 46.3367C171.964 46.3383 171.968 46.3395 171.971 46.3403C171.972 46.3406 171.973 46.3409 171.973 46.341C171.974 46.3411 171.974 46.3412 171.974 46.3412C171.974 46.3412 171.974 46.3412 172.54 44.4231C173.107 42.505 173.107 42.505 173.106 42.5049C173.106 42.5048 173.106 42.5047 173.105 42.5045C173.104 42.5042 173.103 42.5038 173.101 42.5033C173.098 42.5023 173.093 42.5009 173.087 42.499C173.074 42.4953 173.055 42.4898 173.031 42.4827C172.982 42.4685 172.911 42.4477 172.817 42.4207C172.631 42.3667 172.356 42.2879 172.002 42.188C171.294 41.9881 170.266 41.7034 168.984 41.3622C166.422 40.6798 162.836 39.7702 158.743 38.8601C150.598 37.049 140.291 35.2009 132.024 35.1992L132.024 39.1992ZM154.324 142.294C154.324 154.623 144.329 164.618 132 164.618V168.618C146.538 168.618 158.324 156.832 158.324 142.294H154.324ZM132 164.618C119.671 164.618 109.676 154.623 109.676 142.294H105.676C105.676 156.832 117.461 168.618 132 168.618V164.618ZM109.676 142.294C109.676 129.964 119.671 119.969 132 119.969V115.969C117.461 115.969 105.676 127.755 105.676 142.294H109.676ZM132 119.969C144.329 119.969 154.324 129.964 154.324 142.294H158.324C158.324 127.755 146.538 115.969 132 115.969V119.969ZM259.73 142C259.73 212.543 202.543 269.73 132 269.73V273.73C204.752 273.73 263.73 214.752 263.73 142H259.73ZM132 269.73C61.6626 269.73 14.2703 212.761 14.2703 142H10.2703C10.2703 214.535 59.0419 273.73 132 273.73V269.73ZM14.2703 142C14.2703 71.2391 61.6626 14.2703 132 14.2703V10.2703C59.0419 10.2703 10.2703 69.4654 10.2703 142H14.2703ZM132 14.2703C202.543 14.2703 259.73 71.4568 259.73 142H263.73C263.73 69.2477 204.752 10.2703 132 10.2703V14.2703ZM270 142C270 182.95 255.882 217.422 231.652 241.652C207.422 265.882 172.95 280 132 280V284C173.893 284 209.421 269.539 234.48 244.48C259.539 219.421 274 183.893 274 142H270ZM132 280C91.0653 280 59.1361 265.895 37.4216 241.729C15.6823 217.536 4 183.054 4 142H0C0 183.789 11.8963 219.307 34.4463 244.403C57.0212 269.526 90.092 284 132 284V280ZM4 142C4 100.946 15.6823 66.4643 37.4216 42.2707C59.1361 18.1048 91.0653 4 132 4V0C90.092 0 57.0212 14.4738 34.4463 39.5972C11.8963 64.693 0 100.211 0 142H4ZM132 4C172.95 4 207.422 18.1181 231.652 42.3482C255.882 66.5783 270 101.05 270 142H274C274 100.107 259.539 64.579 234.48 39.5198C209.421 14.4605 173.893 0 132 0V4Z" fill="#07141A"/>
</svg>
