<svg width="200" height="354" viewBox="0 0 200 354" fill="none" xmlns="http://www.w3.org/2000/svg">
<path d="M43.1082 59.9299C42.0036 59.9298 41.1081 60.8251 41.1079 61.9297C41.1078 63.0342 42.0032 63.9298 43.1077 63.9299L43.1082 59.9299ZM112.818 63.9311C113.922 63.9311 114.818 63.0357 114.818 61.9311C114.818 60.8265 113.922 59.9311 112.818 59.9311V63.9311ZM54.7412 162.198L55.3513 164.102L56.7412 163.657V162.198H54.7412ZM103.015 162.857H101.015V164.274L102.352 164.744L103.015 162.857ZM15.1776 350C14.0731 350 13.1776 350.895 13.1776 352C13.1776 353.105 14.0731 354 15.1776 354V350ZM184.255 352V354C185.359 354 186.255 353.105 186.255 352H184.255ZM186.255 20.4927C186.255 19.3881 185.359 18.4927 184.255 18.4927C183.15 18.4927 182.255 19.3881 182.255 20.4927H186.255ZM116.287 103.074V101.074C116.111 101.074 115.937 101.097 115.767 101.143L116.287 103.074ZM43.0521 101.162C41.996 100.838 40.8776 101.432 40.5541 102.488C40.2306 103.544 40.8246 104.663 41.8807 104.986L43.0521 101.162ZM169.32 225.537C168.215 225.537 167.32 226.433 167.32 227.537C167.32 228.642 168.215 229.537 169.32 229.537V225.537ZM198 229.537C199.105 229.537 200 228.642 200 227.537C200 226.433 199.105 225.537 198 225.537V229.537ZM6.50024 228.487L5.17248 229.983C5.27115 230.071 5.37825 230.148 5.49221 230.215L6.50024 228.487ZM146.23 228.487L147.238 230.215C147.329 230.162 147.416 230.101 147.498 230.035L146.23 228.487ZM152.918 223.008L154.896 222.706L152.918 223.008ZM54.7412 63.9311H103.015V59.9311H54.7412V63.9311ZM54.7414 59.9311L43.1082 59.9299L43.1077 63.9299L54.7409 63.9311L54.7414 59.9311ZM103.015 63.9311H112.818V59.9311H103.015V63.9311ZM151.793 234.579C151.793 275.441 118.706 308.562 77.8964 308.562V312.562C120.92 312.562 155.793 277.646 155.793 234.579H151.793ZM56.7412 162.198V61.9311H52.7412V162.198H56.7412ZM101.015 61.9311V162.857H105.015V61.9311H101.015ZM77.8964 308.562C37.0867 308.562 4 275.441 4 234.579H0C0 277.646 34.8733 312.562 77.8964 312.562V308.562ZM15.1776 354H184.255V350H15.1776V354ZM186.255 103.074V20.4927H182.255V103.074H186.255ZM184.255 101.074H116.287V105.074H184.255V101.074ZM115.767 101.143C88.5231 108.479 69.9638 109.404 43.0521 101.162L41.8807 104.986C69.65 113.491 88.9912 112.495 116.807 105.005L115.767 101.143ZM186.255 352V227.537H182.255V352H186.255ZM186.255 227.537V103.074H182.255V227.537H186.255ZM184.255 225.537H169.32V229.537H184.255V225.537ZM184.255 229.537H198V225.537H184.255V229.537ZM5.49221 230.215C6.07149 230.553 7.03277 231.294 8.40397 232.37C9.71419 233.398 11.2984 234.649 12.9804 235.849C14.659 237.046 16.4885 238.231 18.3121 239.123C20.1068 240.001 22.0668 240.68 23.9665 240.68V236.68C22.9551 236.68 21.6402 236.298 20.069 235.53C18.5267 234.775 16.8993 233.731 15.3031 232.592C13.7101 231.456 12.2014 230.265 10.8734 229.223C9.60651 228.229 8.38452 227.271 7.50828 226.76L5.49221 230.215ZM23.9665 240.68C25.995 240.68 27.8461 239.8 29.4306 238.759C31.0239 237.713 32.587 236.34 34.0169 235.089C35.4981 233.792 36.846 232.617 38.1638 231.752C39.4902 230.881 40.5501 230.487 41.4327 230.487V226.487C39.4042 226.487 37.5531 227.368 35.9685 228.408C34.3753 229.454 32.8121 230.827 31.3823 232.079C29.9011 233.375 28.5532 234.55 27.2354 235.415C25.909 236.286 24.849 236.68 23.9665 236.68V240.68ZM41.4327 230.487C42.3153 230.487 43.3752 230.881 44.7017 231.752C46.0194 232.617 47.3673 233.792 48.8485 235.089C50.2784 236.34 51.8415 237.713 53.4348 238.759C55.0194 239.8 56.8705 240.68 58.8989 240.68V236.68C58.0164 236.68 56.9565 236.286 55.63 235.415C54.3122 234.55 52.9643 233.375 51.4831 232.079C50.0533 230.827 48.4902 229.454 46.8969 228.408C45.3123 227.368 43.4612 226.487 41.4327 226.487V230.487ZM58.8989 240.68C60.9274 240.68 62.7785 239.8 64.3631 238.759C65.9564 237.713 67.5195 236.34 68.9494 235.089C70.4306 233.792 71.7785 232.617 73.0962 231.752C74.4227 230.881 75.4826 230.487 76.3652 230.487V226.487C74.3367 226.487 72.4856 227.368 70.901 228.408C69.3077 229.454 67.7446 230.827 66.3148 232.079C64.8336 233.375 63.4857 234.55 62.1679 235.415C60.8414 236.286 59.7815 236.68 58.8989 236.68V240.68ZM76.3652 230.487C77.2477 230.487 78.3077 230.881 79.6341 231.752C80.9519 232.617 82.2998 233.792 83.781 235.089C85.2108 236.34 86.774 237.713 88.3672 238.759C89.9518 239.8 91.8029 240.68 93.8314 240.68V236.68C92.9488 236.68 91.8889 236.286 90.5625 235.415C89.2447 234.55 87.8968 233.375 86.4156 232.079C84.9858 230.827 83.4226 229.454 81.8294 228.408C80.2448 227.368 78.3937 226.487 76.3652 226.487V230.487ZM93.8314 240.68C95.8599 240.68 97.711 239.8 99.2956 238.759C100.889 237.713 102.452 236.34 103.882 235.089C105.363 233.792 106.711 232.617 108.029 231.752C109.355 230.881 110.415 230.487 111.298 230.487V226.487C109.269 226.487 107.418 227.368 105.833 228.408C104.24 229.454 102.677 230.827 101.247 232.079C99.766 233.375 98.4181 234.55 97.1004 235.415C95.7739 236.286 94.714 236.68 93.8314 236.68V240.68ZM111.298 230.487C112.18 230.487 113.24 230.881 114.567 231.752C115.884 232.617 117.232 233.792 118.713 235.089C120.143 236.34 121.706 237.713 123.3 238.759C124.884 239.8 126.735 240.68 128.764 240.68V236.68C127.881 236.68 126.821 236.286 125.495 235.415C124.177 234.55 122.829 233.375 121.348 232.079C119.918 230.827 118.355 229.454 116.762 228.408C115.177 227.368 113.326 226.487 111.298 226.487V230.487ZM128.764 240.68C130.664 240.68 132.624 240.001 134.418 239.123C136.242 238.231 138.071 237.046 139.75 235.849C141.432 234.649 143.016 233.398 144.326 232.37C145.698 231.294 146.659 230.553 147.238 230.215L145.222 226.76C144.346 227.271 143.124 228.229 141.857 229.223C140.529 230.265 139.02 231.456 137.427 232.592C135.831 233.731 134.204 234.775 132.661 235.53C131.09 236.298 129.775 236.68 128.764 236.68V240.68ZM102.352 164.744C127.729 173.651 146.778 196.032 150.941 223.31L154.896 222.706C150.506 193.944 130.427 170.358 103.677 160.969L102.352 164.744ZM150.941 223.31C151.502 226.983 151.793 230.746 151.793 234.579H155.793C155.793 230.544 155.487 226.579 154.896 222.706L150.941 223.31ZM147.498 230.035L154.186 224.555L151.651 221.461L144.963 226.94L147.498 230.035ZM4 234.579C4 231.425 4.19704 228.318 4.57926 225.269L0.610332 224.772C0.207466 227.985 0 231.258 0 234.579H4ZM4.57926 225.269C8.19622 196.42 28.4118 172.733 55.3513 164.102L54.131 160.293C25.7326 169.391 4.42404 194.353 0.610332 224.772L4.57926 225.269ZM7.828 226.992L3.92255 223.525L1.26704 226.516L5.17248 229.983L7.828 226.992ZM72.5496 287.131C72.5496 287.936 71.8986 288.584 71.1003 288.584V292.584C74.112 292.584 76.5496 290.141 76.5496 287.131H72.5496ZM71.1003 288.584C70.302 288.584 69.651 287.936 69.651 287.131H65.651C65.651 290.141 68.0886 292.584 71.1003 292.584V288.584ZM69.651 287.131C69.651 286.326 70.302 285.678 71.1003 285.678V281.678C68.0886 281.678 65.651 284.121 65.651 287.131H69.651ZM71.1003 285.678C71.8986 285.678 72.5496 286.326 72.5496 287.131H76.5496C76.5496 284.121 74.112 281.678 71.1003 281.678V285.678ZM41.1557 265.741C41.1557 266.545 40.5047 267.194 39.7064 267.194V271.194C42.7181 271.194 45.1557 268.75 45.1557 265.741H41.1557ZM39.7064 267.194C38.9081 267.194 38.2571 266.545 38.2571 265.741H34.2571C34.2571 268.75 36.6947 271.194 39.7064 271.194V267.194ZM38.2571 265.741C38.2571 264.936 38.9081 264.288 39.7064 264.288V260.288C36.6947 260.288 34.2571 262.731 34.2571 265.741H38.2571ZM39.7064 264.288C40.5047 264.288 41.1557 264.936 41.1557 265.741H45.1557C45.1557 262.731 42.7181 260.288 39.7064 260.288V264.288ZM87.1956 258.834C87.1956 259.639 86.5446 260.288 85.7463 260.288V264.288C88.758 264.288 91.1956 261.844 91.1956 258.834H87.1956ZM85.7463 260.288C84.948 260.288 84.297 259.639 84.297 258.834H80.297C80.297 261.844 82.7346 264.288 85.7463 264.288V260.288ZM84.297 258.834C84.297 258.03 84.948 257.381 85.7463 257.381V253.381C82.7346 253.381 80.297 255.825 80.297 258.834H84.297ZM85.7463 257.381C86.5446 257.381 87.1956 258.03 87.1956 258.834H91.1956C91.1956 255.825 88.758 253.381 85.7463 253.381V257.381ZM121.284 265.741C121.284 266.545 120.633 267.194 119.835 267.194V271.194C122.847 271.194 125.284 268.75 125.284 265.741H121.284ZM119.835 267.194C119.037 267.194 118.386 266.545 118.386 265.741H114.386C114.386 268.75 116.823 271.194 119.835 271.194V267.194ZM118.386 265.741C118.386 264.936 119.037 264.288 119.835 264.288V260.288C116.823 260.288 114.386 262.731 114.386 265.741H118.386ZM119.835 264.288C120.633 264.288 121.284 264.936 121.284 265.741H125.284C125.284 262.731 122.847 260.288 119.835 260.288V264.288ZM81.2638 42.2974C81.2638 43.1021 80.6128 43.7506 79.8145 43.7506V47.7506C82.8262 47.7506 85.2638 45.307 85.2638 42.2974H81.2638ZM79.8145 43.7506C79.0162 43.7506 78.3652 43.1021 78.3652 42.2974H74.3652C74.3652 45.307 76.8028 47.7506 79.8145 47.7506V43.7506ZM78.3652 42.2974C78.3652 41.4927 79.0162 40.8442 79.8145 40.8442V36.8442C76.8028 36.8442 74.3652 39.2878 74.3652 42.2974H78.3652ZM79.8145 40.8442C80.6128 40.8442 81.2638 41.4927 81.2638 42.2974H85.2638C85.2638 39.2878 82.8262 36.8442 79.8145 36.8442V40.8442ZM87.6608 5.4532C87.6608 6.25792 87.0098 6.90641 86.2115 6.90641V10.9064C89.2232 10.9064 91.6608 8.46278 91.6608 5.4532H87.6608ZM86.2115 6.90641C85.4132 6.90641 84.7622 6.25792 84.7622 5.4532H80.7622C80.7622 8.46278 83.1998 10.9064 86.2115 10.9064V6.90641ZM84.7622 5.4532C84.7622 4.64848 85.4132 4 86.2115 4V0C83.1998 0 80.7622 2.44362 80.7622 5.4532H84.7622ZM86.2115 4C87.0098 4 87.6608 4.64848 87.6608 5.4532H91.6608C91.6608 2.44362 89.2232 0 86.2115 0V4ZM66.423 20.4927C66.423 21.2974 65.772 21.9459 64.9737 21.9459V25.9459C67.9854 25.9459 70.423 23.5022 70.423 20.4927H66.423ZM64.9737 21.9459C64.1754 21.9459 63.5244 21.2974 63.5244 20.4927H59.5244C59.5244 23.5022 61.962 25.9459 64.9737 25.9459V21.9459ZM63.5244 20.4927C63.5244 19.6879 64.1754 19.0395 64.9737 19.0395V15.0395C61.962 15.0395 59.5244 17.4831 59.5244 20.4927H63.5244ZM64.9737 19.0395C65.772 19.0395 66.423 19.6879 66.423 20.4927H70.423C70.423 17.4831 67.9854 15.0395 64.9737 15.0395V19.0395Z" fill="#050F27"/>
</svg>
