<svg width="249" height="304" viewBox="0 0 249 304" fill="none" xmlns="http://www.w3.org/2000/svg">
<path d="M74.9389 194L105.13 153.802C105.26 153.629 105.33 153.419 105.33 153.202V97.5C105.33 96.9477 104.882 96.5 104.33 96.5H73.4508C72.8986 96.5 72.4508 96.0523 72.4508 95.5V83.5C72.4508 82.9477 72.8986 82.5 73.4508 82.5H104.33C104.882 82.5 105.33 82.0523 105.33 81.5L105.33 20.6236C105.33 20.5478 105.373 20.4786 105.441 20.4447L142.027 2.1487C142.161 2.08126 142.32 2.18163 142.316 2.33237L140.421 81.4761C140.408 82.0376 140.86 82.5 141.421 82.5H175.399C175.951 82.5 176.399 82.9477 176.399 83.5V95.5C176.399 96.0523 175.951 96.5 175.399 96.5H141.431C140.866 96.5 140.413 96.9686 140.432 97.5338L142.314 153.237C142.32 153.432 142.384 153.62 142.496 153.78L245.889 300.424C246.356 301.086 245.882 302 245.071 302L3.84391 302C3.05022 302 2.57284 301.12 3.00576 300.455L50.1584 228M74.9389 194L103.282 191.468M74.9389 194L50.1584 228M129.599 223.314L50.1584 228" stroke="white" stroke-width="4" stroke-linecap="round" stroke-linejoin="round"/>
</svg>
