<svg width="279" height="304" viewBox="0 0 279 304" fill="none" xmlns="http://www.w3.org/2000/svg">
<path d="M41.5391 70C40.4345 70 39.5391 70.8954 39.5391 72C39.5391 73.1046 40.4345 74 41.5391 74V70ZM119.546 74C120.651 74 121.546 73.1046 121.546 72C121.546 70.8954 120.651 70 119.546 70V74ZM159.451 0C158.347 0 157.451 0.89543 157.451 2C157.451 3.10457 158.347 4 159.451 4V0ZM237.459 4C238.563 4 239.459 3.10457 239.459 2C239.459 0.89543 238.563 0 237.459 0V4ZM277 304C278.105 304 279 303.105 279 302C279 300.895 278.105 300 277 300V304ZM2 300C0.89543 300 0 300.895 0 302C0 303.105 0.89543 304 2 304V300ZM2 124.534C0.89543 124.534 0 125.429 0 126.534C0 127.638 0.89543 128.534 2 128.534V124.534ZM277 128.534C278.105 128.534 279 127.638 279 126.534C279 125.429 278.105 124.534 277 124.534V128.534ZM248.51 124.534C247.405 124.534 246.51 125.429 246.51 126.534C246.51 127.638 247.405 128.534 248.51 128.534V124.534ZM149.781 128.534C150.886 128.534 151.781 127.638 151.781 126.534C151.781 125.429 150.886 124.534 149.781 124.534V128.534ZM128.664 124.534C127.56 124.534 126.664 125.429 126.664 126.534C126.664 127.638 127.56 128.534 128.664 128.534V124.534ZM30.7586 128.534C31.8632 128.534 32.7586 127.638 32.7586 126.534C32.7586 125.429 31.8632 124.534 30.7586 124.534V128.534ZM41.5391 74H46.8207V70H41.5391V74ZM46.8207 74H114.268V70H46.8207V74ZM114.268 74H119.546V70H114.268V74ZM80.5444 278.585C63.0482 278.585 48.8207 264.21 48.8207 246.422H44.8207C44.8207 266.37 60.7904 282.585 80.5444 282.585V278.585ZM112.268 246.422C112.268 264.21 98.0406 278.585 80.5444 278.585V282.585C100.298 282.585 116.268 266.37 116.268 246.422H112.268ZM159.451 4H164.733V0H159.451V4ZM164.733 4H232.18V0H164.733V4ZM232.18 4H237.459V0H232.18V4ZM198.457 278.585C180.961 278.585 166.733 264.21 166.733 246.422H162.733C162.733 266.37 178.703 282.585 198.457 282.585V278.585ZM230.18 246.422C230.18 264.21 215.953 278.585 198.457 278.585V282.585C218.211 282.585 234.18 266.37 234.18 246.422H230.18ZM112.268 72V246.422H116.268V72H112.268ZM48.8207 246.422V72H44.8207V246.422H48.8207ZM230.18 2V246.422H234.18V2H230.18ZM166.733 246.422V2H162.733V246.422H166.733ZM257.52 304H277V300H257.52V304ZM259.52 302V126.534H255.52V302H259.52ZM2 304H23.1349V300H2V304ZM23.1349 304H257.52V300H23.1349V304ZM25.1349 302V126.534H21.1349V302H25.1349ZM23.1349 124.534H2V128.534H23.1349V124.534ZM257.52 128.534H277V124.534H257.52V128.534ZM257.52 124.534H248.51V128.534H257.52V124.534ZM149.781 124.534H128.664V128.534H149.781V124.534ZM23.1349 128.534H30.7586V124.534H23.1349V128.534Z" fill="white"/>
</svg>
