<svg width="16" height="8" viewBox="0 0 16 8" fill="none" xmlns="http://www.w3.org/2000/svg">
<path d="M8 5.48206L13.9377 0.318462C14.0483 0.21883 14.1807 0.139361 14.327 0.0846901C14.4734 0.0300196 14.6308 0.00124299 14.79 3.9386e-05C14.9493 -0.00116422 15.1073 0.0252293 15.2547 0.0776798C15.4021 0.13013 15.536 0.207588 15.6487 0.305532C15.7613 0.403476 15.8504 0.519946 15.9107 0.648145C15.971 0.776345 16.0013 0.913706 16 1.05221C15.9986 1.19072 15.9655 1.32761 15.9026 1.45487C15.8397 1.58214 15.7484 1.69725 15.6338 1.79348L8.84807 7.69458C8.62312 7.89014 8.31807 8 8 8C7.68193 8 7.37688 7.89014 7.15193 7.69458L0.366202 1.79348C0.251635 1.69725 0.160252 1.58214 0.0973859 1.45487C0.0345198 1.32761 0.00142933 1.19072 4.52903e-05 1.05221C-0.00133875 0.913706 0.0290114 0.776345 0.0893247 0.648145C0.149638 0.519946 0.238707 0.403476 0.351334 0.305532C0.463961 0.207588 0.59789 0.13013 0.745308 0.0776798C0.892726 0.0252293 1.05068 -0.00116422 1.20995 3.9386e-05C1.36922 0.00124299 1.52663 0.0300196 1.67297 0.0846901C1.81932 0.139361 1.95168 0.21883 2.06234 0.318462L8 5.48206Z" fill="#050F27"/>
</svg>
